<svg width="16" height="12" viewBox="0 0 16 12" fill="none" xmlns="http://www.w3.org/2000/svg">
<path d="M12 11C13.6569 11 15 9.65685 15 8V6.0001M15 6.0001V2.59847C15 2.03951 15 1.7596 14.8911 1.5459C14.7952 1.35774 14.6419 1.20487 14.4537 1.10899C14.2398 1 13.9602 1 13.4001 1H11.6001C11.04 1 10.7598 1 10.5459 1.10899C10.3577 1.20487 10.2049 1.35774 10.109 1.5459C10 1.75981 10 2.04005 10 2.6001V4.4001C10 4.96015 10 5.23979 10.109 5.4537C10.2049 5.64186 10.3577 5.79524 10.5459 5.89111C10.7596 6 11.0395 6 11.5985 6L15 6.0001ZM3 11C4.65685 11 6 9.65685 6 8L6 6.0001M6 6.0001V2.59846C6 2.0395 6 1.7596 5.89111 1.5459C5.79524 1.35774 5.64186 1.20487 5.4537 1.10899C5.23979 1 4.96015 1 4.4001 1H2.6001C2.04005 1 1.75981 1 1.5459 1.10899C1.35774 1.20487 1.20487 1.35774 1.10899 1.5459C1 1.75981 1 2.04005 1 2.6001V4.4001C1 4.96015 1 5.23979 1.10899 5.4537C1.20487 5.64186 1.35774 5.79524 1.5459 5.89111C1.7596 6 2.0395 6 2.59845 6L6 6.0001Z" stroke="black" stroke-width="2" stroke-linecap="round" stroke-linejoin="round"/>
</svg>
