<svg width="16" height="18" viewBox="0 0 16 18" fill="none" xmlns="http://www.w3.org/2000/svg">
<path d="M10 3.5V14.5C10 14.9647 10 15.197 10.0384 15.3902C10.1962 16.1836 10.8165 16.8036 11.6099 16.9614C11.8031 16.9999 12.0354 16.9999 12.5 16.9999C12.9647 16.9999 13.1969 16.9999 13.3901 16.9614C14.1835 16.8036 14.8036 16.1836 14.9614 15.3902C14.9999 15.197 15 14.9647 15 14.5V3.5C15 3.03535 14.9999 2.80306 14.9614 2.60986C14.8036 1.81648 14.1836 1.19624 13.3902 1.03843C13.197 1 12.9647 1 12.5 1C12.0353 1 11.8031 1 11.6099 1.03843C10.8165 1.19624 10.1962 1.81648 10.0384 2.60986C10 2.80306 10 3.03534 10 3.5Z" stroke="black" stroke-width="2" stroke-linecap="round" stroke-linejoin="round"/>
<path d="M1 3.5V14.5C1 14.9647 1 15.197 1.03843 15.3902C1.19624 16.1836 1.81648 16.8036 2.60986 16.9614C2.80306 16.9999 3.03539 16.9999 3.50004 16.9999C3.96469 16.9999 4.19694 16.9999 4.39014 16.9614C5.18352 16.8036 5.80361 16.1836 5.96143 15.3902C5.99986 15.197 6 14.9647 6 14.5V3.5C6 3.03535 5.99986 2.80306 5.96143 2.60986C5.80361 1.81648 5.18356 1.19624 4.39018 1.03843C4.19698 1 3.96466 1 3.5 1C3.03534 1 2.80306 1 2.60986 1.03843C1.81648 1.19624 1.19624 1.81648 1.03843 2.60986C1 2.80306 1 3.03534 1 3.5Z" stroke="black" stroke-width="2" stroke-linecap="round" stroke-linejoin="round"/>
</svg>
