<svg width="16" height="16" viewBox="0 0 16 16" fill="none" xmlns="http://www.w3.org/2000/svg">
<path d="M11 8.00241V8.99999C11 10.1046 11.8954 11 13 11C14.1046 11 15 10.1046 15 8.99999V7.99999C15 6.50215 14.5197 5.04388 13.6294 3.83935C12.7391 2.63482 11.4856 1.74757 10.0537 1.3081C8.62179 0.868625 7.08657 0.90001 5.67383 1.39771C4.26109 1.89542 3.04534 2.83359 2.20508 4.07355C1.36482 5.31351 0.94457 6.78987 1.00587 8.28646C1.06717 9.78305 1.60688 11.2207 2.54573 12.3878C3.48458 13.5549 4.77336 14.3899 6.22207 14.7704C7.67077 15.1509 9.20271 15.0566 10.5939 14.5015M11 8.00241C10.9987 9.65815 9.65605 11 8 11C6.34315 11 5 9.65685 5 7.99999C5 6.34314 6.34315 4.99999 8 4.99999C9.65605 4.99999 10.9987 6.34183 11 7.99757M11 8.00241V7.99757M11 7.99757V4.99999" stroke="black" stroke-width="2" stroke-linecap="round" stroke-linejoin="round"/>
</svg>
