<svg width="7" height="12" viewBox="0 0 7 12" fill="none" xmlns="http://www.w3.org/2000/svg">
<path d="M1 6V9.4C1 9.96005 1 10.2399 1.10899 10.4538C1.20487 10.642 1.35774 10.7952 1.5459 10.8911C1.7596 11 2.0395 11 2.59845 11H4.40154C4.9605 11 5.23999 11 5.4537 10.8911C5.64186 10.7952 5.79524 10.6419 5.89111 10.4537C6 10.24 6 9.9605 6 9.40155V7.59846C6 7.0395 6 6.7596 5.89111 6.5459C5.79524 6.35774 5.64196 6.20487 5.45379 6.10899C5.23988 6 4.96005 6 4.4 6H1ZM1 6V4C1 2.34315 2.34315 1 4 1" stroke="black" stroke-width="2" stroke-linecap="round" stroke-linejoin="round"/>
</svg>
