<svg width="20" height="16" viewBox="0 0 20 16" fill="none" xmlns="http://www.w3.org/2000/svg">
<path d="M19 5H15L13.75 10.0158C13.8285 9.92677 13.912 9.84289 14 9.76416C14.3509 9.45038 14.7731 9.2209 15.2346 9.09912C15.9263 8.91658 16.6611 8.98756 17.3053 9.29872C17.9495 9.60988 18.4608 10.1414 18.7479 10.7967C19.035 11.452 19.0788 12.188 18.8707 12.8725C18.6627 13.557 18.2165 14.1447 17.6133 14.5295C17.0101 14.9142 16.2895 15.0704 15.5811 14.9704C14.8726 14.8705 14.2232 14.521 13.75 13.9844M1 1V8M1 8V15M1 8H9M9 1V8M9 8V15" stroke="black" stroke-width="2" stroke-linecap="round" stroke-linejoin="round"/>
</svg>
