<svg width="18" height="16" viewBox="0 0 18 16" fill="none" xmlns="http://www.w3.org/2000/svg">
<path d="M3.5 15H14.5C14.9647 15 15.197 14.9999 15.3902 14.9614C16.1836 14.8036 16.8036 14.1836 16.9614 13.3902C16.9999 13.197 16.9999 12.9647 16.9999 12.5C16.9999 12.0353 16.9999 11.8031 16.9614 11.6099C16.8036 10.8165 16.1836 10.1962 15.3902 10.0384C15.197 10 14.9647 10 14.5 10H3.5C3.03534 10 2.80306 10 2.60986 10.0384C1.81648 10.1962 1.19624 10.8165 1.03843 11.6099C1 11.8031 1 12.0354 1 12.5C1 12.9647 1 13.1969 1.03843 13.3901C1.19624 14.1835 1.81648 14.8036 2.60986 14.9614C2.80306 14.9999 3.03535 15 3.5 15Z" stroke="black" stroke-width="2" stroke-linecap="round" stroke-linejoin="round"/>
<path d="M3.5 6H14.5C14.9647 6 15.197 5.99986 15.3902 5.96143C16.1836 5.80361 16.8036 5.18356 16.9614 4.39018C16.9999 4.19698 16.9999 3.96465 16.9999 3.5C16.9999 3.03535 16.9999 2.80306 16.9614 2.60986C16.8036 1.81648 16.1836 1.19624 15.3902 1.03843C15.197 1 14.9647 1 14.5 1H3.5C3.03534 1 2.80306 1 2.60986 1.03843C1.81648 1.19624 1.19624 1.81648 1.03843 2.60986C1 2.80306 1 3.03539 1 3.50004C1 3.9647 1 4.19694 1.03843 4.39014C1.19624 5.18352 1.81648 5.80361 2.60986 5.96143C2.80306 5.99986 3.03535 6 3.5 6Z" stroke="black" stroke-width="2" stroke-linecap="round" stroke-linejoin="round"/>
</svg>
