<svg width="7" height="12" viewBox="0 0 7 12" fill="none" xmlns="http://www.w3.org/2000/svg">
<path d="M3 11C4.65685 11 6 9.65685 6 8V6M6 6V2.59846C6 2.0395 6 1.7596 5.89111 1.5459C5.79524 1.35774 5.64186 1.20487 5.4537 1.10899C5.23979 1 4.96015 1 4.4001 1H2.6001C2.04005 1 1.75981 1 1.5459 1.10899C1.35774 1.20487 1.20487 1.35774 1.10899 1.5459C1 1.75981 1 2.04005 1 2.6001V4.4001C1 4.96015 1 5.23979 1.10899 5.4537C1.20487 5.64186 1.35774 5.79524 1.5459 5.89111C1.7596 6 2.0395 6 2.59846 6H6Z" stroke="black" stroke-width="2" stroke-linecap="round" stroke-linejoin="round"/>
</svg>
