<svg width="18" height="18" viewBox="0 0 18 18" fill="none" xmlns="http://www.w3.org/2000/svg">
<path d="M9.00049 9.00008C9.89593 9.00008 10.7749 9.19245 11.5457 9.55711C11.8939 9.72184 12.2146 9.91919 12.5009 10.1437C12.8484 10.4162 13.1457 10.729 13.3822 11.0732C13.8136 11.7009 14.0263 12.4096 13.9982 13.1256C13.97 13.8416 13.702 14.5385 13.2222 15.1433C12.7424 15.7481 12.0684 16.2386 11.2705 16.5638C10.4727 16.889 9.5802 17.0373 8.68652 16.9923C7.79285 16.9473 6.93104 16.7108 6.19043 16.3082C5.44982 15.9055 4.85782 15.3514 4.47656 14.7032M9.00049 9.00008H1M9.00049 9.00008H17M13.5243 3.29718C13.143 2.649 12.5512 2.09462 11.8105 1.69197C11.0699 1.28932 10.2076 1.05287 9.31396 1.00789C8.42029 0.962908 7.52783 1.11091 6.72998 1.43613C5.93213 1.76135 5.25812 2.25205 4.77832 2.85689C4.29852 3.46173 4.03057 4.15885 4.00244 4.87485C3.9942 5.08463 4.00669 5.29345 4.03924 5.50014" stroke="black" stroke-width="2" stroke-linecap="round" stroke-linejoin="round"/>
</svg>
