<svg width="16" height="12" viewBox="0 0 16 12" fill="none" xmlns="http://www.w3.org/2000/svg">
<path d="M10 6V9.4C10 9.96005 10 10.2399 10.109 10.4538C10.2049 10.642 10.3577 10.7952 10.5459 10.8911C10.7596 11 11.0395 11 11.5985 11H13.4015C13.9605 11 14.24 11 14.4537 10.8911C14.6419 10.7952 14.7952 10.6419 14.8911 10.4537C15 10.24 15 9.9605 15 9.40155V7.59846C15 7.0395 15 6.7596 14.8911 6.5459C14.7952 6.35774 14.642 6.20487 14.4538 6.10899C14.2399 6 13.9601 6 13.4 6H10ZM10 6V4C10 2.34315 11.3431 1 13 1M1 6V9.4C1 9.96005 1 10.2399 1.10899 10.4538C1.20487 10.642 1.35774 10.7952 1.5459 10.8911C1.7596 11 2.0395 11 2.59845 11H4.40154C4.9605 11 5.23999 11 5.4537 10.8911C5.64186 10.7952 5.79524 10.6419 5.89111 10.4537C6 10.24 6 9.9605 6 9.40155V7.59846C6 7.0395 6 6.7596 5.89111 6.5459C5.79524 6.35774 5.64196 6.20487 5.45379 6.10899C5.23988 6 4.96005 6 4.4 6H1ZM1 6V4C1 2.34315 2.34315 1 4 1" stroke="black" stroke-width="2" stroke-linecap="round" stroke-linejoin="round"/>
</svg>
