<svg width="456" height="78" viewBox="0 0 456 78" fill="none" xmlns="http://www.w3.org/2000/svg">
<path d="M95.28 25.08V42.36C95.28 44.2533 95.7733 45.7067 96.76 46.72C97.7467 47.7067 99.1333 48.2 100.92 48.2C102.733 48.2 104.133 47.7067 105.12 46.72C106.107 45.7067 106.6 44.2533 106.6 42.36V25.08H112.24V42.32C112.24 44.6933 111.72 46.7067 110.68 48.36C109.667 49.9867 108.293 51.2133 106.56 52.04C104.853 52.8667 102.947 53.28 100.84 53.28C98.76 53.28 96.8667 52.8667 95.16 52.04C93.48 51.2133 92.1467 49.9867 91.16 48.36C90.1733 46.7067 89.68 44.6933 89.68 42.32V25.08H95.28ZM129.131 30.52C131.771 30.52 133.904 31.36 135.531 33.04C137.157 34.6933 137.971 37.0133 137.971 40V53H132.371V40.76C132.371 39 131.931 37.6533 131.051 36.72C130.171 35.76 128.971 35.28 127.451 35.28C125.904 35.28 124.677 35.76 123.771 36.72C122.891 37.6533 122.451 39 122.451 40.76V53H116.851V30.84H122.451V33.6C123.197 32.64 124.144 31.8933 125.291 31.36C126.464 30.8 127.744 30.52 129.131 30.52ZM141.056 41.84C141.056 39.6 141.496 37.6133 142.376 35.88C143.283 34.1467 144.509 32.8133 146.056 31.88C147.603 30.9467 149.323 30.48 151.216 30.48C152.656 30.48 154.029 30.8 155.336 31.44C156.643 32.0533 157.683 32.88 158.456 33.92V23.4H164.136V53H158.456V49.72C157.763 50.8133 156.789 51.6933 155.536 52.36C154.283 53.0267 152.829 53.36 151.176 53.36C149.309 53.36 147.603 52.88 146.056 51.92C144.509 50.96 143.283 49.6133 142.376 47.88C141.496 46.12 141.056 44.1067 141.056 41.84ZM158.496 41.92C158.496 40.56 158.229 39.4 157.696 38.44C157.163 37.4533 156.443 36.7067 155.536 36.2C154.629 35.6667 153.656 35.4 152.616 35.4C151.576 35.4 150.616 35.6533 149.736 36.16C148.856 36.6667 148.136 37.4133 147.576 38.4C147.043 39.36 146.776 40.5067 146.776 41.84C146.776 43.1733 147.043 44.3467 147.576 45.36C148.136 46.3467 148.856 47.1067 149.736 47.64C150.643 48.1733 151.603 48.44 152.616 48.44C153.656 48.44 154.629 48.1867 155.536 47.68C156.443 47.1467 157.163 46.4 157.696 45.44C158.229 44.4533 158.496 43.28 158.496 41.92ZM189.405 41.44C189.405 42.24 189.352 42.96 189.245 43.6H173.045C173.179 45.2 173.739 46.4533 174.725 47.36C175.712 48.2667 176.925 48.72 178.365 48.72C180.445 48.72 181.925 47.8267 182.805 46.04H188.845C188.205 48.1733 186.979 49.9333 185.165 51.32C183.352 52.68 181.125 53.36 178.485 53.36C176.352 53.36 174.432 52.8933 172.725 51.96C171.045 51 169.725 49.6533 168.765 47.92C167.832 46.1867 167.365 44.1867 167.365 41.92C167.365 39.6267 167.832 37.6133 168.765 35.88C169.699 34.1467 171.005 32.8133 172.685 31.88C174.365 30.9467 176.299 30.48 178.485 30.48C180.592 30.48 182.472 30.9333 184.125 31.84C185.805 32.7467 187.099 34.04 188.005 35.72C188.939 37.3733 189.405 39.28 189.405 41.44ZM183.605 39.84C183.579 38.4 183.059 37.2533 182.045 36.4C181.032 35.52 179.792 35.08 178.325 35.08C176.939 35.08 175.765 35.5067 174.805 36.36C173.872 37.1867 173.299 38.3467 173.085 39.84H183.605ZM198.293 34.28C199.013 33.1067 199.946 32.1867 201.093 31.52C202.266 30.8533 203.599 30.52 205.093 30.52V36.4H203.613C201.853 36.4 200.519 36.8133 199.613 37.64C198.733 38.4667 198.293 39.9067 198.293 41.96V53H192.693V30.84H198.293V34.28ZM216.745 30.48C218.398 30.48 219.851 30.8133 221.105 31.48C222.358 32.12 223.345 32.96 224.065 34V30.84H229.705V53.16C229.705 55.2133 229.291 57.04 228.465 58.64C227.638 60.2667 226.398 61.5467 224.745 62.48C223.091 63.44 221.091 63.92 218.745 63.92C215.598 63.92 213.011 63.1867 210.985 61.72C208.985 60.2533 207.851 58.2533 207.585 55.72H213.145C213.438 56.7333 214.065 57.5333 215.025 58.12C216.011 58.7333 217.198 59.04 218.585 59.04C220.211 59.04 221.531 58.5467 222.545 57.56C223.558 56.6 224.065 55.1333 224.065 53.16V49.72C223.345 50.76 222.345 51.6267 221.065 52.32C219.811 53.0133 218.371 53.36 216.745 53.36C214.878 53.36 213.171 52.88 211.625 51.92C210.078 50.96 208.851 49.6133 207.945 47.88C207.065 46.12 206.625 44.1067 206.625 41.84C206.625 39.6 207.065 37.6133 207.945 35.88C208.851 34.1467 210.065 32.8133 211.585 31.88C213.131 30.9467 214.851 30.48 216.745 30.48ZM224.065 41.92C224.065 40.56 223.798 39.4 223.265 38.44C222.731 37.4533 222.011 36.7067 221.105 36.2C220.198 35.6667 219.225 35.4 218.185 35.4C217.145 35.4 216.185 35.6533 215.305 36.16C214.425 36.6667 213.705 37.4133 213.145 38.4C212.611 39.36 212.345 40.5067 212.345 41.84C212.345 43.1733 212.611 44.3467 213.145 45.36C213.705 46.3467 214.425 47.1067 215.305 47.64C216.211 48.1733 217.171 48.44 218.185 48.44C219.225 48.44 220.198 48.1867 221.105 47.68C222.011 47.1467 222.731 46.4 223.265 45.44C223.798 44.4533 224.065 43.28 224.065 41.92ZM239.974 34.28C240.694 33.1067 241.627 32.1867 242.774 31.52C243.947 30.8533 245.281 30.52 246.774 30.52V36.4H245.294C243.534 36.4 242.201 36.8133 241.294 37.64C240.414 38.4667 239.974 39.9067 239.974 41.96V53H234.374V30.84H239.974V34.28ZM259.586 53.36C257.453 53.36 255.533 52.8933 253.826 51.96C252.119 51 250.773 49.6533 249.786 47.92C248.826 46.1867 248.346 44.1867 248.346 41.92C248.346 39.6533 248.839 37.6533 249.826 35.92C250.839 34.1867 252.213 32.8533 253.946 31.92C255.679 30.96 257.613 30.48 259.746 30.48C261.879 30.48 263.813 30.96 265.546 31.92C267.279 32.8533 268.639 34.1867 269.626 35.92C270.639 37.6533 271.146 39.6533 271.146 41.92C271.146 44.1867 270.626 46.1867 269.586 47.92C268.573 49.6533 267.186 51 265.426 51.96C263.693 52.8933 261.746 53.36 259.586 53.36ZM259.586 48.48C260.599 48.48 261.546 48.24 262.426 47.76C263.333 47.2533 264.053 46.5067 264.586 45.52C265.119 44.5333 265.386 43.3333 265.386 41.92C265.386 39.8133 264.826 38.2 263.706 37.08C262.613 35.9333 261.266 35.36 259.666 35.36C258.066 35.36 256.719 35.9333 255.626 37.08C254.559 38.2 254.026 39.8133 254.026 41.92C254.026 44.0267 254.546 45.6533 255.586 46.8C256.653 47.92 257.986 48.48 259.586 48.48ZM295.374 30.84V53H289.734V50.2C289.014 51.16 288.067 51.92 286.894 52.48C285.747 53.0133 284.494 53.28 283.134 53.28C281.4 53.28 279.867 52.92 278.534 52.2C277.2 51.4533 276.147 50.3733 275.374 48.96C274.627 47.52 274.254 45.8133 274.254 43.84V30.84H279.854V43.04C279.854 44.8 280.294 46.16 281.174 47.12C282.054 48.0533 283.254 48.52 284.774 48.52C286.32 48.52 287.534 48.0533 288.414 47.12C289.294 46.16 289.734 44.8 289.734 43.04V30.84H295.374ZM312.379 30.52C315.019 30.52 317.152 31.36 318.779 33.04C320.406 34.6933 321.219 37.0133 321.219 40V53H315.619V40.76C315.619 39 315.179 37.6533 314.299 36.72C313.419 35.76 312.219 35.28 310.699 35.28C309.152 35.28 307.926 35.76 307.019 36.72C306.139 37.6533 305.699 39 305.699 40.76V53H300.099V30.84H305.699V33.6C306.446 32.64 307.392 31.8933 308.539 31.36C309.712 30.8 310.992 30.52 312.379 30.52ZM324.304 41.84C324.304 39.6 324.744 37.6133 325.624 35.88C326.531 34.1467 327.758 32.8133 329.304 31.88C330.851 30.9467 332.571 30.48 334.464 30.48C335.904 30.48 337.278 30.8 338.584 31.44C339.891 32.0533 340.931 32.88 341.704 33.92V23.4H347.384V53H341.704V49.72C341.011 50.8133 340.038 51.6933 338.784 52.36C337.531 53.0267 336.078 53.36 334.424 53.36C332.558 53.36 330.851 52.88 329.304 51.92C327.758 50.96 326.531 49.6133 325.624 47.88C324.744 46.12 324.304 44.1067 324.304 41.84ZM341.744 41.92C341.744 40.56 341.478 39.4 340.944 38.44C340.411 37.4533 339.691 36.7067 338.784 36.2C337.878 35.6667 336.904 35.4 335.864 35.4C334.824 35.4 333.864 35.6533 332.984 36.16C332.104 36.6667 331.384 37.4133 330.824 38.4C330.291 39.36 330.024 40.5067 330.024 41.84C330.024 43.1733 330.291 44.3467 330.824 45.36C331.384 46.3467 332.104 47.1067 332.984 47.64C333.891 48.1733 334.851 48.44 335.864 48.44C336.904 48.44 337.878 48.1867 338.784 47.68C339.691 47.1467 340.411 46.4 340.944 45.44C341.478 44.4533 341.744 43.28 341.744 41.92ZM357.654 25.08V53H352.054V25.08H357.654ZM360.947 41.92C360.947 39.6267 361.413 37.6267 362.347 35.92C363.28 34.1867 364.573 32.8533 366.227 31.92C367.88 30.96 369.773 30.48 371.907 30.48C374.653 30.48 376.92 31.1733 378.707 32.56C380.52 33.92 381.733 35.84 382.347 38.32H376.307C375.987 37.36 375.44 36.6133 374.667 36.08C373.92 35.52 372.987 35.24 371.867 35.24C370.267 35.24 369 35.8267 368.067 37C367.133 38.1467 366.667 39.7867 366.667 41.92C366.667 44.0267 367.133 45.6667 368.067 46.84C369 47.9867 370.267 48.56 371.867 48.56C374.133 48.56 375.613 47.5467 376.307 45.52H382.347C381.733 47.92 380.52 49.8267 378.707 51.24C376.893 52.6533 374.627 53.36 371.907 53.36C369.773 53.36 367.88 52.8933 366.227 51.96C364.573 51 363.28 49.6667 362.347 47.96C361.413 46.2267 360.947 44.2133 360.947 41.92ZM395.489 53.36C393.356 53.36 391.436 52.8933 389.729 51.96C388.022 51 386.676 49.6533 385.689 47.92C384.729 46.1867 384.249 44.1867 384.249 41.92C384.249 39.6533 384.742 37.6533 385.729 35.92C386.742 34.1867 388.116 32.8533 389.849 31.92C391.582 30.96 393.516 30.48 395.649 30.48C397.782 30.48 399.716 30.96 401.449 31.92C403.182 32.8533 404.542 34.1867 405.529 35.92C406.542 37.6533 407.049 39.6533 407.049 41.92C407.049 44.1867 406.529 46.1867 405.489 47.92C404.476 49.6533 403.089 51 401.329 51.96C399.596 52.8933 397.649 53.36 395.489 53.36ZM395.489 48.48C396.502 48.48 397.449 48.24 398.329 47.76C399.236 47.2533 399.956 46.5067 400.489 45.52C401.022 44.5333 401.289 43.3333 401.289 41.92C401.289 39.8133 400.729 38.2 399.609 37.08C398.516 35.9333 397.169 35.36 395.569 35.36C393.969 35.36 392.622 35.9333 391.529 37.08C390.462 38.2 389.929 39.8133 389.929 41.92C389.929 44.0267 390.449 45.6533 391.489 46.8C392.556 47.92 393.889 48.48 395.489 48.48ZM422.637 30.52C425.277 30.52 427.41 31.36 429.037 33.04C430.664 34.6933 431.477 37.0133 431.477 40V53H425.877V40.76C425.877 39 425.437 37.6533 424.557 36.72C423.677 35.76 422.477 35.28 420.957 35.28C419.41 35.28 418.184 35.76 417.277 36.72C416.397 37.6533 415.957 39 415.957 40.76V53H410.357V30.84H415.957V33.6C416.704 32.64 417.65 31.8933 418.797 31.36C419.97 30.8 421.25 30.52 422.637 30.52ZM444.482 53.36C442.669 53.36 441.042 53.04 439.602 52.4C438.162 51.7333 437.016 50.84 436.162 49.72C435.336 48.6 434.882 47.36 434.802 46H440.442C440.549 46.8533 440.962 47.56 441.682 48.12C442.429 48.68 443.349 48.96 444.442 48.96C445.509 48.96 446.336 48.7467 446.922 48.32C447.536 47.8933 447.842 47.3467 447.842 46.68C447.842 45.96 447.469 45.4267 446.722 45.08C446.002 44.7067 444.842 44.3067 443.242 43.88C441.589 43.48 440.229 43.0667 439.162 42.64C438.122 42.2133 437.216 41.56 436.442 40.68C435.696 39.8 435.322 38.6133 435.322 37.12C435.322 35.8933 435.669 34.7733 436.362 33.76C437.082 32.7467 438.096 31.9467 439.402 31.36C440.736 30.7733 442.296 30.48 444.082 30.48C446.722 30.48 448.829 31.1467 450.402 32.48C451.976 33.7867 452.842 35.56 453.002 37.8H447.642C447.562 36.92 447.189 36.2267 446.522 35.72C445.882 35.1867 445.016 34.92 443.922 34.92C442.909 34.92 442.122 35.1067 441.562 35.48C441.029 35.8533 440.762 36.3733 440.762 37.04C440.762 37.7867 441.136 38.36 441.882 38.76C442.629 39.1333 443.789 39.52 445.362 39.92C446.962 40.32 448.282 40.7333 449.322 41.16C450.362 41.5867 451.256 42.2533 452.002 43.16C452.776 44.04 453.176 45.2133 453.202 46.68C453.202 47.96 452.842 49.1067 452.122 50.12C451.429 51.1333 450.416 51.9333 449.082 52.52C447.776 53.08 446.242 53.36 444.482 53.36Z" fill="#ABAFD1"/>
<path d="M39 75C46.9607 75 53.1531 74.5696 57.9922 73.4941C62.7972 72.4263 66.0825 70.7632 68.4229 68.4229C70.7632 66.0825 72.4263 62.7972 73.4941 57.9922C74.5696 53.1531 75 46.9607 75 39C75 31.0393 74.5696 24.8469 73.4941 20.0078C72.4263 15.2028 70.7632 11.9175 68.4229 9.57715C66.0825 7.23684 62.7972 5.57374 57.9922 4.50586C53.1531 3.43041 46.9607 3 39 3C31.0393 3 24.8469 3.43041 20.0078 4.50586C15.2028 5.57374 11.9175 7.23684 9.57715 9.57715C7.23684 11.9175 5.57374 15.2028 4.50586 20.0078C3.43041 24.8469 3 31.0393 3 39C3 46.9607 3.43041 53.1531 4.50586 57.9922C5.57374 62.7972 7.23684 66.0825 9.57715 68.4229C11.9175 70.7632 15.2028 72.4263 20.0078 73.4941C24.8469 74.5696 31.0393 75 39 75Z" stroke="#ABAFD1" stroke-width="6" stroke-linecap="round" stroke-linejoin="round"/>
<path d="M26 32.5L19.5 39L26 45.5" stroke="#ABAFD1" stroke-width="6" stroke-linecap="round" stroke-linejoin="round"/>
<path d="M52 32.5L58.5 39L52 45.5" stroke="#ABAFD1" stroke-width="6" stroke-linecap="round" stroke-linejoin="round"/>
<path d="M35.75 56.0575L42.2243 22.7499" stroke="#ABAFD1" stroke-width="6" stroke-linecap="round"/>
</svg>
