<svg width="24" height="27" viewBox="0 0 24 27" fill="none" xmlns="http://www.w3.org/2000/svg">
<path fill-rule="evenodd" clip-rule="evenodd" d="M9 1C9 0.447693 9.44769 0 10 0C10.5523 0 11 0.447693 11 1V2H13V1C13 0.447693 13.4477 0 14 0C14.5523 0 15 0.447693 15 1V2H16C16.8825 2 17.6315 2.57159 17.897 3.36475C18.1895 3.41302 18.4676 3.46649 18.7321 3.52527C20.3526 3.88538 21.3129 4.41321 21.9498 5.05017C22.5868 5.68707 23.1146 6.6474 23.4747 8.26794C23.8409 9.91571 24 12.0901 24 15C24 17.9099 23.8409 20.0843 23.4747 21.7321C23.1146 23.3526 22.5868 24.3129 21.9498 24.9498C21.3129 25.5868 20.3526 26.1146 18.7321 26.4747C17.0843 26.8409 14.9099 27 12 27C9.09015 27 6.91571 26.8409 5.26794 26.4747C3.6474 26.1146 2.68707 25.5868 2.05017 24.9498C1.41321 24.3129 0.885376 23.3526 0.525269 21.7321C0.159058 20.0843 0 17.9099 0 15C0 12.0901 0.159058 9.91571 0.525269 8.26794C0.885376 6.6474 1.41321 5.68707 2.05017 5.05017C2.68707 4.41321 3.6474 3.88538 5.26794 3.52527C5.53241 3.46649 5.81055 3.41302 6.10303 3.36475C6.36853 2.57159 7.11749 2 8 2H9V1ZM14.137 9.74963C14.551 9.23212 14.4672 8.47699 13.9496 8.06293C13.4321 7.64893 12.6769 7.73285 12.2629 8.25037L7.46295 14.2504C7.1748 14.6106 7.11859 15.1041 7.31842 15.5198C7.51825 15.9356 7.93872 16.2 8.40002 16.2H13.1033L9.86298 20.2504C9.44897 20.7679 9.53284 21.523 10.0504 21.9371C10.5679 22.3511 11.3231 22.2672 11.7371 21.7496L16.537 15.7496C16.8252 15.3894 16.8814 14.8959 16.6816 14.4802C16.4818 14.0644 16.0613 13.8 15.6 13.8H10.8967L14.137 9.74963Z" fill="#212135"/>
</svg>
