<svg width="24" height="26" viewBox="0 0 24 26" fill="none" xmlns="http://www.w3.org/2000/svg">
<path d="M15 1C15 0.447754 15.4477 0 16 0C16.5523 0 17 0.447754 17 1V5C17 5.55225 16.5523 6 16 6C15.4477 6 15 5.55225 15 5V1Z" fill="#212135"/>
<path d="M14 2.03442C13.3715 2.01074 12.7056 2 12 2C11.2944 2 10.6285 2.01074 10 2.03442V5C10 6.10461 9.10455 7 8 7C6.89545 7 6 6.10461 6 5V2.47559C2.49231 3.24268 0.907471 5.07202 0.308044 8.90088C0.216431 9.48608 0.682434 10 1.27472 10H22.7253C23.3176 10 23.7836 9.48608 23.692 8.90088C23.0925 5.07202 21.5077 3.24268 18 2.47559V5C18 6.10461 17.1046 7 16 7C14.8954 7 14 6.10461 14 5V2.03442Z" fill="#212135"/>
<path fill-rule="evenodd" clip-rule="evenodd" d="M12 26C2.11798 26 0 23.882 0 14C0 13.6443 0.00274658 13.2986 0.00848389 12.9626C0.0177002 12.4252 0.4599 12 0.997498 12H23.0025C23.5401 12 23.9823 12.4252 23.9915 12.9626L23.9943 13.146L23.9963 13.3093C23.9982 13.4833 23.9994 13.6597 23.9998 13.8385L24 14C24 15.506 23.9508 16.8317 23.8324 17.997C23.76 17.995 23.6754 17.9922 23.5804 17.989C22.9972 17.9695 22.0226 17.937 21.0786 18.0069C20.4396 18.0542 19.7512 18.1498 19.11 18.3409C18.4765 18.5297 17.8181 18.8325 17.311 19.3412C16.3496 20.3055 16.0794 21.7414 15.9944 22.9079C15.9339 23.7379 15.9624 24.6352 15.9838 25.3099C15.99 25.505 15.9956 25.6815 15.9983 25.8323C14.8327 25.9508 13.5066 26 12 26ZM5 16C5 15.4478 5.44769 15 6 15H9C9.55231 15 10 15.4478 10 16C10 16.5522 9.55231 17 9 17H6C5.44769 17 5 16.5522 5 16ZM6 19C5.44769 19 5 19.4478 5 20C5 20.5522 5.44769 21 6 21H9C9.55231 21 10 20.5522 10 20C10 19.4478 9.55231 19 9 19H6Z" fill="#212135"/>
<path d="M17.9929 25.5259C21.2215 24.8217 22.8229 23.2195 23.5266 19.9899C23.4785 19.9884 23.4291 19.9867 23.3784 19.985C22.7958 19.9655 22.0485 19.9405 21.2263 20.0014C20.6676 20.0428 20.1347 20.1224 19.6812 20.2576C19.2202 20.395 18.9107 20.5694 18.7273 20.7533C18.3077 21.1742 18.0684 21.9647 17.9891 23.0533C17.9361 23.7796 17.9586 24.4595 17.9795 25.0905C17.9844 25.2383 17.9892 25.3835 17.9929 25.5259Z" fill="#212135"/>
<path d="M7 1C7 0.447754 7.44769 0 8 0C8.55231 0 9 0.447754 9 1V5C9 5.55225 8.55231 6 8 6C7.44769 6 7 5.55225 7 5V1Z" fill="#212135"/>
</svg>
