<svg width="24" height="24" viewBox="0 0 24 24" fill="none" xmlns="http://www.w3.org/2000/svg">
<path fill-rule="evenodd" clip-rule="evenodd" d="M12 24C2.118 24 0 21.882 0 12C0 2.118 2.118 0 12 0C21.882 0 24 2.118 24 12C24 21.882 21.882 24 12 24ZM10.8092 18.2302C10.2671 18.1248 9.91302 17.5999 10.0184 17.0577L12.0105 6.80925C12.1159 6.26711 12.6408 5.91305 13.1829 6.01843C13.7251 6.12381 14.0791 6.64873 13.9738 7.19087L11.9817 17.4394C11.8763 17.9815 11.3514 18.3356 10.8092 18.2302ZM8.70714 10.7071C9.09766 10.3166 9.09766 9.68343 8.70714 9.29291C8.31661 8.90238 7.68345 8.90238 7.29292 9.29291L5.29292 11.2929C4.9024 11.6834 4.9024 12.3166 5.29292 12.7071L7.29292 14.7071C7.68345 15.0976 8.31661 15.0976 8.70714 14.7071C9.09766 14.3166 9.09766 13.6834 8.70714 13.2929L7.41424 12L8.70714 10.7071ZM15.2929 10.7071C14.9024 10.3166 14.9024 9.68343 15.2929 9.29291C15.6834 8.90238 16.3166 8.90238 16.7071 9.29291L18.7071 11.2929C19.0977 11.6834 19.0977 12.3166 18.7071 12.7071L16.7071 14.7071C16.3166 15.0976 15.6834 15.0976 15.2929 14.7071C14.9024 14.3166 14.9024 13.6834 15.2929 13.2929L16.5858 12L15.2929 10.7071Z" fill="#212135"/>
</svg>
