<svg width="24" height="24" viewBox="0 0 24 24" fill="none" xmlns="http://www.w3.org/2000/svg">
<path d="M20.0836 17.9142C20.1776 17.2432 20.2385 16.5026 20.2727 15.6857C20.5052 15.5585 20.6812 15.4223 20.821 15.2825C21.1482 14.9554 21.4557 14.43 21.6743 13.4461C21.898 12.4394 22 11.0855 22 9.23077C22 5.52417 21.4883 4.00897 20.7397 3.26037C19.9911 2.51177 18.4759 2 14.7693 2C12.9145 2 11.5606 2.10199 10.554 2.32571C9.57003 2.54438 9.04467 2.85186 8.71752 3.17902C8.57772 3.31882 8.44151 3.49481 8.31429 3.72731C8.88899 3.70322 9.50142 3.69231 10.1538 3.69231C18.5155 3.69231 20.3077 5.48446 20.3077 13.8462C20.3077 22.2078 18.5155 24 10.1538 24C1.79215 24 0 22.2078 0 13.8462C0 7.06421 1.17895 4.60397 6.08586 3.91643C7.03718 0.803799 9.42997 0 14.7693 0C22.1539 0 24 1.84615 24 9.23077C24 14.5701 23.1962 16.9629 20.0836 17.9142Z" fill="#212135"/>
</svg>
