<svg width="24" height="24" viewBox="0 0 24 24" fill="none" xmlns="http://www.w3.org/2000/svg">
<path d="M10.824 11.6185C11.2797 11.4345 11.684 11.1413 12 10.7655C12.316 11.1413 12.7203 11.4345 13.176 11.6185C12.9157 12.0347 12.7612 12.5092 12.7268 12.9987C12.2499 12.8802 11.7501 12.8802 11.2732 12.9987C11.2388 12.5092 11.0843 12.0347 10.824 11.6185Z" fill="#212135"/>
<path fill-rule="evenodd" clip-rule="evenodd" d="M1.57886 10.7727C1.78654 10.8171 2.03007 10.8171 2.51714 10.8171C3.17338 10.8171 3.70537 11.4689 3.70537 12.2729C3.70537 13.0769 3.17338 13.7287 2.51714 13.7287C2.03987 13.7287 1.80123 13.7287 1.59458 13.7727C0.811143 13.9396 0.167089 14.613 0.0362485 15.4021C0.00173491 15.6102 0.0117306 15.8264 0.0317221 16.2588C0.0952123 17.6321 0.236889 18.6136 0.553036 19.4616C1.1863 21.1602 2.10003 22.2241 3.48642 23C4.7406 23.7019 6.55061 24 9.77466 24H14.2253C17.4494 24 19.2594 23.7019 20.5136 23C21.9 22.2241 22.8137 21.1602 23.447 19.4616C23.7631 18.6136 23.9048 17.6321 23.9683 16.2588C23.9883 15.8264 23.9983 15.6102 23.9638 15.4021C23.8329 14.613 23.1889 13.9396 22.4054 13.7728C22.1988 13.7287 21.9601 13.7287 21.4829 13.7287C20.8266 13.7287 20.2946 13.0769 20.2946 12.2729C20.2946 11.4689 20.8266 10.8171 21.4829 10.8171C21.9699 10.8171 22.2135 10.8171 22.4211 10.7727C23.1988 10.6061 23.8286 9.95778 23.9716 9.17669C24.0098 8.96808 24.0028 8.74023 23.9889 8.28452C23.938 6.61962 23.8033 5.49417 23.447 4.53836C22.8137 2.83978 21.9 1.77586 20.5136 1C19.2594 0.298132 17.4494 0 14.2253 0H9.77466C6.55061 0 4.7406 0.298132 3.48642 1C2.10003 1.77586 1.1863 2.83978 0.553036 4.53836C0.196692 5.49417 0.0620053 6.61962 0.0110984 8.28454C-0.00283493 8.74023 -0.0098016 8.96807 0.0283821 9.17668C0.171356 9.95778 0.801241 10.6062 1.57886 10.7727ZM11.0474 7.92705C11.3473 7.00574 12.6527 7.00574 12.9526 7.92705L13.3492 9.1459C13.4833 9.55792 13.8679 9.83688 14.3018 9.83688H15.5854C16.5557 9.83688 16.9591 11.0765 16.1742 11.6459L15.1357 12.3992C14.7846 12.6538 14.6377 13.1052 14.7718 13.5172L15.1685 14.7361C15.4683 15.6574 14.4122 16.4235 13.6272 15.8541L12.5887 15.1008C12.2377 14.8462 11.7623 14.8462 11.4113 15.1008L10.3728 15.8541C9.58784 16.4235 8.53168 15.6574 8.83151 14.7361L9.22817 13.5172C9.36225 13.1052 9.21536 12.6538 8.86432 12.3992L7.82584 11.6459C7.04088 11.0765 7.4443 9.83688 8.41457 9.83688H9.69819C10.1321 9.83688 10.5167 9.55792 10.6508 9.1459L11.0474 7.92705Z" fill="#212135"/>
</svg>
