<svg width="24" height="24" viewBox="0 0 24 24" fill="none" xmlns="http://www.w3.org/2000/svg">
<path d="M8 12C8 14 8 15 8.5 15.5C9 16 10 16 12 16C14 16 15 16 15.5 15.5C16 15 16 14 16 12C16 10 16 9 15.5 8.5C15 8 14 8 12 8C10 8 9 8 8.5 8.5C8 9 8 10 8 12Z" fill="#212135"/>
<path fill-rule="evenodd" clip-rule="evenodd" d="M21 19V11.9269C21 10.1034 21 8.63363 20.8446 7.47766C20.6833 6.27752 20.3381 5.26702 19.5355 4.46447C18.733 3.66191 17.7225 3.31672 16.5223 3.15536C15.3664 2.99995 13.8966 2.99997 12.0732 3L5 3V1C5 0.447716 4.55228 0 4 0C3.44772 0 3 0.447716 3 1V3H1C0.447715 3 0 3.44772 0 4C0 4.55228 0.447715 5 1 5H3V12.0731C2.99997 13.8966 2.99995 15.3664 3.15536 16.5223C3.31672 17.7225 3.66191 18.733 4.46447 19.5355C5.26702 20.3381 6.27752 20.6833 7.47766 20.8446C8.63362 21 10.1034 21 11.9268 21H19V23C19 23.5523 19.4477 24 20 24C20.5523 24 21 23.5523 21 23V21H23C23.5523 21 24 20.5523 24 20C24 19.4477 23.5523 19 23 19H21ZM12 19C10.0861 19 8.75129 18.9979 7.74416 18.8625C6.76579 18.7309 6.2477 18.4903 5.87868 18.1213C5.50966 17.7523 5.26907 17.2342 5.13753 16.2558C5.00212 15.2487 5 13.9139 5 12V5H12C13.9139 5 15.2487 5.00212 16.2558 5.13753C17.2342 5.26907 17.7523 5.50966 18.1213 5.87868C18.4903 6.2477 18.7309 6.76579 18.8625 7.74416C18.9979 8.7513 19 10.0861 19 12V19H12Z" fill="#212135"/>
</svg>
