<svg width="24" height="24" viewBox="0 0 24 24" fill="none" xmlns="http://www.w3.org/2000/svg">
<path fill-rule="evenodd" clip-rule="evenodd" d="M12 24C2.118 24 0 21.882 0 12C0 2.118 2.118 0 12 0C21.882 0 24 2.118 24 12C24 21.882 21.882 24 12 24ZM14 6C13.4477 6 13 6.44772 13 7C13 7.55228 13.4477 8 14 8H17C17.5523 8 18 7.55228 18 7C18 6.44772 17.5523 6 17 6H14ZM6 12C6 11.4477 6.44772 11 7 11H17C17.5523 11 18 11.4477 18 12C18 12.5523 17.5523 13 17 13H7C6.44771 13 6 12.5523 6 12ZM7 16C6.44772 16 6 16.4477 6 17C6 17.5523 6.44772 18 7 18H10C10.5523 18 11 17.5523 11 17C11 16.4477 10.5523 16 10 16H7Z" fill="#212135"/>
</svg>
