<svg width="24" height="24" viewBox="0 0 24 24" fill="none" xmlns="http://www.w3.org/2000/svg">
<path fill-rule="evenodd" clip-rule="evenodd" d="M16.1019 1.50259C17.086 2.37736 17.7651 3.60723 17.9496 5.14137C17.9659 5.27685 18.0696 5.38815 18.2037 5.41318C22.8353 6.2773 24 8.69869 24 14.5C24 22.3232 21.882 24 12 24C2.118 24 0 22.3232 0 14.5C0 8.69869 1.16467 6.2773 5.79629 5.41318C5.93042 5.38815 6.03412 5.27685 6.05041 5.14137C6.23485 3.60723 6.91402 2.37736 7.89814 1.50259C9.04117 0.486564 10.5369 0 12 0C13.4631 0 14.9588 0.486564 16.1019 1.50259ZM12 5C10.6873 5 9.51152 5.02959 8.45956 5.09925C8.26386 5.11221 8.10622 4.93832 8.15768 4.74907C8.36215 3.99708 8.74973 3.42152 9.22686 2.99741C9.95883 2.34677 10.9631 2 12 2C13.0369 2 14.0412 2.34677 14.7731 2.99741C15.2503 3.42152 15.6379 3.99708 15.8423 4.74907C15.8938 4.93832 15.7361 5.11221 15.5404 5.09925C14.4885 5.02959 13.3127 5 12 5ZM12 11C12.5523 11 13 11.4477 13 12V13.7C13 13.8657 13.1343 14 13.3 14H15C15.5523 14 16 14.4477 16 15C16 15.5523 15.5523 16 15 16H13.3C13.1343 16 13 16.1343 13 16.3V18C13 18.5523 12.5523 19 12 19C11.4477 19 11 18.5523 11 18V16.3C11 16.1343 10.8657 16 10.7 16H9C8.44771 16 8 15.5523 8 15C8 14.4477 8.44771 14 9 14H10.7C10.8657 14 11 13.8657 11 13.7V12C11 11.4477 11.4477 11 12 11Z" fill="#212135"/>
</svg>
