<svg width="24" height="24" viewBox="0 0 24 24" fill="none" xmlns="http://www.w3.org/2000/svg">
<path d="M23.5895 9.78185C23.7006 9.95866 23.9869 9.87879 23.9805 9.67006C23.8719 6.10941 23.4586 2.80033 22.4668 1.76219C20.2197 -0.589846 10.9906 -0.18383 8.74349 0.671455C8.12804 0.905708 7.69722 1.21781 7.39607 1.56952C7.29299 1.6899 7.38686 1.86328 7.54534 1.86453C8.48129 1.87189 9.43612 1.941 10.3903 2.07176C14.4237 2.62445 18.6512 4.30431 21.6588 7.35229C22.3833 8.08648 23.0328 8.89608 23.5895 9.78185Z" fill="#212135"/>
<path fill-rule="evenodd" clip-rule="evenodd" d="M23.7206 18.5524C23.6512 19.2835 23.5765 19.8554 23.505 20.2048C23.5022 20.2185 23.4833 20.2164 23.4833 20.2024C23.4833 20.1885 23.4625 20.1874 23.4591 20.2009C22.6261 23.481 19.8996 24 13.2869 24C3.68209 24 1.38725 22.2076 0.284952 13.845C-0.605606 7.08882 0.412792 4.62112 5.90187 3.92237C7.21973 3.81498 8.64917 3.85185 10.1188 4.05324C13.839 4.56303 17.6152 6.10191 20.2352 8.75705C22.5123 11.0647 23.9722 14.2682 23.7206 18.5524ZM15 18C15 17.4477 14.5523 17 14 17H6.00001C5.44772 17 5.00001 17.4477 5.00001 18C5.00001 18.5523 5.44772 19 6.00001 19H14C14.5523 19 15 18.5523 15 18ZM6.00001 13C5.44772 13 5.00001 13.4477 5.00001 14C5.00001 14.5523 5.44772 15 6.00001 15H10C10.5523 15 11 14.5523 11 14C11 13.4477 10.5523 13 10 13H6.00001Z" fill="#212135"/>
</svg>
