<svg width="24" height="24" viewBox="0 0 24 24" fill="none" xmlns="http://www.w3.org/2000/svg">
<path fill-rule="evenodd" clip-rule="evenodd" d="M12 24C2.118 24 0 21.882 0 12C0 2.118 2.118 0 12 0C21.882 0 24 2.118 24 12C24 21.882 21.882 24 12 24ZM9 6C8.44771 6 8 6.44772 8 7C8 7.55228 8.44771 8 9 8H11.395L10.595 16H9C8.44771 16 8 16.4477 8 17C8 17.5523 8.44771 18 9 18H15C15.5523 18 16 17.5523 16 17C16 16.4477 15.5523 16 15 16H12.605L13.405 8H15C15.5523 8 16 7.55228 16 7C16 6.44772 15.5523 6 15 6H9Z" fill="#212135"/>
</svg>
