<svg width="24" height="27" viewBox="0 0 24 27" fill="none" xmlns="http://www.w3.org/2000/svg">
<path fill-rule="evenodd" clip-rule="evenodd" d="M9 1C9 0.447693 9.44769 0 10 0C10.5523 0 11 0.447693 11 1V2H13V1C13 0.447693 13.4477 0 14 0C14.5523 0 15 0.447693 15 1V2H16C16.9174 2 17.6904 2.61761 17.9261 3.45972C22.789 4.49469 24 7.52777 24 15C24 24.882 21.882 27 12 27C2.11798 27 0 24.882 0 15C0 7.52777 1.211 4.49469 6.07385 3.45972C6.30957 2.61761 7.08264 2 8 2H9V1ZM7 20C6.44769 20 6 20.4477 6 21C6 21.5523 6.44769 22 7 22H17C17.5523 22 18 21.5523 18 21C18 20.4477 17.5523 20 17 20H7Z" fill="#212135"/>
</svg>
