<svg width="24" height="24" viewBox="0 0 24 24" fill="none" xmlns="http://www.w3.org/2000/svg">
<path d="M0 5.5C0 10.0293 0.97075 11 5.5 11C10.0293 11 11 10.0293 11 5.5C11 0.97075 10.0293 0 5.5 0C0.97075 0 0 0.97075 0 5.5Z" fill="#212135"/>
<path d="M0 18.5C0 23.0293 0.97075 24 5.5 24C10.0293 24 11 23.0293 11 18.5C11 13.9707 10.0293 13 5.5 13C0.97075 13 0 13.9707 0 18.5Z" fill="#212135"/>
<path d="M13 5.5C13 10.0293 13.9707 11 18.5 11C23.0293 11 24 10.0293 24 5.5C24 0.97075 23.0293 0 18.5 0C13.9707 0 13 0.97075 13 5.5Z" fill="#212135"/>
<path d="M13 18.5C13 23.0293 13.9707 24 18.5 24C23.0293 24 24 23.0293 24 18.5C24 13.9707 23.0293 13 18.5 13C13.9707 13 13 13.9707 13 18.5Z" fill="#212135"/>
</svg>
