<svg width="20" height="24" viewBox="0 0 20 24" fill="none" xmlns="http://www.w3.org/2000/svg">
<path d="M5.4575 8.72728C5.4575 4.98702 6.01715 0 11.054 0C13.3811 0 14.7525 1.06451 15.5546 2.57875L17.8677 0.324347C18.3048 -0.10168 19.0135 -0.101679 19.4506 0.324347C19.8877 0.750374 19.8877 1.4411 19.4506 1.86713L1.91077 18.962C1.47366 19.3881 0.764952 19.3881 0.327837 18.962C-0.109279 18.536 -0.109279 17.8453 0.327836 17.4193L2.70677 15.1007C2.30404 14.052 2.10805 12.9789 2.10805 12C2.10805 11.3975 2.6054 10.9091 3.2189 10.9091C3.8324 10.9091 4.32974 11.3975 4.32974 12C4.32974 12.4415 4.3809 12.9032 4.4844 13.3681L5.70075 12.1826C5.50564 11.0285 5.4575 9.82424 5.4575 8.72728Z" fill="#212135"/>
<path d="M5.49756 18.9238C5.02169 18.5524 5.03603 17.8598 5.46749 17.4392C5.90581 17.0121 6.61277 17.0251 7.11569 17.377C8.13552 18.0907 9.44372 18.5455 11.054 18.5455C15.6426 18.5455 17.7783 14.8526 17.7783 12C17.7783 11.3975 18.2757 10.9091 18.8892 10.9091C19.5027 10.9091 20 11.3975 20 12C20 15.4616 17.5492 20.1019 12.1714 20.6696C12.1727 20.6914 12.1733 20.7134 12.1733 20.7356V21.8099L12.1733 21.8182H14.4204C15.0339 21.8182 15.5313 22.3066 15.5313 22.9091C15.5313 23.5116 15.0339 24 14.4204 24H7.68767C7.07416 24 6.57682 23.5116 6.57682 22.9091C6.57682 22.3066 7.07416 21.8182 7.68767 21.8182H9.93477L9.93474 21.8099V20.7356C9.93474 20.7134 9.93541 20.6914 9.93672 20.6696C8.13412 20.4793 6.66038 19.8315 5.49756 18.9238Z" fill="#212135"/>
<path d="M7.87228 16.4836C7.42371 16.137 7.46753 15.49 7.87262 15.0951L15.0452 8.10453C15.6491 7.5159 16.6505 7.89165 16.6505 8.72728C16.6505 12.4675 16.0909 17.4546 11.054 17.4546C9.69179 17.4546 8.65705 17.0898 7.87228 16.4836Z" fill="#212135"/>
</svg>
