<svg width="24" height="24" viewBox="0 0 24 24" fill="none" xmlns="http://www.w3.org/2000/svg">
<path d="M0.00602206 2.79344C-0.0652864 2.29968 0.513229 2.13159 0.865991 2.48435L5.72999 7.34837C5.92481 7.54318 6.02221 7.64059 6.09834 7.76765C6.17446 7.89472 6.36536 8.52503 6.74718 9.78565C6.85956 10.1567 7.0624 10.5062 7.35571 10.7995C8.30671 11.7505 9.84858 11.7505 10.7996 10.7995C11.7506 9.84853 11.7506 8.30665 10.7996 7.35566C10.5063 7.06238 10.1568 6.85955 9.78583 6.74716C8.52549 6.36535 7.89531 6.17445 7.76826 6.09833C7.64121 6.02221 7.54381 5.92481 7.34901 5.73001L2.48447 0.86545C2.13193 0.512903 2.29997 -0.0652465 2.79343 0.00601854L12.7577 1.44506C15.2812 1.8095 17.4439 3.44569 18.4826 5.77619L20.4011 10.3225C20.7053 11.0434 20.8574 11.4039 20.7871 11.7632C20.7169 12.1226 20.4403 12.3992 19.887 12.9525L12.9524 19.8871C12.3992 20.4403 12.1225 20.717 11.7632 20.7872C11.4038 20.8575 11.0434 20.7054 10.3225 20.4012L5.77617 18.4827C3.44568 17.4439 1.8095 15.2812 1.44506 12.7578L0.00602206 2.79344Z" fill="#212135"/>
<path d="M15.5652 20.5212C14.6584 21.4281 14.2049 21.8815 14.299 22.4839C14.393 23.0863 14.8327 23.3129 15.7123 23.766C16.0151 23.922 16.3066 24 16.617 24C17.611 24 18.4109 23.2001 20.0108 21.6002L21.6002 20.0108C23.2001 18.4109 24 17.611 24 16.6169C24 16.3065 23.922 16.0151 23.766 15.7122C23.3129 14.8327 23.0863 14.3929 22.4839 14.2989C21.8815 14.2049 21.4281 14.6583 20.5212 15.5652L15.5652 20.5212Z" fill="#212135"/>
</svg>
