<svg width="22" height="22" viewBox="0 0 22 22" fill="none" xmlns="http://www.w3.org/2000/svg">
<path d="M4.87439 18.1471C5.48844 17.7911 6.21995 17.3462 6.83814 16.9131C8.92094 15.4541 10.3279 14.3867 12.476 12.2385C14.6242 10.0904 15.6916 8.68344 17.1506 6.60064C17.5232 6.0687 17.9046 5.45285 18.2307 4.90014L16.2723 4.29668C15.9896 5.10918 15.4236 5.7966 14.6736 6.22964C13.8473 6.70666 12.8655 6.83593 11.9439 6.589C11.0224 6.34208 10.2367 5.73919 9.75966 4.91297C9.28264 4.08674 9.15338 3.10486 9.4003 2.18333L9.50591 2.21163L2.66812 0.104576C1.01903 -0.403588 -0.403588 1.01903 0.104576 2.66812L1.1838 6.17041C2.46484 5.79856 3.84161 5.93784 5.02353 6.56127C6.2321 7.19875 7.13793 8.29022 7.54176 9.59557C7.94558 10.9009 7.81431 12.3132 7.17683 13.5218C6.55163 14.7071 5.48977 15.6012 4.21774 16.0161L4.87439 18.1471Z" fill="#212135"/>
<path d="M3.35736 13.224C3.88807 13.0382 4.33016 12.6583 4.59345 12.1592C4.86953 11.6357 4.92638 11.0241 4.75149 10.4588C4.5766 9.89344 4.1843 9.42074 3.66089 9.14465C3.1632 8.88214 2.58574 8.81784 2.04417 8.9625L3.35736 13.224Z" fill="#212135"/>
<path d="M11.3532 2.78085L14.3205 3.69524C14.1912 4.01704 13.9573 4.28835 13.6539 4.46354C13.2961 4.67013 12.8708 4.72611 12.4717 4.61917C12.0726 4.51223 11.7324 4.25113 11.5258 3.89331C11.3312 3.55624 11.2702 3.15936 11.3532 2.78085Z" fill="#212135"/>
<path d="M20.1364 5.60285C19.7643 6.24609 19.2775 7.05029 18.7887 7.74814C17.2868 9.89206 16.1456 11.3974 13.8903 13.6528C11.6349 15.9081 10.1296 17.0493 7.98564 18.5512C7.25013 19.0664 6.39648 19.5793 5.73766 19.9581C5.67684 19.9931 5.61752 20.027 5.55993 20.0597C6.35979 21.5213 7.90104 22.3943 9.42873 21.8235C11.3211 21.1164 13.4794 20.1148 16.7971 16.7971C20.1148 13.4794 21.1164 11.3211 21.8235 9.42873C22.3843 7.92792 21.5516 6.41404 20.1364 5.60285Z" fill="#212135"/>
</svg>
