<svg width="24" height="24" viewBox="0 0 24 24" fill="none" xmlns="http://www.w3.org/2000/svg">
<path d="M14 11C14 12.1046 13.1046 13 12 13C10.8954 13 10 12.1046 10 11C10 9.89543 10.8954 9 12 9C13.1046 9 14 9.89543 14 11Z" fill="#212135"/>
<path fill-rule="evenodd" clip-rule="evenodd" d="M6 21.564C1.1987 20.6015 0 17.8147 0 11C0 1.9415 2.118 0 12 0C21.882 0 24 1.9415 24 11C24 17.8147 22.8013 20.6015 18 21.564V23C18 23.5523 17.5523 24 17 24C16.4477 24 16 23.5523 16 23V21.8461C14.8339 21.9548 13.5073 22 12 22C10.4927 22 9.16606 21.9548 8 21.8461V23C8 23.5523 7.55228 24 7 24C6.44772 24 6 23.5523 6 23V21.564ZM12.9924 7.12407C12.9974 7.08342 13 7.04201 13 7V6C13 5.44772 12.5523 5 12 5C11.4477 5 11 5.44772 11 6V7C11 7.04201 11.0026 7.08342 11.0076 7.12407C9.59585 7.48445 8.48445 8.59585 8.12407 10.0076C8.08342 10.0026 8.04201 10 8 10H7C6.44772 10 6 10.4477 6 11C6 11.5523 6.44772 12 7 12H8C8.04201 12 8.08342 11.9974 8.12407 11.9924C8.48445 13.4042 9.59585 14.5155 11.0076 14.8759C11.0026 14.9166 11 14.958 11 15V16C11 16.5523 11.4477 17 12 17C12.5523 17 13 16.5523 13 16V15C13 14.958 12.9974 14.9166 12.9924 14.8759C14.4042 14.5155 15.5155 13.4042 15.8759 11.9924C15.9166 11.9974 15.958 12 16 12H17C17.5523 12 18 11.5523 18 11C18 10.4477 17.5523 10 17 10H16C15.958 10 15.9166 10.0026 15.8759 10.0076C15.5155 8.59585 14.4042 7.48445 12.9924 7.12407Z" fill="#212135"/>
</svg>
