<svg width="24" height="24" viewBox="0 0 24 24" fill="none" xmlns="http://www.w3.org/2000/svg">
<path d="M14 12C14 13.1046 13.1046 14 12 14C10.8954 14 10 13.1046 10 12C10 10.8954 10.8954 10 12 10C13.1046 10 14 10.8954 14 12Z" fill="#212135"/>
<path fill-rule="evenodd" clip-rule="evenodd" d="M12 0C12.5523 0 13 0.447715 13 1V5.01438C17.5927 5.15677 18.8432 6.40727 18.9856 11H23C23.5523 11 24 11.4477 24 12C24 12.5523 23.5523 13 23 13H18.9856C18.8432 17.5927 17.5927 18.8432 13 18.9856V23C13 23.5523 12.5523 24 12 24C11.4477 24 11 23.5523 11 23V18.9856C6.40727 18.8432 5.15677 17.5927 5.01438 13H1C0.447715 13 0 12.5523 0 12C0 11.4477 0.447715 11 1 11H5.01438C5.15677 6.40727 6.40727 5.15677 11 5.01438V1C11 0.447715 11.4477 0 12 0ZM16 12C16 14.2091 14.2091 16 12 16C9.79086 16 8 14.2091 8 12C8 9.79086 9.79086 8 12 8C14.2091 8 16 9.79086 16 12Z" fill="#212135"/>
</svg>
