<svg width="24" height="24" viewBox="0 0 24 24" fill="none" xmlns="http://www.w3.org/2000/svg">
<path fill-rule="evenodd" clip-rule="evenodd" d="M23.9821 12.0815C23.9616 12.2639 23.9321 12.3881 23.8731 12.6365C22.0931 20.1316 15.7732 22.9267 13.1521 23.7794C12.7 23.9265 12.4739 24 12 24C11.5261 24 11.3 23.9265 10.8479 23.7794C8.22677 22.9267 1.90689 20.1316 0.126874 12.6365C0.0678842 12.3881 0.0383895 12.2639 0.0178901 12.0815C-0.00260935 11.8991 -0.00120993 11.7488 0.00158892 11.4481C0.0891532 2.0403 2.32006 0 12 0C21.6799 0 23.9108 2.04031 23.9984 11.4481C24.0012 11.7488 24.0026 11.8991 23.9821 12.0815ZM12 6.02487C12.5524 6.02487 13.0001 6.47442 13.0001 7.02901V13.0539C13.0001 13.6085 12.5524 14.058 12 14.058C11.4476 14.058 10.9999 13.6085 10.9999 13.0539V7.02901C10.9999 6.47442 11.4476 6.02487 12 6.02487ZM10.9999 16.0663C10.9999 15.5117 11.4476 15.0622 12 15.0622C12.5524 15.0622 13.0001 15.5117 13.0001 16.0663C13.0001 16.6209 12.5524 17.0705 12 17.0705C11.4476 17.0705 10.9999 16.6209 10.9999 16.0663Z" fill="#212135"/>
</svg>
