<svg width="24" height="24" viewBox="0 0 24 24" fill="none" xmlns="http://www.w3.org/2000/svg">
<path fill-rule="evenodd" clip-rule="evenodd" d="M11.3559 22.7118C3.09706 22.7118 0 20.1309 0 11.3559C0 2.58089 3.09706 0 11.3559 0C19.6147 0 22.7118 2.58089 22.7118 11.3559C22.7118 15.0649 22.1585 17.6673 20.8959 19.436L23.6976 22.2377C24.1008 22.6408 24.1008 23.2945 23.6976 23.6976C23.2944 24.1008 22.6408 24.1008 22.2376 23.6976L19.441 20.901C17.6297 22.2111 14.9935 22.7118 11.3559 22.7118ZM7.22648 11.3559C7.22648 10.7857 7.68868 10.3235 8.25883 10.3235H10.3235V8.25883C10.3235 7.68868 10.7857 7.22648 11.3559 7.22648C11.926 7.22648 12.3883 7.68868 12.3883 8.25883V10.3235H14.453C15.0231 10.3235 15.4853 10.7857 15.4853 11.3559C15.4853 11.9261 15.0231 12.3883 14.453 12.3883H12.3883V14.453C12.3883 15.0231 11.926 15.4853 11.3559 15.4853C10.7857 15.4853 10.3235 15.0231 10.3235 14.453V12.3883H8.25883C7.68868 12.3883 7.22648 11.9261 7.22648 11.3559Z" fill="#212135"/>
</svg>
