<svg width="24" height="24" viewBox="0 0 24 24" fill="none" xmlns="http://www.w3.org/2000/svg">
<path fill-rule="evenodd" clip-rule="evenodd" d="M2 8C2 5.79086 3.79086 4 6 4H18C20.2091 4 22 5.79086 22 8V10C22 10.5523 21.5523 11 21 11C20.4477 11 20 10.5523 20 10V8C20 6.89543 19.1046 6 18 6H6C4.89543 6 4 6.89543 4 8V16C4 17.1046 4.89543 18 6 18H12C12.5523 18 13 18.4477 13 19C13 19.5523 12.5523 20 12 20H6C3.79086 20 2 18.2091 2 16V8Z" fill="black"/>
<path fill-rule="evenodd" clip-rule="evenodd" d="M6.21913 8.37528C6.56414 7.94402 7.19343 7.8741 7.62469 8.21911L12 11.7194L16.3753 8.21911C16.8066 7.8741 17.4359 7.94402 17.7809 8.37528C18.1259 8.80654 18.056 9.43584 17.6247 9.78084L12 14.2806L6.3753 9.78084C5.94404 9.43584 5.87412 8.80654 6.21913 8.37528Z" fill="black"/>
<path fill-rule="evenodd" clip-rule="evenodd" d="M22.6839 14.2705C23.0869 14.6482 23.1073 15.281 22.7295 15.6839L18.9795 19.6839C18.6213 20.0661 18.0289 20.107 17.6215 19.7778L15.3715 17.9596C14.9419 17.6125 14.8751 16.9829 15.2222 16.5533C15.5693 16.1237 16.199 16.0569 16.6285 16.404L18.1559 17.6383L21.2705 14.3161C21.6482 13.9131 22.281 13.8927 22.6839 14.2705Z" fill="black"/>
</svg>
