<svg width="24" height="24" viewBox="0 0 24 24" fill="none" xmlns="http://www.w3.org/2000/svg">
<path fill-rule="evenodd" clip-rule="evenodd" d="M18.462 2.92548C20.2228 2.13616 22.0266 3.93998 21.2373 5.70077L14.7427 20.1887C13.7865 22.3218 10.792 22.4133 9.70737 20.3426L8.11866 17.3096C7.83541 16.7689 7.39394 16.3274 6.85319 16.0441L3.82021 14.4554C1.74952 13.3708 1.84102 10.3763 3.97408 9.42009L18.462 2.92548ZM19.3383 4.73932C19.3317 4.73791 19.3156 4.7346 19.2801 4.7505L4.79219 11.2451C4.18274 11.5183 4.1566 12.3739 4.74823 12.6838L7.7812 14.2725C8.68246 14.7446 9.41824 15.4804 9.89033 16.3816L11.479 19.4146C11.7889 20.0062 12.6445 19.9801 12.9177 19.3706L19.4123 4.88266C19.4282 4.84719 19.4249 4.8311 19.4235 4.82446C19.4208 4.81169 19.4119 4.79121 19.3918 4.77104C19.3716 4.75087 19.3511 4.74203 19.3383 4.73932Z" fill="black"/>
</svg>
