<svg width="17" height="24" viewBox="0 0 17 24" fill="none" xmlns="http://www.w3.org/2000/svg">
<path fill-rule="evenodd" clip-rule="evenodd" d="M14.7957 0.978336C15.3281 0.831804 15.8786 1.14468 16.0251 1.67718L15.061 1.9425C16.0251 1.67718 16.0253 1.67776 16.0255 1.67836L16.0258 1.67961L16.0265 1.6823L16.0282 1.68848L16.0322 1.70402C16.0352 1.71578 16.0388 1.73039 16.0429 1.74786C16.0511 1.7828 16.0613 1.8292 16.0726 1.88734C16.0953 2.00364 16.1226 2.1668 16.1479 2.3791C16.1985 2.80378 16.2409 3.42437 16.2224 4.25911C16.1854 5.92849 15.9048 8.4527 14.9598 11.9792C13.6981 16.6882 12.3709 19.7411 10.7399 21.4699C9.89921 22.361 8.96309 22.9172 7.91638 23.1508C6.88386 23.3811 5.82561 23.2792 4.76149 22.9941C3.69737 22.709 2.72994 22.2681 1.95094 21.5523C1.16123 20.8267 0.628655 19.877 0.346143 18.6849C-0.201976 16.3721 0.175115 13.0647 1.43688 8.35578C2.72788 3.53771 4.77507 1.06723 6.98504 0.277323C9.20715 -0.516929 11.3027 0.513549 12.1547 2.0292C12.5601 2.75049 12.8272 3.92307 12.7564 5.57848C12.685 7.25162 12.2665 9.48391 11.2243 12.3852C10.8432 13.4671 10.3114 14.831 9.60376 15.8733C8.93651 16.8562 7.80058 17.982 6.2181 17.558C4.8156 17.1822 4.27057 15.991 4.12903 14.8637C3.99014 13.7574 4.18633 12.468 4.46238 11.3133C4.74351 10.1373 5.13236 9.00262 5.44706 8.1691C5.60514 7.75042 5.74616 7.40339 5.84819 7.15983C5.89924 7.03797 5.94062 6.94178 5.96962 6.87523C5.98412 6.84195 5.99553 6.81606 6.00351 6.79805L6.01287 6.77701L6.01555 6.77104L6.01637 6.76921C6.01647 6.76898 6.01684 6.76816 6.9286 7.1789L6.01684 6.76816C6.24369 6.26462 6.83578 6.0403 7.33933 6.26714C7.8428 6.49395 8.06712 7.08589 7.84047 7.58938L7.83879 7.59312L7.8319 7.60861L7.80315 7.67409C7.77765 7.7326 7.74 7.82007 7.69286 7.9326C7.59852 8.15782 7.46654 8.4825 7.31815 8.87553C7.01992 9.66543 6.66196 10.7142 6.40757 11.7783C6.14811 12.8636 6.02008 13.8709 6.11345 14.6145C6.20416 15.337 6.44786 15.549 6.73574 15.6261C6.9703 15.689 7.35762 15.6211 7.94904 14.7499C8.49943 13.9392 8.96132 12.7902 9.33889 11.7179L9.34101 11.7119C10.3339 8.94852 10.6974 6.91765 10.7583 5.49312C10.8199 4.0503 10.5694 3.29054 10.4113 3.00923C10.0239 2.32011 8.93734 1.70343 7.6582 2.16063C6.36691 2.62218 4.59369 4.30179 3.36873 8.87342C2.11453 13.5541 1.86853 16.4359 2.29224 18.2237C2.49564 19.0819 2.8477 19.6603 3.30411 20.0796C3.77123 20.5088 4.41141 20.8298 5.27913 21.0623C6.14685 21.2948 6.86172 21.3369 7.48086 21.1988C8.0858 21.0638 8.67986 20.739 9.28513 20.0974C10.546 18.761 11.7738 16.1423 13.028 11.4616C13.9369 8.06943 14.1898 5.70467 14.2229 4.21477C14.2394 3.46987 14.201 2.94323 14.162 2.61561C14.1424 2.45175 14.1228 2.33749 14.1097 2.27039C14.1031 2.23684 14.0982 2.21506 14.0958 2.20474C14.0952 2.20197 14.0947 2.20003 14.0944 2.19891C13.9538 1.6692 14.2661 1.12405 14.7957 0.978336Z" fill="#ABAFD1"/>
</svg>
