<svg width="24" height="24" viewBox="0 0 24 24" fill="none" xmlns="http://www.w3.org/2000/svg">
<path fill-rule="evenodd" clip-rule="evenodd" d="M8.72728 12C8.72728 14.6951 9.30492 15.2727 12 15.2727C14.6951 15.2727 15.2727 14.6951 15.2727 12C15.2727 9.30493 14.6951 8.72729 12 8.72729C9.30492 8.72729 8.72728 9.30493 8.72728 12ZM10.9091 12C10.9091 12.4987 10.9323 12.8241 10.9641 13.0359C11.176 13.0678 11.5013 13.0909 12 13.0909C12.4987 13.0909 12.824 13.0678 13.0359 13.0359C13.0677 12.8241 13.0909 12.4987 13.0909 12C13.0909 11.5013 13.0677 11.176 13.0359 10.9641C12.824 10.9323 12.4987 10.9091 12 10.9091C11.5013 10.9091 11.176 10.9323 10.9641 10.9641C10.9323 11.176 10.9091 11.5013 10.9091 12Z" fill="#767BFA"/>
<path d="M9.81818 5.45455C10.4207 5.45455 10.9091 4.96613 10.9091 4.36364V1.09091C10.9091 0.488417 10.4207 0 9.81818 0C9.21569 0 8.72727 0.488416 8.72727 1.09091L8.72727 4.36364C8.72727 4.96613 9.21569 5.45455 9.81818 5.45455Z" fill="#767BFA"/>
<path d="M9.81818 24C10.4207 24 10.9091 23.5116 10.9091 22.9091V19.6364C10.9091 19.0339 10.4207 18.5455 9.81818 18.5455C9.21569 18.5455 8.72727 19.0339 8.72727 19.6364V22.9091C8.72727 23.5116 9.21569 24 9.81818 24Z" fill="#767BFA"/>
<path d="M19.6364 10.9091C19.0339 10.9091 18.5455 10.4207 18.5455 9.81818C18.5455 9.21569 19.0339 8.72727 19.6364 8.72727L22.9091 8.72727C23.5116 8.72727 24 9.21569 24 9.81818C24 10.4207 23.5116 10.9091 22.9091 10.9091L19.6364 10.9091Z" fill="#767BFA"/>
<path d="M0 9.81818C0 10.4207 0.488417 10.9091 1.09091 10.9091H4.36364C4.96613 10.9091 5.45455 10.4207 5.45455 9.81818C5.45455 9.21569 4.96613 8.72727 4.36364 8.72727L1.09091 8.72727C0.488417 8.72727 0 9.21569 0 9.81818Z" fill="#767BFA"/>
<path d="M15.2727 4.36364C15.2727 4.96613 14.7843 5.45455 14.1818 5.45455C13.5793 5.45455 13.0909 4.96613 13.0909 4.36364V1.09091C13.0909 0.488416 13.5793 0 14.1818 0C14.7843 0 15.2727 0.488417 15.2727 1.09091V4.36364Z" fill="#767BFA"/>
<path d="M14.1818 24C14.7843 24 15.2727 23.5116 15.2727 22.9091V19.6364C15.2727 19.0339 14.7843 18.5455 14.1818 18.5455C13.5793 18.5455 13.0909 19.0339 13.0909 19.6364V22.9091C13.0909 23.5116 13.5793 24 14.1818 24Z" fill="#767BFA"/>
<path d="M19.6364 15.2727C19.0339 15.2727 18.5455 14.7843 18.5455 14.1818C18.5455 13.5793 19.0339 13.0909 19.6364 13.0909H22.9091C23.5116 13.0909 24 13.5793 24 14.1818C24 14.7843 23.5116 15.2727 22.9091 15.2727L19.6364 15.2727Z" fill="#767BFA"/>
<path d="M0 14.1818C0 14.7843 0.488417 15.2727 1.09091 15.2727H4.36364C4.96613 15.2727 5.45455 14.7843 5.45455 14.1818C5.45455 13.5793 4.96613 13.0909 4.36364 13.0909H1.09091C0.488417 13.0909 0 13.5793 0 14.1818Z" fill="#767BFA"/>
<path fill-rule="evenodd" clip-rule="evenodd" d="M3.27272 12C3.27272 19.1869 4.81308 20.7272 12 20.7272C19.1869 20.7272 20.7273 19.1869 20.7273 12C20.7273 4.81307 19.1869 3.27271 12 3.27271C4.81308 3.27271 3.27272 4.81307 3.27272 12ZM5.45454 12C5.45454 13.7469 5.55099 15.0018 5.75555 15.9222C5.95461 16.8179 6.22587 17.2578 6.48404 17.5159C6.74221 17.7741 7.18205 18.0454 8.07772 18.2444C8.99817 18.449 10.2531 18.5454 12 18.5454C13.7469 18.5454 15.0018 18.449 15.9223 18.2444C16.8179 18.0454 17.2578 17.7741 17.5159 17.5159C17.7741 17.2578 18.0454 16.8179 18.2444 15.9222C18.449 15.0018 18.5454 13.7469 18.5454 12C18.5454 10.253 18.449 8.99815 18.2444 8.07771C18.0454 7.18204 17.7741 6.7422 17.5159 6.48403C17.2578 6.22586 16.8179 5.95459 15.9223 5.75553C15.0018 5.55097 13.7469 5.45452 12 5.45452C10.2531 5.45452 8.99817 5.55097 8.07772 5.75553C7.18205 5.95459 6.74221 6.22586 6.48404 6.48403C6.22587 6.7422 5.95461 7.18204 5.75555 8.07771C5.55099 8.99815 5.45454 10.253 5.45454 12Z" fill="#ABAFD1"/>
</svg>
