<svg width="24" height="24" viewBox="0 0 24 24" fill="none" xmlns="http://www.w3.org/2000/svg">
<path fill-rule="evenodd" clip-rule="evenodd" d="M0 12C0 21.882 2.118 24 12 24C21.882 24 24 21.882 24 12C24 2.118 21.882 0 12 0C2.118 0 0 2.118 0 12ZM12 22C9.57515 22 7.76307 21.8675 6.38993 21.5623C5.03949 21.2622 4.23924 20.8223 3.70846 20.2915C3.17768 19.7608 2.73783 18.9605 2.43771 17.6101C2.13254 16.2369 2 14.4249 2 12C2 9.57515 2.13254 7.76307 2.43771 6.38993C2.73783 5.03949 3.17768 4.23924 3.70846 3.70846C4.23924 3.17768 5.03949 2.73783 6.38993 2.43771C7.76307 2.13254 9.57515 2 12 2C14.4249 2 16.2369 2.13254 17.6101 2.43771C18.9605 2.73783 19.7608 3.17768 20.2915 3.70846C20.8223 4.23924 21.2622 5.03949 21.5623 6.38993C21.8675 7.76307 22 9.57515 22 12C22 14.4249 21.8675 16.2369 21.5623 17.6101C21.2622 18.9605 20.8223 19.7608 20.2915 20.2915C19.7608 20.8223 18.9605 21.2622 17.6101 21.5623C16.2369 21.8675 14.4249 22 12 22Z" fill="#ABAFD1"/>
<path d="M13 8.07224C13 7.51605 13.4477 7.06519 14 7.06519H17C17.5523 7.06519 18 7.51605 18 8.07224C18 8.62843 17.5523 9.07929 17 9.07929H14C13.4477 9.07929 13 8.62843 13 8.07224Z" fill="#767BFA"/>
<path d="M6 13.1075C6 12.5513 6.44771 12.1005 7 12.1005H17C17.5523 12.1005 18 12.5513 18 13.1075C18 13.6637 17.5523 14.1146 17 14.1146H7C6.44771 14.1146 6 13.6637 6 13.1075Z" fill="#767BFA"/>
<path d="M7 17.1357C6.44771 17.1357 6 17.5866 6 18.1428C6 18.699 6.44771 19.1498 7 19.1498H10C10.5523 19.1498 11 18.699 11 18.1428C11 17.5866 10.5523 17.1357 10 17.1357H7Z" fill="#767BFA"/>
</svg>
