<svg width="12" height="25" viewBox="0 0 12 25" fill="none" xmlns="http://www.w3.org/2000/svg">
<path d="M10.9802 1.70536C10.8687 2.24932 10.3394 2.60064 9.79809 2.49006L8.27412 2.17874L6.96633 7.0584C6.82259 7.59476 6.27342 7.91367 5.73974 7.7707C5.20606 7.62774 4.88996 7.07703 5.03371 6.54067L6.58662 0.746372C6.72431 0.232604 7.23634 -0.0856161 7.75487 0.0203095L10.2019 0.520201C10.7433 0.630784 11.0917 1.1614 10.9802 1.70536Z" fill="#767BFA"/>
<path d="M6 15.9475C6 16.503 5.55228 16.9534 5 16.9534C4.44772 16.9534 4 16.503 4 15.9475C4 15.392 4.44772 14.9417 5 14.9417C5.55228 14.9417 6 15.392 6 15.9475Z" fill="#767BFA"/>
<path d="M7 20.9767C7.55229 20.9767 8 20.5264 8 19.9709C8 19.4154 7.55229 18.965 7 18.965C6.44772 18.965 6 19.4154 6 19.9709C6 20.5264 6.44772 20.9767 7 20.9767Z" fill="#767BFA"/>
<path fill-rule="evenodd" clip-rule="evenodd" d="M0.700454 14.8825C1.01312 16.9005 1.11893 18.5489 1.20466 19.8845C1.45324 23.757 1.53303 25 5.99676 25C10.4633 25 10.5438 23.7554 10.7946 19.8772C10.8809 18.5429 10.9873 16.8968 11.2994 14.8825C11.3336 14.6622 11.3671 14.4471 11.3997 14.2373C12.5341 6.95126 12.6995 5.88916 5.99994 5.88916C-0.699333 5.88916 -0.534016 6.95117 0.600033 14.2364C0.632747 14.4465 0.666268 14.6619 0.700454 14.8825ZM2.6766 14.5727C2.99615 16.6352 3.10876 18.3274 3.19399 19.6534C3.28465 21.0638 3.33986 21.8335 3.48344 22.3604C3.56964 22.6767 3.62442 22.6957 3.66589 22.71C3.6716 22.712 3.67706 22.7139 3.68231 22.7165C3.92773 22.8364 4.53667 22.9883 5.99676 22.9883C7.45665 22.9883 8.06642 22.8365 8.31277 22.7162C8.31601 22.7146 8.31932 22.7133 8.3227 22.712C8.32494 22.7111 8.32721 22.7103 8.32951 22.7095C8.37203 22.6945 8.42711 22.675 8.51369 22.3585C8.6577 21.8321 8.7136 21.0624 8.80488 19.6525C8.8907 18.3269 9.00375 16.6348 9.32331 14.5727L9.42201 13.9374C9.52839 13.2536 9.62381 12.6403 9.70508 12.0864C9.54704 12.0517 9.37411 12.0192 9.19017 11.9924C8.31282 11.8647 7.30097 11.8862 6.45167 12.3186C5.07876 13.0177 3.59061 12.9963 2.52352 12.8411C2.48376 12.8353 2.44442 12.8293 2.40552 12.8231C2.45889 13.1722 2.51651 13.5426 2.57776 13.9364L2.6766 14.5727ZM2.11055 10.7133C2.31471 10.7634 2.55141 10.8125 2.80981 10.8501C3.68717 10.9778 4.69902 10.9563 5.54833 10.5239C6.92125 9.82476 8.4094 9.84619 9.47649 10.0014C9.64374 10.0258 9.80349 10.0538 9.95416 10.0839C9.95681 10.0534 9.95936 10.0231 9.96181 9.99307C10.0573 8.82175 9.94691 8.42522 9.8955 8.31964L9.89503 8.31784C9.89503 8.31784 9.89198 8.31602 9.88877 8.31379C9.85352 8.28924 9.72933 8.21601 9.42573 8.14026C8.77302 7.9774 7.72573 7.90083 5.99994 7.90083C4.27414 7.90083 3.22688 7.9774 2.57419 8.14026C2.27061 8.21601 2.14644 8.28923 2.11121 8.31377C2.10802 8.31599 2.10498 8.3178 2.10498 8.3178L2.10449 8.3196C2.05309 8.42519 1.9427 8.82174 2.03819 9.99309C2.05661 10.2191 2.08092 10.4585 2.11055 10.7133Z" fill="#ABAFD1"/>
</svg>
