<svg width="24" height="24" viewBox="0 0 24 24" fill="none" xmlns="http://www.w3.org/2000/svg">
<path fill-rule="evenodd" clip-rule="evenodd" d="M0 12C0 21.882 2.118 24 12 24C21.882 24 24 21.882 24 12C24 2.118 21.882 0 12 0C2.118 0 0 2.118 0 12ZM2 12C2 14.4249 2.13254 16.2369 2.43771 17.6101C2.73783 18.9605 3.17768 19.7608 3.70846 20.2915C4.23924 20.8223 5.03949 21.2622 6.38993 21.5623C7.76307 21.8675 9.57515 22 12 22C14.4249 22 16.2369 21.8675 17.6101 21.5623C18.9605 21.2622 19.7608 20.8223 20.2915 20.2915C20.8223 19.7608 21.2622 18.9605 21.5623 17.6101C21.8675 16.2369 22 14.4249 22 12C22 9.57515 21.8675 7.76307 21.5623 6.38993C21.2622 5.03949 20.8223 4.23924 20.2915 3.70846C19.7608 3.17768 18.9605 2.73783 17.6101 2.43771C16.2369 2.13254 14.4249 2 12 2C9.57515 2 7.76307 2.13254 6.38993 2.43771C5.03949 2.73783 4.23924 3.17768 3.70846 3.70846C3.17768 4.23924 2.73783 5.03949 2.43771 6.38993C2.13254 7.76307 2 9.57515 2 12Z" fill="#ABAFD1"/>
<path d="M11.561 7.79102C12.6043 7.13118 13.641 7.45773 14.145 7.67578C14.5974 7.87156 15.1025 8.19141 15.5356 8.46582L16.8599 9.30371C17.2964 9.57942 17.7985 9.89568 18.1733 10.2217C18.61 10.6014 19.2456 11.3082 19.2456 12.4004C19.2455 13.4923 18.61 14.1983 18.1733 14.5781C17.7984 14.9042 17.2964 15.2213 16.8599 15.4971L15.5356 16.335C15.1025 16.6094 14.5974 16.9292 14.145 17.125C13.641 17.343 12.6041 17.6694 11.561 17.0098C10.7977 16.527 10.5049 15.8045 10.3813 15.2734L9.40479 15.8906C9.06587 16.1055 8.63595 16.3781 8.24365 16.5479C7.80048 16.7396 6.80797 17.0623 5.80322 16.4268C4.8692 15.8358 4.67994 14.8759 4.62158 14.4453C4.56441 14.0233 4.56467 13.5112 4.56494 13.0723V11.7295C4.56467 11.2906 4.56439 10.7785 4.62158 10.3564C4.67994 9.92584 4.86916 8.96592 5.80322 8.375C6.80795 7.73951 7.80046 8.06218 8.24365 8.25391C8.63593 8.42367 9.06588 8.6963 9.40479 8.91113L10.3804 9.52832C10.5037 8.99717 10.797 8.27428 11.561 7.79102ZM14.5532 10.2109C13.5276 9.56226 13.015 9.23825 12.6304 9.48145C12.2458 9.72468 12.2456 10.3728 12.2456 11.6699V13.1299C12.2456 14.4273 12.2458 15.0761 12.6304 15.3193C13.015 15.5623 13.5278 15.2384 14.5532 14.5898L15.7065 13.8594C16.732 13.2107 17.2455 12.8868 17.2456 12.4004C17.2456 11.9139 16.7322 11.5891 15.7065 10.9404L14.5532 10.2109ZM8.41162 10.6494C7.59108 10.1304 7.18026 9.87081 6.87256 10.0654C6.56496 10.2601 6.56494 10.7795 6.56494 11.8174V12.9844C6.56494 14.0222 6.565 14.5416 6.87256 14.7363C7.18026 14.931 7.59108 14.6713 8.41162 14.1523L9.33447 13.5684C9.73664 13.314 10.0406 13.1218 10.2456 12.9463V11.8555C10.0406 11.6799 9.73666 11.4878 9.33447 11.2334L8.41162 10.6494Z" fill="#767BFA"/>
<path d="M11.561 7.79102C12.6043 7.13118 13.641 7.45773 14.145 7.67578C14.5974 7.87156 15.1025 8.19141 15.5356 8.46582L16.8599 9.30371C17.2964 9.57942 17.7985 9.89568 18.1733 10.2217C18.61 10.6014 19.2456 11.3082 19.2456 12.4004C19.2455 13.4923 18.61 14.1983 18.1733 14.5781C17.7984 14.9042 17.2964 15.2213 16.8599 15.4971L15.5356 16.335C15.1025 16.6094 14.5974 16.9292 14.145 17.125C13.641 17.343 12.6041 17.6694 11.561 17.0098C10.7977 16.527 10.5049 15.8045 10.3813 15.2734L9.40479 15.8906C9.06587 16.1055 8.63595 16.3781 8.24365 16.5479C7.80048 16.7396 6.80797 17.0623 5.80322 16.4268C4.8692 15.8358 4.67994 14.8759 4.62158 14.4453C4.56441 14.0233 4.56467 13.5112 4.56494 13.0723V11.7295C4.56467 11.2906 4.56439 10.7785 4.62158 10.3564C4.67994 9.92584 4.86916 8.96592 5.80322 8.375C6.80795 7.73951 7.80046 8.06218 8.24365 8.25391C8.63593 8.42367 9.06588 8.6963 9.40479 8.91113L10.3804 9.52832C10.5037 8.99717 10.797 8.27428 11.561 7.79102ZM14.5532 10.2109C13.5276 9.56226 13.015 9.23825 12.6304 9.48145C12.2458 9.72468 12.2456 10.3728 12.2456 11.6699V13.1299C12.2456 14.4273 12.2458 15.0761 12.6304 15.3193C13.015 15.5623 13.5278 15.2384 14.5532 14.5898L15.7065 13.8594C16.732 13.2107 17.2455 12.8868 17.2456 12.4004C17.2456 11.9139 16.7322 11.5891 15.7065 10.9404L14.5532 10.2109ZM8.41162 10.6494C7.59108 10.1304 7.18026 9.87081 6.87256 10.0654C6.56496 10.2601 6.56494 10.7795 6.56494 11.8174V12.9844C6.56494 14.0222 6.565 14.5416 6.87256 14.7363C7.18026 14.931 7.59108 14.6713 8.41162 14.1523L9.33447 13.5684C9.73664 13.314 10.0406 13.1218 10.2456 12.9463V11.8555C10.0406 11.6799 9.73666 11.4878 9.33447 11.2334L8.41162 10.6494Z" stroke="#767BFA"/>
</svg>
