<svg width="24" height="26" viewBox="0 0 24 26" fill="none" xmlns="http://www.w3.org/2000/svg">
<path d="M18.5455 11.9167C19.1479 11.9167 19.6364 11.4316 19.6364 10.8333C19.6364 10.235 19.1479 9.75 18.5455 9.75C17.943 9.75 17.4545 10.235 17.4545 10.8333C17.4545 11.4316 17.943 11.9167 18.5455 11.9167Z" fill="#767BFA"/>
<path d="M12 0C18.5878 9.19242e-08 19.9999 0.952491 20 5.39648C20 5.8823 19.983 6.32674 19.9444 6.73242C19.3608 6.59624 18.6994 6.48983 17.9512 6.40723C17.9735 6.12321 17.9864 5.78899 17.9864 5.39648C17.9863 3.24171 17.6052 2.86625 17.3389 2.68652C17.1036 2.52778 16.6451 2.33371 15.7285 2.19629C14.8206 2.06017 13.6167 2 12 2C10.3833 2 9.17949 2.06017 8.27151 2.19629C7.35492 2.33371 6.89646 2.52778 6.66116 2.68652C6.39483 2.86625 6.01374 3.24171 6.01369 5.39648C6.01369 5.78898 6.02659 6.12321 6.04885 6.40723C5.3007 6.48982 4.63922 6.59625 4.05569 6.73242C4.01703 6.32674 4.00002 5.8823 4.00002 5.39648C4.0001 0.952491 5.4122 0 12 0Z" fill="#767BFA"/>
<path d="M12 0C18.5878 9.19242e-08 19.9999 0.952491 20 5.39648C20 5.8823 19.983 6.32674 19.9444 6.73242C19.3608 6.59624 18.6994 6.48983 17.9512 6.40723C17.9735 6.12321 17.9864 5.78899 17.9864 5.39648C17.9863 3.24171 17.6052 2.86625 17.3389 2.68652C17.1036 2.52778 16.6451 2.33371 15.7285 2.19629C14.8206 2.06017 13.6167 2 12 2C10.3833 2 9.17949 2.06017 8.27151 2.19629C7.35492 2.33371 6.89646 2.52778 6.66116 2.68652C6.39483 2.86625 6.01374 3.24171 6.01369 5.39648C6.01369 5.78898 6.02659 6.12321 6.04885 6.40723C5.3007 6.48982 4.63922 6.59625 4.05569 6.73242C4.01703 6.32674 4.00002 5.8823 4.00002 5.39648C4.0001 0.952491 5.4122 0 12 0Z" stroke="#767BFA"/>
<path d="M2.27663 16.9149C2.08355 16.1815 2.01399 15.1286 2.01399 13.4871C2.01399 10.248 2.55419 9.44225 3.29359 8.9974C3.80808 8.68786 4.66266 8.41131 6.14643 8.23432C7.61323 8.05936 9.51175 8 12 8C14.7435 8 16.7672 8.05957 18.2822 8.23512C19.8241 8.41378 20.606 8.69071 21.0245 8.96185C21.3363 9.16387 21.5573 9.4285 21.7234 10.0593C21.9165 10.7927 21.986 11.8456 21.986 13.4871C21.986 15.1286 21.9165 16.1815 21.7234 16.9149C21.5573 17.5457 21.3363 17.8103 21.0245 18.0124C20.7351 18.1999 20.2719 18.3901 19.5039 18.5487C19.5465 18.9975 19.5649 19.4926 19.5649 20.0382C19.5649 20.2229 19.5628 20.4019 19.5584 20.5752C23.5193 19.8721 24 18.0292 24 13.4871C24 6.93589 23 6 12 6C2 6 0 6.93589 0 13.4871C0 18.0786 0.491212 19.9118 4.5721 20.5977C4.56724 20.4174 4.56494 20.2309 4.56494 20.0382C4.56494 19.5029 4.58268 19.0163 4.62363 18.5742C3.77874 18.4107 3.28056 18.21 2.97551 18.0124C2.66371 17.8103 2.44269 17.5457 2.27663 16.9149Z" fill="#ABAFD1"/>
<path fill-rule="evenodd" clip-rule="evenodd" d="M4.36364 20.0416C4.36364 25.0069 5.70601 25.9999 11.9691 25.9999C18.2323 25.9999 19.6364 25.0069 19.6364 20.0416C19.6364 17.3054 19.6364 15.8257 18.8938 15.0255C18.0194 14.0833 16.1154 14.0833 11.9691 14.0833C7.86645 14.0833 5.97691 14.0833 5.10665 15.0185C4.36364 15.8171 4.36364 17.2974 4.36364 20.0416ZM6.37763 20.0416C6.37763 22.5376 6.77101 23.084 7.05866 23.3075C7.25245 23.458 7.64193 23.654 8.4775 23.7957C9.31312 23.9374 10.4351 23.9999 11.9691 23.9999C13.5027 23.9999 14.6296 23.9375 15.4723 23.7954C16.3153 23.6533 16.7169 23.4557 16.921 23.2993C17.2199 23.0703 17.6224 22.5195 17.6224 20.0416C17.6224 18.4899 17.6175 17.5422 17.5226 16.8781C17.4819 16.5938 17.4358 16.4511 17.4091 16.3888C17.3246 16.3491 17.0273 16.2379 16.2273 16.1688C15.2573 16.0851 13.9246 16.0833 11.9691 16.0833C10.0288 16.0833 8.70852 16.0851 7.74807 16.1687C6.9687 16.2366 6.67502 16.3448 6.58986 16.3841C6.56313 16.4473 6.51718 16.591 6.47678 16.8759C6.38239 17.5414 6.37763 18.4904 6.37763 20.0416ZM17.3868 16.3479C17.3868 16.3479 17.3901 16.3563 17.3992 16.3672C17.3917 16.3524 17.3868 16.3479 17.3868 16.3479ZM6.61243 16.3421C6.61243 16.3421 6.60773 16.3466 6.60052 16.3609C6.60919 16.3502 6.61243 16.3421 6.61243 16.3421Z" fill="#767BFA"/>
</svg>
