<svg width="24" height="24" viewBox="0 0 24 24" fill="none" xmlns="http://www.w3.org/2000/svg">
<path d="M0.988039 9.94985C0.420445 9.94985 -0.0354527 9.47448 0.00217907 8.90814C0.427072 2.51364 2.51373 0.427047 8.90839 0.00217388C9.47474 -0.0354551 9.95011 0.420442 9.95011 0.988035C9.95011 1.52548 9.52535 1.96476 8.98914 2.00129C7.95281 2.07189 7.07422 2.18715 6.32547 2.35355C4.96931 2.65494 4.16477 3.09685 3.63081 3.63079C3.09685 4.16473 2.65495 4.96924 2.35355 6.32536C2.18716 7.07407 2.07189 7.95261 2.00129 8.98889C1.96476 9.52509 1.52548 9.94985 0.988039 9.94985Z" fill="#ABAFD1"/>
<path d="M0.988033 13.9642C0.42044 13.9642 -0.0354567 14.4395 0.00217355 15.0059C0.427054 21.4004 2.51371 23.4871 8.90839 23.9119C9.47474 23.9496 9.95011 23.4937 9.95011 22.9261C9.95011 22.3886 9.52534 21.9493 8.98914 21.9128C7.95281 21.8422 7.07422 21.727 6.32547 21.5606C4.96931 21.2592 4.16477 20.8173 3.63081 20.2833C3.09685 19.7494 2.65495 18.9449 2.35355 17.5887C2.18715 16.84 2.07189 15.9614 2.00129 14.9251C1.96476 14.3889 1.52548 13.9642 0.988033 13.9642Z" fill="#ABAFD1"/>
<path d="M22.9266 13.9642C22.3892 13.9642 21.9499 14.3889 21.9133 14.9251C21.8427 15.9614 21.7275 16.84 21.5611 17.5887C21.2597 18.9449 20.8178 19.7494 20.2838 20.2833C19.7499 20.8173 18.9453 21.2592 17.5892 21.5606C16.8404 21.727 15.9618 21.8422 14.9255 21.9128C14.3893 21.9493 13.9645 22.3886 13.9645 22.9261C13.9645 23.4937 14.4399 23.9496 15.0062 23.9119C21.4009 23.4871 23.4876 21.4004 23.9125 15.0059C23.9501 14.4395 23.4942 13.9642 22.9266 13.9642Z" fill="#ABAFD1"/>
<path d="M24.0005 11.9895C24.0005 11.9787 24.0005 11.9679 24.0005 11.9571C24.0005 11.9462 24.0005 11.9354 24.0005 11.9246V11.9895Z" fill="#ABAFD1"/>
<path d="M22.9266 9.94985C23.4942 9.94985 23.9501 9.47448 23.9125 8.90814C23.4876 2.51364 21.4009 0.427046 15.0062 0.00217339C14.4399 -0.0354554 13.9645 0.420442 13.9645 0.988034C13.9645 1.52548 14.3893 1.96476 14.9255 2.00129C15.9618 2.07189 16.8404 2.18715 17.5892 2.35355C18.9453 2.65494 19.7499 3.09685 20.2838 3.63079C20.8178 4.16473 21.2597 4.96924 21.5611 6.32536C21.7275 7.07407 21.8427 7.95261 21.9133 8.98889C21.9499 9.52509 22.3891 9.94985 22.9266 9.94985Z" fill="#ABAFD1"/>
<path d="M11.9573 24L11.8587 23.9999H12.0559L11.9573 24Z" fill="#ABAFD1"/>
<path fill-rule="evenodd" clip-rule="evenodd" d="M17 11.8284C17 14.5898 14.7614 16.8284 12 16.8284C9.23858 16.8284 7 14.5898 7 11.8284C7 9.06695 9.23858 6.82837 12 6.82837C14.7614 6.82837 17 9.06695 17 11.8284ZM15 11.8284C15 13.4852 13.6569 14.8284 12 14.8284C10.3431 14.8284 9 13.4852 9 11.8284C9 10.1715 10.3431 8.82837 12 8.82837C13.6569 8.82837 15 10.1715 15 11.8284Z" fill="#767BFA"/>
</svg>
