<svg width="24" height="25" viewBox="0 0 24 25" fill="none" xmlns="http://www.w3.org/2000/svg">
<path fill-rule="evenodd" clip-rule="evenodd" d="M0 12.0859C0 21.9679 2.118 24.0859 12 24.0859C21.882 24.0859 24 21.9679 24 12.0859C24 2.20394 21.882 0.0859375 12 0.0859375C2.118 0.0859375 0 2.20394 0 12.0859ZM2 12.0859C2 14.5108 2.13254 16.3229 2.43771 17.696C2.73783 19.0464 3.17768 19.8467 3.70846 20.3775C4.23924 20.9083 5.03949 21.3481 6.38993 21.6482C7.76307 21.9534 9.57515 22.0859 12 22.0859C14.4249 22.0859 16.2369 21.9534 17.6101 21.6482C18.9605 21.3481 19.7608 20.9083 20.2915 20.3775C20.8223 19.8467 21.2622 19.0464 21.5623 17.696C21.8675 16.3229 22 14.5108 22 12.0859C22 9.66109 21.8675 7.84901 21.5623 6.47587C21.2622 5.12543 20.8223 4.32518 20.2915 3.7944C19.7608 3.26362 18.9605 2.82377 17.6101 2.52365C16.2369 2.21848 14.4249 2.08594 12 2.08594C9.57515 2.08594 7.76307 2.21848 6.38993 2.52365C5.03949 2.82377 4.23924 3.26362 3.70846 3.7944C3.17768 4.32518 2.73783 5.12543 2.43771 6.47587C2.13254 7.84901 2 9.66109 2 12.0859Z" fill="#ABAFD1"/>
<path d="M12 5C11.4477 5 11 5.44772 11 6V12C11 12.5523 11.4477 13 12 13H18C18.5523 13 19 12.5523 19 12C19 11.4477 18.5523 11 18 11H13V6C13 5.44772 12.5523 5 12 5Z" fill="#767BFA"/>
</svg>
