<svg width="22" height="25" viewBox="0 0 22 25" fill="none" xmlns="http://www.w3.org/2000/svg">
<path fill-rule="evenodd" clip-rule="evenodd" d="M0 19.0859C0 23.2034 1.9415 24.0859 11 24.0859C20.0585 24.0859 22 23.2034 22 19.0859C22 14.9684 20.0585 14.0859 11 14.0859C1.9415 14.0859 0 14.9684 0 19.0859ZM2 19.0859C2 19.9953 2.11431 20.4654 2.24164 20.7258C2.33196 20.9105 2.47936 21.1041 2.93067 21.3093C3.44734 21.5441 4.28709 21.7551 5.66071 21.8938C7.01516 22.0307 8.75517 22.0859 11 22.0859C13.2448 22.0859 14.9848 22.0307 16.3393 21.8938C17.7129 21.7551 18.5527 21.5441 19.0693 21.3093C19.5206 21.1041 19.668 20.9105 19.7584 20.7258C19.8857 20.4654 20 19.9953 20 19.0859C20 18.1766 19.8857 17.7065 19.7584 17.4461C19.668 17.2614 19.5206 17.0677 19.0693 16.8626C18.5527 16.6278 17.7129 16.4168 16.3393 16.278C14.9848 16.1412 13.2448 16.0859 11 16.0859C8.75517 16.0859 7.01516 16.1412 5.66071 16.278C4.28709 16.4168 3.44734 16.6278 2.93067 16.8626C2.47936 17.0677 2.33196 17.2614 2.24164 17.4461C2.11431 17.7065 2 18.1766 2 19.0859Z" fill="#ABAFD1"/>
<path fill-rule="evenodd" clip-rule="evenodd" d="M5 6.08594C5 9.39965 7.68629 12.0859 11 12.0859C14.3137 12.0859 17 9.39965 17 6.08594C17 2.77223 14.3137 0.0859375 11 0.0859375C7.68629 0.0859375 5 2.77223 5 6.08594ZM7 6.08594C7 8.29508 8.79086 10.0859 11 10.0859C13.2091 10.0859 15 8.29508 15 6.08594C15 3.8768 13.2091 2.08594 11 2.08594C8.79086 2.08594 7 3.8768 7 6.08594Z" fill="#767BFA"/>
</svg>
