<svg width="18" height="20" viewBox="0 0 18 20" fill="none" xmlns="http://www.w3.org/2000/svg">
<path d="M7 14H2V19M11 6H16V1M1.58301 7.0034C2.14369 5.61566 3.08244 4.41304 4.29255 3.53223C5.50266 2.65141 6.93686 2.12752 8.42975 2.02051C9.92265 1.9135 11.4147 2.2274 12.7381 2.92661C14.0615 3.62582 15.1612 4.68254 15.9141 5.97612M16.4176 12.9971C15.8569 14.3848 14.9181 15.5874 13.708 16.4682C12.4979 17.3491 11.0652 17.8723 9.57227 17.9793C8.07937 18.0863 6.58606 17.7725 5.2627 17.0732C3.93933 16.374 2.83882 15.3175 2.08594 14.0239" stroke="black" stroke-width="2" stroke-linecap="round" stroke-linejoin="round"/>
</svg>
