<svg width="18" height="20" viewBox="0 0 18 20" fill="none" xmlns="http://www.w3.org/2000/svg">
<path d="M3.68604 13H14.3146M3.51465 11H14.4861M4.74316 5H13.2571M4.74316 5C4.13829 5 3.8358 5 3.61279 5.12093C3.41686 5.22718 3.26205 5.3963 3.17292 5.60059C3.07151 5.83303 3.0973 6.13407 3.14893 6.73633L3.94921 16.073C4.0377 17.1053 4.08203 17.6225 4.31149 18.0132C4.51358 18.3572 4.81426 18.6327 5.17432 18.8047C5.58318 19 6.10126 19 7.1377 19H10.8628C11.8992 19 12.4174 19 12.8263 18.8047C13.1864 18.6327 13.4869 18.3572 13.689 18.0132C13.9185 17.6225 13.9628 17.1056 14.0513 16.073L14.8517 6.73471C14.9033 6.13312 14.929 5.8329 14.8276 5.60059C14.7385 5.3963 14.5838 5.22718 14.3878 5.12093C14.1648 5 13.862 5 13.2571 5M4.74316 5H3.7499C2.85031 5 2.40023 5 2.13867 4.81152C1.90778 4.64515 1.75884 4.38816 1.72894 4.10515C1.69504 3.78431 1.91871 3.3929 2.36568 2.6107L2.36621 2.60977C2.70039 2.02496 2.86748 1.73255 3.10197 1.51953C3.31161 1.32909 3.55925 1.18544 3.82861 1.09791C4.12991 1 4.46658 1 5.14014 1H12.8604C13.5339 1 13.8707 1 14.172 1.09791C14.4413 1.18544 14.6888 1.32909 14.8984 1.51953C15.1329 1.73255 15.3 2.02496 15.6342 2.60977C16.0813 3.39224 16.3053 3.78425 16.2714 4.10515C16.2415 4.38816 16.0925 4.64515 15.8616 4.81152C15.6001 5 15.1497 5 14.2501 5H13.2571" stroke="black" stroke-width="2" stroke-linecap="round" stroke-linejoin="round"/>
</svg>
