<svg width="20" height="20" viewBox="0 0 20 20" fill="none" xmlns="http://www.w3.org/2000/svg">
<path d="M10.1521 2.08723C10.1513 1.71959 10.1001 1.3538 10 1C14.9683 1.00545 18.9944 5.03979 19 10C19.0161 14.9625 14.9705 18.9835 10 18.9997C5.02946 19.0158 1.01615 14.963 1 10.0005C2.11168 10.2363 3.27038 9.99814 4.1499 9.27954C5.0562 8.54521 5.5789 7.43935 5.5702 6.27407C5.56959 6.01195 5.5461 5.75072 5.5 5.49268C6.51784 5.89624 7.67043 5.76409 8.5708 5.14162C9.56961 4.44537 10.161 3.3034 10.1521 2.08723Z" stroke="black" stroke-width="2" stroke-linecap="round" stroke-linejoin="round"/>
<path d="M1.00195 5.002V5H1V5.00195L1.00195 5.002Z" stroke="black" stroke-width="2" stroke-linecap="round" stroke-linejoin="round"/>
<path d="M6.00195 1.002V1H6V1.00195L6.00195 1.002Z" stroke="black" stroke-width="2" stroke-linecap="round" stroke-linejoin="round"/>
<path d="M2.00195 1.002V1H2V1.00195L2.00195 1.002Z" stroke="black" stroke-width="2" stroke-linecap="round" stroke-linejoin="round"/>
<path d="M8.00195 15.002V15H8V15.002L8.00195 15.002Z" stroke="black" stroke-width="2" stroke-linecap="round" stroke-linejoin="round"/>
<path d="M13.002 13.002V13H13V13.002L13.002 13.002Z" stroke="black" stroke-width="2" stroke-linecap="round" stroke-linejoin="round"/>
<path d="M9.00195 10.002V10H9V10.002L9.00195 10.002Z" stroke="black" stroke-width="2" stroke-linecap="round" stroke-linejoin="round"/>
<path d="M14.002 8.002V8H14V8.00195L14.002 8.002Z" stroke="black" stroke-width="2" stroke-linecap="round" stroke-linejoin="round"/>
<path d="M1.00195 5.002V5H1V5.00195L1.00195 5.002Z" stroke="black" stroke-width="2" stroke-linecap="round" stroke-linejoin="round"/>
<path d="M6.00195 1.002V1H6V1.00195L6.00195 1.002Z" stroke="black" stroke-width="2" stroke-linecap="round" stroke-linejoin="round"/>
<path d="M2.00195 1.002V1H2V1.00195L2.00195 1.002Z" stroke="black" stroke-width="2" stroke-linecap="round" stroke-linejoin="round"/>
</svg>
