<svg width="23" height="18" viewBox="0 0 23 18" fill="none" xmlns="http://www.w3.org/2000/svg">
<path d="M6.89761 15.1618C8.28247 16.3099 10.0607 17 12.0001 17C16.4184 17 20.0001 13.4183 20.0001 9C20.0001 8.43095 19.9407 7.87578 19.8278 7.34036M6.89761 15.1618C5.12756 13.6944 4.00014 11.4789 4.00014 9C4.00014 4.58172 7.58186 1 12.0001 1C15.8494 1 19.0637 3.71853 19.8278 7.34036M6.89761 15.1618C8.85314 14.7147 11.1796 13.7828 13.526 12.4281C16.2564 10.8517 18.4773 9.01248 19.8278 7.34036M6.89761 15.1618C4.46844 15.7171 2.61159 15.5243 1.99965 14.4644C1.36934 13.3726 2.19631 11.5969 3.99999 9.70898M19.8278 7.34036C21.0796 5.79041 21.5836 4.38405 21.0522 3.46374C20.5134 2.53051 19.0095 2.26939 16.9997 2.59929" stroke="black" stroke-width="2" stroke-linecap="round" stroke-linejoin="round"/>
</svg>
