<svg width="24" height="24" viewBox="0 0 24 24" fill="none" xmlns="http://www.w3.org/2000/svg">
<path d="M12 23C14.4477 23 16.3465 22.8672 17.8271 22.5381C19.2964 22.2115 20.2925 21.7056 20.999 20.999C21.7056 20.2925 22.2115 19.2964 22.5381 17.8271C22.8672 16.3465 23 14.4477 23 12C23 10.5121 22.9508 9.22203 22.8369 8.10156C22.5188 4.97309 21.7134 3.35161 20.2637 2.4082C18.7097 1.39717 16.1972 1 12 1C7.80282 1 5.2903 1.39717 3.73633 2.4082C2.28665 3.35161 1.48124 4.97309 1.16309 8.10156C1.04916 9.22203 1 10.5121 1 12C1 14.4477 1.13284 16.3465 1.46191 17.8271C1.78846 19.2964 2.29443 20.2925 3.00098 20.999C3.70752 21.7056 4.70364 22.2115 6.17285 22.5381C7.65353 22.8672 9.55232 23 12 23Z" stroke="#212135" stroke-width="2" stroke-linecap="round" stroke-linejoin="round"/>
<circle cx="1" cy="1" r="1" transform="matrix(-1 0 0 1 13 15)" fill="#212135"/>
</svg>
