<svg width="24" height="24" viewBox="0 0 24 24" fill="none" xmlns="http://www.w3.org/2000/svg">
<path d="M12 23C14.4477 23 16.3465 22.8672 17.8271 22.5381C19.2964 22.2115 20.2925 21.7056 20.999 20.999C21.7056 20.2925 22.2115 19.2964 22.5381 17.8271C22.8672 16.3465 23 14.4477 23 12C23 9.55232 22.8672 7.65353 22.5381 6.17285C22.2115 4.70364 21.7056 3.70752 20.999 3.00098C20.2925 2.29443 19.2964 1.78846 17.8271 1.46191C16.3465 1.13284 14.4477 1 12 1C9.55232 1 7.65353 1.13284 6.17285 1.46191C4.70364 1.78846 3.70752 2.29443 3.00098 3.00098C2.29443 3.70752 1.78846 4.70364 1.46191 6.17285C1.13284 7.65353 1 9.55232 1 12C1 14.4477 1.13284 16.3465 1.46191 17.8271C1.78846 19.2964 2.29443 20.2925 3.00098 20.999C3.70752 21.7056 4.70364 22.2115 6.17285 22.5381C7.65353 22.8672 9.55232 23 12 23Z" stroke="#212135" stroke-width="2" stroke-linecap="round" stroke-linejoin="round"/>
<path d="M13.846 12C14.9229 12 15.9998 11 15.9998 9.5C15.9998 8 14.9229 6.99999 13.846 7C12.7692 7.00001 11.1537 7.00002 10.0769 7.00001C9.00007 7 8.99998 7 9.00002 8.00001C9.00007 9.00001 9.00002 12 9.00002 12M13.846 12C12.7692 12 10.0769 12 10.0769 12H9.00002M13.846 12C14.9229 12 15.982 13 15.9998 14.5C16.0175 16 14.9229 17 13.846 17C12.7691 17 11.1538 17 10.0769 17C9.00002 17 9.00007 17 9.00002 16C8.99998 15 9.00002 12 9.00002 12" stroke="#212135" stroke-width="2" stroke-linecap="round" stroke-linejoin="round"/>
</svg>
