<svg width="24" height="24" viewBox="0 0 24 24" fill="none" xmlns="http://www.w3.org/2000/svg">
<path d="M12 23C13.4477 23 14.5 21.9477 14.5 20.5V18C14.5 17.5792 14.7182 17.2548 14.9805 17.0635C15.1939 16.908 15.4229 16.8464 15.5566 16.8174C15.8313 16.7577 16.1731 16.7435 16.4541 16.7324C17.0847 16.7075 17.8251 16.6917 18.6143 16.5283C19.3924 16.3672 20.1695 16.0697 20.8438 15.5117C21.51 14.9603 22.1358 14.1056 22.541 12.7285C22.8237 11.7679 23 10.5482 23 9C23 5.87054 22.6023 4.1179 21.6738 3.04785C20.7613 1.99651 19.122 1.36698 15.9238 1.12305C14.7921 1.03673 13.4928 1 12 1C10.5072 1 9.20791 1.03673 8.07617 1.12305C4.87797 1.36698 3.23871 1.99651 2.32617 3.04785C1.39771 4.1179 1 5.87054 1 9L1.00781 9.56543C1.04549 10.8491 1.21165 11.888 1.45898 12.7285C1.86423 14.1056 2.48997 14.9603 3.15625 15.5117C3.83051 16.0697 4.60755 16.3672 5.38574 16.5283C6.17487 16.6917 6.91528 16.7075 7.5459 16.7324C7.8269 16.7435 8.16875 16.7577 8.44336 16.8174C8.57706 16.8464 8.80612 16.908 9.01953 17.0635C9.28182 17.2548 9.5 17.5792 9.5 18V20.5C9.5 21.9477 10.5523 23 12 23Z" stroke="#212135" stroke-width="2" stroke-linecap="round" stroke-linejoin="round"/>
</svg>
