<svg width="24" height="24" viewBox="0 0 24 24" fill="none" xmlns="http://www.w3.org/2000/svg">
<path d="M15 0.999999L9 0.999999C8.63602 0.999994 8.43784 1.04597 8.33984 1.08301C8.29418 1.10027 8.27338 1.11384 8.26758 1.11816C8.26273 1.12179 8.26182 1.12352 8.26074 1.125C8.25567 1.13203 8.2294 1.17228 8.2002 1.30273C8.16621 1.45465 8.15273 1.59465 8.11426 1.8584C8.04933 2.3034 7.92236 3.06005 7.27539 3.63867C6.64265 4.20429 5.71451 4.42868 4.5 4.42871C3.54581 4.42871 2.93926 4.66211 2.52344 4.99512C2.09756 5.33623 1.76225 5.86912 1.51758 6.66211C1.01004 8.30734 1 10.6591 0.999999 13.5498L0.999999 13.5508C0.999998 17.9285 1.56314 20.0882 2.94824 21.2842C3.64873 21.8889 4.65091 22.3284 6.1416 22.6094C7.63661 22.8911 9.54728 23 12 23C14.4506 23 16.36 22.8847 17.8535 22.5957C19.3425 22.3076 20.3463 21.8597 21.0488 21.248C22.4387 20.0379 23 17.8728 23 13.5508C23 10.7174 22.9899 8.36301 22.4814 6.70215C22.2357 5.89954 21.8985 5.3542 21.4697 5.00488C21.0529 4.6655 20.4483 4.42871 19.5 4.42871C18.2851 4.42871 17.3564 4.20461 16.7236 3.63867C16.0767 3.06003 15.9506 2.30339 15.8857 1.8584C15.8473 1.59461 15.8338 1.45465 15.7998 1.30273C15.7706 1.17243 15.7444 1.13211 15.7393 1.125C15.7382 1.12353 15.7372 1.12177 15.7324 1.11816C15.7266 1.11385 15.7058 1.10027 15.6602 1.08301C15.5867 1.05524 15.4569 1.02241 15.2432 1.00781L15 0.999999Z" stroke="#212135" stroke-width="2" stroke-linecap="round" stroke-linejoin="round"/>
<circle cx="1" cy="1" r="1" transform="matrix(-1 0 0 1 19 7)" fill="#212135"/>
<circle cx="5" cy="5" r="4" transform="matrix(-4.37114e-08 -1 -1 4.37114e-08 17 18)" stroke="#212135" stroke-width="2"/>
</svg>
