<svg width="24" height="24" viewBox="0 0 24 24" fill="none" xmlns="http://www.w3.org/2000/svg">
<path fill-rule="evenodd" clip-rule="evenodd" d="M16.7071 9.70712C17.0976 9.3166 17.0976 8.68343 16.7071 8.29291C16.3166 7.90238 15.6834 7.90238 15.2929 8.29291L11 12.5858L9.20712 10.7929C8.8166 10.4024 8.18343 10.4024 7.79291 10.7929C7.40238 11.1834 7.40238 11.8166 7.79291 12.2071L10.2929 14.7071C10.6834 15.0976 11.3166 15.0976 11.7071 14.7071L16.7071 9.70712Z" fill="#212135"/>
<path d="M12 23C14.4477 23 16.3465 22.8672 17.8271 22.5381C19.2964 22.2115 20.2925 21.7056 20.999 20.999C21.7056 20.2925 22.2115 19.2964 22.5381 17.8271C22.8672 16.3465 23 14.4477 23 12C23 9.55232 22.8672 7.65353 22.5381 6.17285C22.2115 4.70364 21.7056 3.70752 20.999 3.00098C20.2925 2.29443 19.2964 1.78846 17.8271 1.46191C16.3465 1.13284 14.4477 1 12 1C9.55232 1 7.65353 1.13284 6.17285 1.46191C4.70364 1.78846 3.70752 2.29443 3.00098 3.00098C2.29443 3.70752 1.78846 4.70364 1.46191 6.17285C1.13284 7.65353 1 9.55232 1 12C1 14.4477 1.13284 16.3465 1.46191 17.8271C1.78846 19.2964 2.29443 20.2925 3.00098 20.999C3.70752 21.7056 4.70364 22.2115 6.17285 22.5381C7.65353 22.8672 9.55232 23 12 23Z" stroke="#212135" stroke-width="2" stroke-linecap="round" stroke-linejoin="round"/>
</svg>
