<svg width="24" height="24" viewBox="0 0 24 24" fill="none" xmlns="http://www.w3.org/2000/svg">
<path d="M12 23C14.4477 23 16.3465 22.8672 17.8271 22.5381C19.2964 22.2115 20.2925 21.7056 20.999 20.999C21.7056 20.2925 22.2115 19.2964 22.5381 17.8271C22.8672 16.3465 23 14.4477 23 12C23 9.55232 22.8672 7.65353 22.5381 6.17285C22.2115 4.70364 21.7056 3.70752 20.999 3.00098C20.2925 2.29443 19.2964 1.78846 17.8271 1.46191C16.3465 1.13284 14.4477 1 12 1C9.55232 1 7.65353 1.13284 6.17285 1.46191C4.70364 1.78846 3.70752 2.29443 3.00098 3.00098C2.29443 3.70752 1.78846 4.70364 1.46191 6.17285C1.13284 7.65353 1 9.55232 1 12C1 14.4477 1.13284 16.3465 1.46191 17.8271C1.78846 19.2964 2.29443 20.2925 3.00098 20.999C3.70752 21.7056 4.70364 22.2115 6.17285 22.5381C7.65353 22.8672 9.55232 23 12 23Z" stroke="#212135" stroke-width="2" stroke-linecap="round" stroke-linejoin="round"/>
<path d="M11.1577 8.18182L12.9195 6.33429C13.3244 5.90978 14.0046 5.88646 14.4388 6.2822L17.658 9.21592C18.0923 9.61167 18.1161 10.2766 17.7113 10.7011L15.8182 12.6864M11.1577 8.18182L6.28868 13.2877C6.08633 13.4999 5.98271 13.7844 6.00236 14.0738L6.20234 17.0187C6.23993 17.5724 6.71141 18.0021 7.27903 18L10.2983 17.9888C10.595 17.9877 10.8781 17.8667 11.0805 17.6545L15.8182 12.6864M11.1577 8.18182L15.8182 12.6864" stroke="#212135" stroke-width="2" stroke-linejoin="round"/>
</svg>
