<svg width="24" height="24" viewBox="0 0 24 24" fill="none" xmlns="http://www.w3.org/2000/svg">
<path d="M12 23C14.4477 23 16.3465 22.8672 17.8271 22.5381C19.2964 22.2115 20.2925 21.7056 20.999 20.999C21.7056 20.2925 22.2115 19.2964 22.5381 17.8271C22.8672 16.3465 23 14.4477 23 12C23 9.55232 22.8672 7.65353 22.5381 6.17285C22.2115 4.70364 21.7056 3.70752 20.999 3.00098C20.2925 2.29443 19.2964 1.78846 17.8271 1.46191C16.3465 1.13284 14.4477 1 12 1C9.55232 1 7.65353 1.13284 6.17285 1.46191C4.70364 1.78846 3.70752 2.29443 3.00098 3.00098C2.29443 3.70752 1.78846 4.70364 1.46191 6.17285C1.13284 7.65353 1 9.55232 1 12C1 14.4477 1.13284 16.3465 1.46191 17.8271C1.78846 19.2964 2.29443 20.2925 3.00098 20.999C3.70752 21.7056 4.70364 22.2115 6.17285 22.5381C7.65353 22.8672 9.55232 23 12 23Z" stroke="#212135" stroke-width="2" stroke-linecap="round" stroke-linejoin="round"/>
<path fill-rule="evenodd" clip-rule="evenodd" d="M10 5C9.44772 5 9 5.44772 9 6C9 6.55228 9.44772 7 10 7H14C14.5523 7 15 6.55228 15 6C15 5.44772 14.5523 5 14 5H10ZM11 17C11 17.5523 11.4477 18 12 18C12.5523 18 13 17.5523 13 17C13 16.4477 12.5523 16 12 16C11.4477 16 11 16.4477 11 17ZM9 17C9 18.6569 10.3431 20 12 20C13.6569 20 15 18.6569 15 17C15 15.3431 13.6569 14 12 14C10.3431 14 9 15.3431 9 17Z" fill="#212135"/>
</svg>
