<svg width="28" height="20" viewBox="0 0 28 20" fill="none" xmlns="http://www.w3.org/2000/svg">
<path d="M1 10.001C1.00009 8.50471 1.458 7.38879 2.36914 6.62305C3.31064 5.8319 4.89054 5.2832 7.39258 5.2832C8.84859 5.28314 9.9463 4.98409 10.8213 4.48047C11.6859 3.98277 12.2571 3.32658 12.7051 2.76465C13.1858 2.16164 13.4659 1.76011 13.8535 1.44922C14.1765 1.19015 14.5803 1 15.2725 1C15.9814 1.00008 16.5126 1.20056 16.9385 1.54004C17.38 1.89213 17.7691 2.4435 18.0879 3.23145C18.7349 4.83091 19 7.17038 19 10.001C19 12.8317 18.7348 15.1708 18.0879 16.7695C17.7692 17.5571 17.38 18.1081 16.9385 18.46C16.5126 18.7992 15.9816 18.9999 15.2725 19C14.5834 19 14.2287 18.812 13.96 18.5771C13.61 18.2711 13.3899 17.8958 12.9258 17.2646C12.4985 16.6836 11.9367 16.0141 11.0303 15.5098C10.1243 15.0058 8.96196 14.7139 7.39258 14.7139C4.60095 14.7139 3.04987 14.1552 2.19336 13.3945C1.36831 12.6618 1 11.5702 1 10.001Z" stroke="#212135" stroke-width="2"/>
<path d="M23 8L25 10M25 10L27 12M25 10L27 8M25 10L23 12" stroke="#212135" stroke-width="2" stroke-linecap="round" stroke-linejoin="round"/>
</svg>
