<svg width="24" height="27" viewBox="0 0 24 27" fill="none" xmlns="http://www.w3.org/2000/svg">
<path d="M12 26C14.4477 26 16.3465 25.8672 17.8271 25.5381C19.2964 25.2115 20.2925 24.7056 20.999 23.999C21.7056 23.2925 22.2115 22.2964 22.5381 20.8271C22.8672 19.3465 23 17.4477 23 15C23 12.5523 22.8672 10.6535 22.5381 9.17285C22.2115 7.70364 21.7056 6.70752 20.999 6.00098C20.2925 5.29443 19.2964 4.78846 17.8271 4.46191C16.3465 4.13284 14.4477 4 12 4C9.55232 4 7.65353 4.13284 6.17285 4.46191C4.70364 4.78846 3.70752 5.29443 3.00098 6.00098C2.29443 6.70752 1.78846 7.70364 1.46191 9.17285C1.13284 10.6535 1 12.5523 1 15C1 17.4477 1.13284 19.3465 1.46191 20.8271C1.78846 22.2964 2.29443 23.2925 3.00098 23.999C3.70752 24.7056 4.70364 25.2115 6.17285 25.5381C7.65353 25.8672 9.55232 26 12 26Z" stroke="#212135" stroke-width="2" stroke-linecap="round" stroke-linejoin="round"/>
<path fill-rule="evenodd" clip-rule="evenodd" d="M10 0C10.5523 0 11 0.447715 11 1V2H13V1C13 0.447715 13.4477 0 14 0C14.5523 0 15 0.447715 15 1V2H16C17.1046 2 18 2.89543 18 4C18 5.10457 17.1046 6 16 6H8C6.89543 6 6 5.10457 6 4C6 2.89543 6.89543 2 8 2H9V1C9 0.447715 9.44772 0 10 0Z" fill="#212135"/>
<path d="M7 21H17" stroke="#212135" stroke-width="2" stroke-linecap="round" stroke-linejoin="round"/>
<path d="M7 16H17" stroke="#212135" stroke-width="2" stroke-linecap="round" stroke-linejoin="round"/>
</svg>
