<svg width="24" height="24" viewBox="0 0 24 24" fill="none" xmlns="http://www.w3.org/2000/svg">
<path d="M17 5.5C16.75 2.83334 15 1 12 1C9 1 7.25 2.83335 7 5.5" stroke="#212135" stroke-width="2" stroke-linecap="round" stroke-linejoin="round"/>
<path d="M12 23C14.4528 23 16.3695 22.8951 17.8711 22.6309C19.372 22.3668 20.3824 21.9556 21.085 21.3994C22.4432 20.3241 23 18.4144 23 14.5C23 12.1811 22.8076 10.5437 22.3457 9.36426C21.8425 8.07978 20.9966 7.2757 19.4482 6.75684C17.8173 6.2103 15.4535 6 12 6C8.54648 6 6.1827 6.2103 4.55176 6.75684C3.00344 7.2757 2.15745 8.07978 1.6543 9.36426C1.19236 10.5437 1 12.1811 1 14.5C1 18.4144 1.55682 20.3241 2.91504 21.3994C3.61758 21.9556 4.62805 22.3668 6.12891 22.6309C7.63052 22.8951 9.54718 23 12 23Z" stroke="#212135" stroke-width="2" stroke-linecap="round" stroke-linejoin="round"/>
</svg>
