<svg width="24" height="24" viewBox="0 0 24 24" fill="none" xmlns="http://www.w3.org/2000/svg">
<path d="M12 1C15.6474 1 18.4724 1.74588 20.3633 3.63672C22.2541 5.52755 23 8.35263 23 12C23 13.1371 21.8514 13.6724 21.0059 13.377C20.3053 13.1323 19.4029 13 18.25 13C16.1422 13 14.9047 13.439 14.1719 14.1719C13.439 14.9047 13 16.1422 13 18.25C13 19.4029 13.1323 20.3053 13.377 21.0059C13.6724 21.8514 13.1371 23 12 23C8.35263 23 5.52755 22.2541 3.63672 20.3633C1.74588 18.4724 1 15.6474 1 12C1 8.35263 1.74588 5.52755 3.63672 3.63672C5.52755 1.74588 8.35263 1 12 1Z" stroke="#212135" stroke-width="2" stroke-linecap="round" stroke-linejoin="round"/>
<path fill-rule="evenodd" clip-rule="evenodd" d="M10.5 7C11.3284 7 12 6.32843 12 5.5C12 4.67157 11.3284 4 10.5 4C9.67157 4 9 4.67157 9 5.5C9 6.32843 9.67157 7 10.5 7ZM15.5 9C16.3284 9 17 8.32843 17 7.5C17 6.67157 16.3284 6 15.5 6C14.6716 6 14 6.67157 14 7.5C14 8.32843 14.6716 9 15.5 9ZM8 9.5C8 10.3284 7.32843 11 6.5 11C5.67157 11 5 10.3284 5 9.5C5 8.67157 5.67157 8 6.5 8C7.32843 8 8 8.67157 8 9.5ZM7.5 16C8.32843 16 9 15.3284 9 14.5C9 13.6716 8.32843 13 7.5 13C6.67157 13 6 13.6716 6 14.5C6 15.3284 6.67157 16 7.5 16Z" fill="#212135"/>
</svg>
