<svg width="28" height="21" viewBox="0 0 28 21" fill="none" xmlns="http://www.w3.org/2000/svg">
<path fill-rule="evenodd" clip-rule="evenodd" d="M21 8C21.5523 8 22 7.55228 22 7C22 6.44772 21.5523 6 21 6C20.4477 6 20 6.44772 20 7C20 7.55228 20.4477 8 21 8ZM23 10C23.5523 10 24 9.55228 24 9C24 8.44772 23.5523 8 23 8C22.4477 8 22 8.44772 22 9C22 9.55228 22.4477 10 23 10ZM22 11C22 11.5523 21.5523 12 21 12C20.4477 12 20 11.5523 20 11C20 10.4477 20.4477 10 21 10C21.5523 10 22 10.4477 22 11ZM19 10C19.5523 10 20 9.55228 20 9C20 8.44772 19.5523 8 19 8C18.4477 8 18 8.44772 18 9C18 9.55228 18.4477 10 19 10Z" fill="#212135"/>
<path d="M21 1.5C22.954 1.5 24.4908 2.66415 25.4893 4.37695C26.4791 6.07491 27 8.38625 27 10.9893C27 14.4066 26.5717 16.9896 24.7822 18.6611C24.1615 19.2408 23.4366 19.5116 22.6787 19.5C21.9536 19.4888 21.2758 19.2211 20.6914 18.873C19.5334 18.1833 18.49 17.0239 17.748 16.0176C16.8062 14.7403 15.4559 13.9873 14 13.9873C12.5441 13.9873 11.1938 14.7403 10.252 16.0176C9.50999 17.0239 8.46655 18.1833 7.30859 18.873C6.72423 19.2211 6.0464 19.4888 5.32129 19.5C4.56344 19.5116 3.83847 19.2408 3.21777 18.6611C1.42827 16.9896 1 14.4066 1 10.9893C1.00001 8.38626 1.52095 6.07492 2.51074 4.37695C3.5092 2.66414 5.04597 1.5 7 1.5L7.43848 1.51465C8.4346 1.58171 9.2522 1.87479 10.1855 2.27637C11.2187 2.72088 12.5401 2.99805 14 2.99805C15.4599 2.99805 16.7813 2.72088 17.8145 2.27637C18.8811 1.81744 19.7965 1.5 21 1.5Z" stroke="#212135" stroke-width="2" stroke-linecap="round" stroke-linejoin="round"/>
<path d="M7 7V9M7 11V9M7 9H9H5" stroke="#212135" stroke-width="2" stroke-linecap="round" stroke-linejoin="round"/>
</svg>
