<svg width="20" height="24" viewBox="0 0 20 24" fill="none" xmlns="http://www.w3.org/2000/svg">
<path d="M10 23C12.0358 23 13.6034 22.8893 14.8193 22.6191C16.024 22.3514 16.8213 21.9404 17.3809 21.3809C17.9404 20.8213 18.3514 20.024 18.6191 18.8193C18.8893 17.6034 19 16.0358 19 14C19 11.9642 18.8893 10.3966 18.6191 9.18066C18.3514 7.97604 17.9404 7.17866 17.3809 6.61914C16.8213 6.05962 16.024 5.64858 14.8193 5.38086C13.6034 5.11066 12.0358 5 10 5C7.96424 5 6.3966 5.11066 5.18066 5.38086C3.97604 5.64858 3.17866 6.05962 2.61914 6.61914C2.05962 7.17866 1.64858 7.97604 1.38086 9.18066C1.11066 10.3966 1 11.9642 1 14C1 16.0358 1.11067 17.6034 1.38086 18.8193C1.64858 20.024 2.05962 20.8213 2.61914 21.3809C3.17866 21.9404 3.97604 22.3514 5.18066 22.6191C6.3966 22.8893 7.96424 23 10 23Z" stroke="#212135" stroke-width="2" stroke-linecap="round" stroke-linejoin="round"/>
<path d="M3 1H10M17 1H10M10 1V4" stroke="#212135" stroke-width="2" stroke-linecap="round" stroke-linejoin="round"/>
<path d="M6 13H7M8 13H7M7 13V15M9 15V13L11 15V13M12 13H13M14 13H13M13 13V15" stroke="#212135" stroke-linecap="round" stroke-linejoin="round"/>
</svg>
