<svg width="24" height="24" viewBox="0 0 24 24" fill="none" xmlns="http://www.w3.org/2000/svg">
<path d="M12 23C14.4518 23 16.365 22.8896 17.8623 22.6123C19.3567 22.3355 20.3632 21.9054 21.0654 21.3203C22.4405 20.1744 23 18.1299 23 14C23 9.87011 22.4405 7.82556 21.0654 6.67969C20.3632 6.09463 19.3567 5.6645 17.8623 5.3877C16.365 5.11039 14.4518 5 12 5C9.54819 5 7.63503 5.11039 6.1377 5.3877C4.64334 5.6645 3.63677 6.09463 2.93457 6.67969C1.55952 7.82556 1 9.87011 1 14C1 18.1299 1.55952 20.1744 2.93457 21.3203C3.63677 21.9054 4.64334 22.3355 6.1377 22.6123C7.63503 22.8896 9.54819 23 12 23Z" stroke="#212135" stroke-width="2" stroke-linecap="round" stroke-linejoin="round"/>
<path d="M6 1L12 4L18 1" stroke="#212135" stroke-width="2" stroke-linecap="round" stroke-linejoin="round"/>
</svg>
