<svg width="25" height="24" viewBox="0 0 25 24" fill="none" xmlns="http://www.w3.org/2000/svg">
<path d="M11 23C13.2546 23 15.0343 22.9447 16.4395 22.8027C17.8542 22.6598 18.8206 22.435 19.4834 22.1338C20.1133 21.8475 20.4493 21.5022 20.6562 21.0791C20.8817 20.618 21 19.9693 21 19C21 18.0307 20.8817 17.382 20.6562 16.9209C20.4493 16.4978 20.1133 16.1525 19.4834 15.8662C18.8206 15.565 17.8542 15.3402 16.4395 15.1973C15.0343 15.0553 13.2546 15 11 15C8.74545 15 6.96565 15.0553 5.56055 15.1973C4.1458 15.3402 3.17936 15.565 2.5166 15.8662C1.88675 16.1525 1.55068 16.4978 1.34375 16.9209C1.11831 17.382 1 18.0307 1 19C1 19.9693 1.11831 20.618 1.34375 21.0791C1.55068 21.5022 1.88675 21.8475 2.5166 22.1338C3.17936 22.435 4.1458 22.6598 5.56055 22.8027C6.96565 22.9447 8.74545 23 11 23Z" stroke="#212135" stroke-width="2" stroke-linecap="round" stroke-linejoin="round"/>
<circle cx="6" cy="6" r="5" transform="matrix(-1 0 0 1 17 0)" stroke="#212135" stroke-width="2"/>
<path fill-rule="evenodd" clip-rule="evenodd" d="M19.2932 11.2926C18.9027 11.6831 18.9026 12.3164 19.2929 12.7071C19.6832 13.0978 20.3163 13.0979 20.7068 12.7074L22 11.4142L23.2929 12.7071C23.6834 13.0976 24.3166 13.0976 24.7071 12.7071C25.0976 12.3166 25.0976 11.6834 24.7071 11.2929L23.4142 9.99999L24.7068 8.70741C25.0973 8.31688 25.0975 7.68358 24.7071 7.29288C24.3168 6.90217 23.6837 6.90203 23.2932 7.29256L22 8.58578L20.7071 7.29288C20.3166 6.90236 19.6834 6.90236 19.2929 7.29288C18.9024 7.68341 18.9024 8.31657 19.2929 8.7071L20.5858 9.99999L19.2932 11.2926Z" fill="#212135"/>
</svg>
