<svg width="29" height="20" viewBox="0 0 29 20" fill="none" xmlns="http://www.w3.org/2000/svg">
<path d="M11 19C13.2438 19 14.9845 18.8894 16.3418 18.6152C17.6926 18.3423 18.5949 17.9211 19.2246 17.3486C20.4821 16.2054 21 14.1434 21 10C21 5.85659 20.4821 3.79458 19.2246 2.65137C18.5949 2.07892 17.6926 1.65769 16.3418 1.38477C14.9845 1.1106 13.2438 1 11 1C8.75616 1 7.01547 1.1106 5.6582 1.38477C4.30736 1.65769 3.4051 2.07892 2.77539 2.65137C1.51786 3.79458 1 5.85659 1 10C1 14.1434 1.51786 16.2054 2.77539 17.3486C3.4051 17.9211 4.30736 18.3423 5.6582 18.6152C7.01547 18.8894 8.75616 19 11 19Z" stroke="#212135" stroke-width="2" stroke-linecap="round" stroke-linejoin="round"/>
<path d="M21 5.23677C24.8309 1.86258 27.2222 2.6737 27.6667 5.23676C28.1111 7.79982 28.1111 11.8749 27.6667 14.4219C27.2836 17.7961 24.8309 17.89 21 14.5159" stroke="#212135" stroke-width="2"/>
</svg>
