<svg width="24" height="24" viewBox="0 0 24 24" fill="none" xmlns="http://www.w3.org/2000/svg">
<path d="M12 0.999999C7.1267 0.999999 4.54669 1.53956 3.09082 2.91406C1.65236 4.27218 1.04691 6.70454 1.00293 11.4102C0.999997 11.7239 1.00031 11.8102 1.01269 11.9199C1.02534 12.0319 1.04009 12.0988 1.10058 12.3525C2.75585 19.294 8.63622 21.913 11.1562 22.7295C11.5879 22.8693 11.6901 22.9014 12 22.9014C12.3099 22.9014 12.4121 22.8693 12.8437 22.7295C15.3638 21.913 21.2441 19.294 22.8994 12.3525C22.9599 12.0989 22.9747 12.0319 22.9873 11.9199C22.9997 11.8102 23 11.7239 22.9971 11.4102C22.9531 6.70454 22.3476 4.27218 20.9092 2.91406C19.4533 1.53956 16.8733 0.999999 12 0.999999Z" stroke="#212135" stroke-width="2" stroke-linecap="round" stroke-linejoin="round"/>
<path fill-rule="evenodd" clip-rule="evenodd" d="M15.7071 9.70711C16.0976 9.31658 16.0976 8.68342 15.7071 8.29289C15.3166 7.90237 14.6834 7.90237 14.2929 8.29289L12 10.5858L9.70711 8.29289C9.31658 7.90237 8.68342 7.90237 8.29289 8.29289C7.90237 8.68342 7.90237 9.31658 8.29289 9.70711L10.5858 12L8.29289 14.2929C7.90237 14.6834 7.90237 15.3166 8.29289 15.7071C8.68342 16.0976 9.31658 16.0976 9.70711 15.7071L12 13.4142L14.2929 15.7071C14.6834 16.0976 15.3166 16.0976 15.7071 15.7071C16.0976 15.3166 16.0976 14.6834 15.7071 14.2929L13.4142 12L15.7071 9.70711Z" fill="#212135"/>
</svg>
