<svg width="24" height="24" viewBox="0 0 24 24" fill="none" xmlns="http://www.w3.org/2000/svg">
<path d="M12 0.999999C7.1267 0.999999 4.54669 1.53956 3.09082 2.91406C1.65236 4.27218 1.04691 6.70454 1.00293 11.4102C0.999997 11.7239 1.00031 11.8102 1.01269 11.9199C1.02534 12.0319 1.04009 12.0988 1.10058 12.3525C2.75585 19.294 8.63622 21.913 11.1562 22.7295C11.5879 22.8693 11.6901 22.9014 12 22.9014C12.3099 22.9014 12.4121 22.8693 12.8437 22.7295C15.3638 21.913 21.2441 19.294 22.8994 12.3525C22.9599 12.0989 22.9747 12.0319 22.9873 11.9199C22.9997 11.8102 23 11.7239 22.9971 11.4102C22.9531 6.70454 22.3476 4.27218 20.9092 2.91406C19.4533 1.53956 16.8733 0.999999 12 0.999999Z" stroke="#212135" stroke-width="2" stroke-linecap="round" stroke-linejoin="round"/>
<path fill-rule="evenodd" clip-rule="evenodd" d="M13 7C13 6.44772 12.5523 6 12 6C11.4477 6 11 6.44772 11 7V13C11 13.5523 11.4477 14 12 14C12.5523 14 13 13.5523 13 13V7ZM12 15C11.4477 15 11 15.4477 11 16C11 16.5523 11.4477 17 12 17C12.5523 17 13 16.5523 13 16C13 15.4477 12.5523 15 12 15Z" fill="#212135"/>
</svg>
