<svg width="24" height="24" viewBox="0 0 24 24" fill="none" xmlns="http://www.w3.org/2000/svg">
<path d="M12 23C15.3309 23 17.8033 22.2777 19.5352 20.9551C21.2494 19.6459 22.3618 17.653 22.7959 14.8467C22.9306 13.9756 23 13.0275 23 12C23 10.9725 22.9306 10.0244 22.7959 9.15332C22.3618 6.34696 21.2494 4.35412 19.5352 3.04492C17.8033 1.72229 15.3309 1 12 1C8.66915 1 6.19672 1.72229 4.46484 3.04492C2.75058 4.35412 1.63825 6.34697 1.2041 9.15332C1.06937 10.0244 1 10.9725 1 12C1 13.0275 1.06937 13.9756 1.2041 14.8467C1.63825 17.653 2.75058 19.6459 4.46484 20.9551C6.19672 22.2777 8.66915 23 12 23Z" stroke="#212135" stroke-width="2" stroke-linecap="round" stroke-linejoin="round"/>
<path d="M12 1C12.0761 1 12.3427 1.05706 12.752 1.61328C13.1417 2.14304 13.532 2.9615 13.877 4.0293C14.5633 6.15382 15 9.04764 15 12C15 14.9524 14.5633 17.8462 13.877 19.9707C13.532 21.0385 13.1417 21.857 12.752 22.3867C12.3427 22.9429 12.0761 23 12 23C11.9239 23 11.6573 22.9429 11.248 22.3867C10.8583 21.857 10.468 21.0385 10.123 19.9707C9.4367 17.8462 9 14.9524 9 12C9 9.04764 9.4367 6.15382 10.123 4.0293C10.468 2.9615 10.8583 2.14304 11.248 1.61328C11.6573 1.05706 11.9239 1 12 1Z" stroke="#212135" stroke-width="2"/>
</svg>
