<svg width="12" height="20" viewBox="0 0 12 20" fill="none" xmlns="http://www.w3.org/2000/svg">
<path d="M1 4.2002V15.8002C1 16.9203 1 17.4801 1.21799 17.9079C1.40973 18.2842 1.71547 18.5905 2.0918 18.7822C2.5192 19 3.07899 19 4.19691 19H7.80309C8.921 19 9.47999 19 9.90739 18.7822C10.2837 18.5905 10.5905 18.2842 10.7822 17.9079C11 17.4805 11 16.9215 11 15.8036V4.19691C11 3.07899 11 2.5192 10.7822 2.0918C10.5905 1.71547 10.2837 1.40973 9.90739 1.21799C9.47957 1 8.9203 1 7.8002 1H4.2002C3.08009 1 2.51962 1 2.0918 1.21799C1.71547 1.40973 1.40973 1.71547 1.21799 2.0918C1 2.51962 1 3.08009 1 4.2002Z" stroke="black" stroke-width="2" stroke-linecap="round" stroke-linejoin="round"/>
</svg>
