<svg width="18" height="18" viewBox="0 0 18 18" fill="none" xmlns="http://www.w3.org/2000/svg">
<path d="M1 6H17M1 6V13.8002C1 14.9203 1 15.4796 1.21799 15.9074C1.40973 16.2837 1.71547 16.5905 2.0918 16.7822C2.5192 17 3.07901 17 4.19692 17H13.8031C14.921 17 15.48 17 15.9074 16.7822C16.2837 16.5905 16.5905 16.2837 16.7822 15.9074C17 15.48 17 14.921 17 13.8031V6M1 6V4.2002C1 3.08009 1 2.51962 1.21799 2.0918C1.40973 1.71547 1.71547 1.40973 2.0918 1.21799C2.51962 1 3.08009 1 4.2002 1H13.8002C14.9203 1 15.4796 1 15.9074 1.21799C16.2837 1.40973 16.5905 1.71547 16.7822 2.0918C17 2.5192 17 3.07899 17 4.19691V6" stroke="black" stroke-width="2" stroke-linecap="round" stroke-linejoin="round"/>
</svg>
