<svg width="20" height="17" viewBox="0 0 20 17" fill="none" xmlns="http://www.w3.org/2000/svg">
<path d="M15.8506 8.54417C15.0475 7.68292 14.0641 7.00959 12.9707 6.57227M18.7759 5.81625C17.5712 4.52437 16.0961 3.51439 14.4561 2.8584C12.816 2.20241 11.0514 1.91635 9.28809 2.02111M6.34277 11.5905C6.95571 10.9332 7.73448 10.4532 8.59714 10.2012C9.4598 9.94909 10.3745 9.93351 11.2449 10.1574M4.14941 8.54385C5.09778 7.52685 6.29486 6.77461 7.62259 6.36133M1.22363 5.81604C2.1215 4.85319 3.17169 4.04466 4.33211 3.42285M2.41406 1L16.5562 15.1421M10 16C9.44772 16 9 15.5523 9 15C9 14.4477 9.44772 14 10 14C10.5523 14 11 14.4477 11 15C11 15.5523 10.5523 16 10 16Z" stroke="black" stroke-width="2" stroke-linecap="round" stroke-linejoin="round"/>
</svg>
