<svg width="18" height="18" viewBox="0 0 18 18" fill="none" xmlns="http://www.w3.org/2000/svg">
<path d="M17 12H1M17 12V4.19691C17 3.07899 17 2.5192 16.7822 2.0918C16.5905 1.71547 16.2837 1.40973 15.9074 1.21799C15.4796 1 14.9203 1 13.8002 1H4.2002C3.08009 1 2.51962 1 2.0918 1.21799C1.71547 1.40973 1.40973 1.71547 1.21799 2.0918C1 2.51962 1 3.08009 1 4.2002V12M17 12V13.8031C17 14.921 17 15.48 16.7822 15.9074C16.5905 16.2837 16.2837 16.5905 15.9074 16.7822C15.48 17 14.921 17 13.8031 17H4.19691C3.07899 17 2.5192 17 2.0918 16.7822C1.71547 16.5905 1.40973 16.2837 1.21799 15.9074C1 15.4796 1 14.9203 1 13.8002V12" stroke="black" stroke-width="2" stroke-linecap="round" stroke-linejoin="round"/>
</svg>
