<svg width="20" height="18" viewBox="0 0 20 18" fill="none" xmlns="http://www.w3.org/2000/svg">
<path d="M8 17H5M16 14H14M11.0002 6H4.2002C3.08009 6 2.51962 6 2.0918 6.21799C1.71547 6.40973 1.40973 6.71547 1.21799 7.0918C1 7.51962 1 8.08009 1 9.2002V10.8002C1 11.9203 1 12.4796 1.21799 12.9074C1.40973 13.2837 1.71547 13.5905 2.0918 13.7822C2.5192 14 3.07899 14 4.19691 14H11.0001M11.0002 6L11 13.8002C11 13.8689 11 13.9354 11.0001 14M11.0002 6L11 4.2002C11 3.08009 11 2.51962 11.218 2.0918C11.4097 1.71547 11.7155 1.40973 12.0918 1.21799C12.5196 1 13.0801 1 14.2002 1H15.8002C16.9203 1 17.4796 1 17.9074 1.21799C18.2837 1.40973 18.5905 1.71547 18.7822 2.0918C19 2.5192 19 3.07899 19 4.19691V13.8031C19 14.921 19 15.48 18.7822 15.9074C18.5905 16.2837 18.2837 16.5905 17.9074 16.7822C17.48 17 16.921 17 15.8031 17H14.1969C13.079 17 12.5192 17 12.0918 16.7822C11.7155 16.5905 11.4097 16.2837 11.218 15.9074C11.0134 15.5058 11.0008 14.9884 11.0001 14M15.002 4V4.002L15 4.00195V4H15.002Z" stroke="black" stroke-width="2" stroke-linecap="round" stroke-linejoin="round"/>
</svg>
