<svg width="14" height="12" viewBox="0 0 14 12" fill="none" xmlns="http://www.w3.org/2000/svg">
<path d="M3.34375 6.58984C3.80959 6.09029 4.37285 5.69148 4.99877 5.41802C5.6247 5.14456 6.29954 5.00243 6.98259 5.00005C7.66564 4.99766 8.34185 5.13532 8.96967 5.4044C9.59749 5.67348 10.1637 6.06827 10.633 6.56456M1.14941 3.54391C1.89476 2.74462 2.79597 2.10653 3.79745 1.66899C4.79893 1.23146 5.88024 1.00386 6.97312 1.00005C8.066 0.996234 9.14754 1.21648 10.1521 1.64701C11.1566 2.07755 12.0617 2.70842 12.8127 3.50248M7 11C6.44772 11 6 10.5523 6 10C6 9.44776 6.44772 9.00005 7 9.00005C7.55228 9.00005 8 9.44776 8 10C8 10.5523 7.55228 11 7 11Z" stroke="black" stroke-width="2" stroke-linecap="round" stroke-linejoin="round"/>
</svg>
