<svg width="18" height="18" viewBox="0 0 18 18" fill="none" xmlns="http://www.w3.org/2000/svg">
<path d="M1 5V13.8C1 14.9201 1 15.4798 1.21799 15.9076C1.40973 16.2839 1.71547 16.5905 2.0918 16.7822C2.5192 17 3.07899 17 4.19691 17H13.8031C14.921 17 15.48 17 15.9074 16.7822C16.2837 16.5905 16.5905 16.2839 16.7822 15.9076C17 15.4802 17 14.921 17 13.8031V5M1 5H17M1 5L2.36518 2.61089C2.7002 2.0246 2.86768 1.73151 3.10325 1.51807C3.31184 1.32907 3.55859 1.18605 3.82617 1.09871C4.12861 1 4.46623 1 5.14258 1H12.8571C13.5334 1 13.8723 1 14.1747 1.09871C14.4423 1.18605 14.6879 1.32907 14.8965 1.51807C15.1322 1.73168 15.3002 2.02507 15.6357 2.6123L17 5M9 8V14M9 14L12 12M9 14L6 12" stroke="black" stroke-width="2" stroke-linecap="round" stroke-linejoin="round"/>
</svg>
