<svg width="20" height="20" viewBox="0 0 20 20" fill="none" xmlns="http://www.w3.org/2000/svg">
<path d="M1 9V17.4C1 17.9601 1 18.2396 1.10899 18.4535C1.20487 18.6417 1.35774 18.7952 1.5459 18.8911C1.7596 19 2.03901 19 2.59797 19L13.4014 19C13.9603 19 14.2408 19 14.4545 18.8911C14.6427 18.7952 14.7948 18.6421 14.8906 18.4539C14.9996 18.24 14.9996 17.96 14.9996 17.3999L15.0011 13.0006M1 9H8M1 9L1 8.6001C1 8.04015 1 7.75979 1.10899 7.5459C1.20486 7.35774 1.35774 7.20486 1.5459 7.10898C1.75977 7.00001 2.03975 7.00001 2.59961 7.00001L5 7M8 9H13.4C13.96 9 14.242 9 14.456 9.10899C14.6441 9.20487 14.7948 9.35774 14.8906 9.5459C14.9996 9.75981 14.9996 10.0398 14.9996 10.5999L15.0011 13.0006M8 9L6.9248 7.61768C6.74861 7.39115 6.66017 7.27743 6.5498 7.1958C6.45201 7.12347 6.34303 7.06979 6.2259 7.037C6.09373 7.00001 5.9488 7.00001 5.66191 7.00001L5 7M5 3H17.4C17.9601 3 18.242 3 18.4559 3.10899C18.6441 3.20487 18.7948 3.35774 18.8906 3.5459C18.9996 3.75981 18.9996 4.03984 18.9996 4.59989V11.3999C18.9996 11.96 18.9996 12.24 18.8906 12.4539C18.7948 12.6421 18.6432 12.7952 18.4551 12.8911C18.2414 13 17.9613 13 17.4023 13L15.0011 13.0006M5 3V7M5 3L5 2.6001C5 2.04014 5 1.75979 5.10899 1.5459C5.20486 1.35774 5.35774 1.20487 5.5459 1.10899C5.75981 1 6.03956 1 6.59961 1H9.66152C9.9487 1 10.0913 1 10.2236 1.03701C10.3407 1.0698 10.452 1.12347 10.5498 1.1958C10.6602 1.27743 10.7486 1.39115 10.9248 1.61768L11.9999 2.99998" stroke="black" stroke-width="2" stroke-linecap="round" stroke-linejoin="round"/>
</svg>
