<svg width="22" height="18" viewBox="0 0 22 18" fill="none" xmlns="http://www.w3.org/2000/svg">
<path d="M15.8031 17L17.793 17C18.2255 17 18.4419 17 18.6236 16.9258C18.784 16.8603 18.9251 16.7538 19.0322 16.6175C19.1535 16.4631 19.2132 16.2555 19.332 15.8395L20.4177 12.0396C20.6156 11.3472 20.714 11.0009 20.6363 10.7271C20.5682 10.4871 20.4131 10.2813 20.2011 10.15C19.9731 10.0087 19.64 10.0005 19.0002 10M15.8031 17H4.19691M15.8031 17C16.921 17 17.48 17 17.9074 16.7822C18.2837 16.5905 18.5905 16.2841 18.7822 15.9078C19.0002 15.48 19.0002 14.9199 19.0002 13.7998V10M4.19691 17H3.12109C2.40152 17 2.04075 17 1.79883 16.8501C1.58683 16.7187 1.43144 16.5129 1.36338 16.2729C1.34904 16.2224 1.34073 16.1694 1.33796 16.1122M4.19691 17C3.07899 17 2.5192 17 2.0918 16.7822C1.78624 16.6265 1.52721 16.3952 1.33796 16.1122M19.0002 10C18.9608 10 18.9203 10 18.8786 10H3.00028L1.58301 14.9604L1.58096 14.9674C1.42083 15.5278 1.32578 15.8605 1.33796 16.1122M19.0002 10L19.0002 6.19978C19.0002 5.07967 19.0002 4.51962 18.7822 4.0918C18.5905 3.71547 18.2839 3.40973 17.9076 3.21799C17.4798 3 16.9201 3 15.8 3H10M1.33796 16.1122C1.29413 16.0467 1.25404 15.9784 1.21799 15.9076C1 15.4798 1 14.9201 1 13.8V3M1 3H10M1 3C1 1.89543 1.89543 1 3 1H6.67452C7.1637 1 7.40886 1 7.63904 1.05526C7.84311 1.10425 8.03785 1.18526 8.2168 1.29492C8.41857 1.41857 8.59181 1.59182 8.9375 1.9375L10 3" stroke="black" stroke-width="2" stroke-linecap="round" stroke-linejoin="round"/>
</svg>
