<svg width="22" height="15" viewBox="0 0 22 15" fill="none" xmlns="http://www.w3.org/2000/svg">
<path d="M5.60035 4H16.4003M5.60035 4C5.04029 4 4.75957 4 4.54566 4.10899C4.3575 4.20487 4.20463 4.35774 4.10875 4.5459C3.99976 4.75981 3.99976 5.04004 3.99976 5.6001V10.8001C3.99976 11.9202 3.99976 12.4804 4.21775 12.9082C4.40949 13.2845 4.71523 13.5905 5.09156 13.7822C5.51896 14 6.07875 14 7.19667 14H14.8025C15.9204 14 16.4794 14 16.9068 13.7822C17.2831 13.5905 17.5902 13.2844 17.782 12.9081C17.9998 12.4807 17.9998 11.9216 17.9998 10.8037V5.59102C17.9998 5.03701 17.9998 4.75865 17.8914 4.5459C17.7955 4.35774 17.6419 4.20487 17.4538 4.10899C17.2398 4 16.9604 4 16.4003 4M5.60035 4H3.97507C3.12597 4 2.70168 4 2.4607 3.85156C2.13911 3.65347 1.95678 3.29079 1.98902 2.91447C2.0132 2.63223 2.26593 2.29089 2.77222 1.60739C2.91866 1.40971 2.99189 1.31084 3.08152 1.23535C3.20104 1.1347 3.34286 1.06322 3.49488 1.02709C3.60889 1 3.73126 1 3.9773 1H18.0217C18.2677 1 18.3904 1 18.5044 1.02709C18.6564 1.06322 18.7982 1.1347 18.9177 1.23535C19.0074 1.31084 19.0809 1.40924 19.2273 1.60693C19.7336 2.29042 19.9867 2.63218 20.0109 2.91442C20.0432 3.29074 19.8602 3.65347 19.5386 3.85156C19.2976 4 18.8723 4 18.0232 4H16.4003M8.99976 9H12.9998" stroke="black" stroke-width="2" stroke-linecap="round" stroke-linejoin="round"/>
</svg>
