<svg width="20" height="19" viewBox="0 0 20 19" fill="none" xmlns="http://www.w3.org/2000/svg">
<path d="M19 6.25V6.2C19 5.0799 19 4.51984 18.782 4.09202C18.5903 3.7157 18.2843 3.40974 17.908 3.21799C17.4802 3 16.9201 3 15.8 3L1 3M1 3L1 13.8C1 14.9201 1 15.4802 1.21799 15.908C1.40973 16.2843 1.7157 16.5903 2.09202 16.782C2.51984 17 3.0799 17 4.2 17H5M1 3L1 2.6C1 2.03995 1 1.75992 1.109 1.54601C1.20487 1.35785 1.35785 1.20487 1.54601 1.10899C1.75992 1 2.03995 1 2.6 1H7.33726C7.58185 1 7.70415 1 7.81923 1.02763C7.92127 1.05213 8.01882 1.09253 8.10829 1.14736C8.2092 1.2092 8.29568 1.29568 8.46863 1.46863L10 3M14 11L16 13M9 18V15.5L16.5 8L19 10.5L11.5 18H9Z" stroke="black" stroke-width="2" stroke-linecap="round" stroke-linejoin="round"/>
</svg>
