<svg width="20" height="20" viewBox="0 0 20 20" fill="none" xmlns="http://www.w3.org/2000/svg">
<path d="M16.9199 15.1583L17.0478 13.5593C17.08 13.1564 17.2388 12.7743 17.5009 12.4667L18.541 11.2449C19.1527 10.527 19.1526 9.47164 18.5409 8.75382L17.5008 7.53271C17.2387 7.2251 17.0796 6.84259 17.0475 6.43972L16.9204 4.84093C16.8453 3.9008 16.0986 3.15403 15.1585 3.07901L13.5594 2.95108C13.1566 2.91893 12.7746 2.76143 12.467 2.49929L11.246 1.45879C10.5282 0.847069 9.47178 0.847069 8.75396 1.45879L7.53285 2.49883C7.22525 2.76097 6.84274 2.91981 6.43987 2.95196L4.84077 3.07957M16.9208 15.159C16.8458 16.0991 16.0993 16.8457 15.1591 16.9207M15.1586 16.9197L13.5595 17.0473C13.1567 17.0795 12.7744 17.2376 12.4667 17.4997L11.246 18.5407C10.5282 19.1525 9.47168 19.1525 8.75386 18.5408L7.53316 17.5008C7.22555 17.2386 6.84325 17.0798 6.44038 17.0477L4.84077 16.9197M4.84173 16.9207C3.90159 16.8457 3.15505 16.0991 3.08003 15.159L2.9521 13.5594C2.91995 13.1565 2.76111 12.7742 2.49898 12.4666L1.45894 11.2459C0.847212 10.5281 0.846926 9.47154 1.45865 8.75372L2.49963 7.53301C2.76176 7.22541 2.91908 6.84311 2.95122 6.44024L3.07915 4.84063M3.08003 4.84158C3.15505 3.90145 3.9016 3.15491 4.84173 3.07989" stroke="black" stroke-width="2" stroke-linecap="round" stroke-linejoin="round"/>
</svg>
