<svg width="20" height="20" viewBox="0 0 20 20" fill="none" xmlns="http://www.w3.org/2000/svg">
<path d="M12.4053 19H7.59375C7.10457 19 6.86006 18.9996 6.62988 18.9443C6.42581 18.8953 6.23099 18.815 6.05204 18.7053C5.85021 18.5817 5.67763 18.4091 5.33173 18.0632L1.9375 14.6689C1.59182 14.3233 1.41857 14.15 1.29492 13.9482C1.18526 13.7693 1.10425 13.5743 1.05526 13.3702C1 13.14 1 12.8945 1 12.4053V7.59375C1 7.10457 1 6.86006 1.05526 6.62988C1.10425 6.42581 1.18526 6.23098 1.29492 6.05204C1.41748 5.85205 1.58846 5.68107 1.92809 5.34144L1.9375 5.33173L5.33173 1.9375L5.3414 1.92813C5.68106 1.58847 5.85204 1.41748 6.05204 1.29492C6.23099 1.18526 6.42581 1.10425 6.62988 1.05526C6.86006 1 7.10457 1 7.59375 1H12.4053C12.8945 1 13.14 1 13.3702 1.05526C13.5743 1.10425 13.7693 1.18526 13.9482 1.29492C14.15 1.41857 14.3233 1.59181 14.6689 1.9375L18.0632 5.33173C18.409 5.67759 18.5817 5.85022 18.7053 6.05205C18.815 6.23099 18.8953 6.42581 18.9443 6.62988C18.9996 6.86006 19 7.10457 19 7.59375V12.4053M18.9996 12.4062C18.9996 12.8954 18.9996 13.14 18.9443 13.3702C18.8953 13.5743 18.815 13.7693 18.7053 13.9482C18.5817 14.1501 18.4091 14.323 18.0632 14.6689L14.6689 18.0632C14.323 18.4091 14.1501 18.5817 13.9482 18.7053C13.7693 18.815 13.5743 18.8953 13.3702 18.9443C13.14 18.9996 12.8954 18.9996 12.4062 18.9996" stroke="black" stroke-width="2" stroke-linecap="round" stroke-linejoin="round"/>
</svg>
