<svg width="78" height="78" viewBox="0 0 78 78" fill="none" xmlns="http://www.w3.org/2000/svg">
<path d="M39 75C46.9607 75 53.1531 74.5696 57.9922 73.4941C62.7972 72.4263 66.0825 70.7632 68.4229 68.4229C70.7632 66.0825 72.4263 62.7972 73.4941 57.9922C74.5696 53.1531 75 46.9607 75 39C75 31.0393 74.5696 24.8469 73.4941 20.0078C72.4263 15.2028 70.7632 11.9175 68.4229 9.57715C66.0825 7.23684 62.7972 5.57374 57.9922 4.50586C53.1531 3.43041 46.9607 3 39 3C31.0393 3 24.8469 3.43041 20.0078 4.50586C15.2028 5.57374 11.9175 7.23684 9.57715 9.57715C7.23684 11.9175 5.57374 15.2028 4.50586 20.0078C3.43041 24.8469 3 31.0393 3 39C3 46.9607 3.43041 53.1531 4.50586 57.9922C5.57374 62.7972 7.23684 66.0825 9.57715 68.4229C11.9175 70.7632 15.2028 72.4263 20.0078 73.4941C24.8469 74.5696 31.0393 75 39 75Z" stroke="#ABAFD1" stroke-width="6" stroke-linecap="round" stroke-linejoin="round"/>
<path d="M26 32.5L19.5 39L26 45.5" stroke="#ABAFD1" stroke-width="6" stroke-linecap="round" stroke-linejoin="round"/>
<path d="M52 32.5L58.5 39L52 45.5" stroke="#ABAFD1" stroke-width="6" stroke-linecap="round" stroke-linejoin="round"/>
<path d="M35.75 56.0575L42.2243 22.7499" stroke="#ABAFD1" stroke-width="6" stroke-linecap="round"/>
</svg>
