<svg width="19" height="20" viewBox="0 0 19 20" fill="none" xmlns="http://www.w3.org/2000/svg">
<path d="M6 15V16C6 17.6569 7.3431 19 9 19C10.6569 19 12 17.6569 12 16V15M6 15L12 15M6 15L2.00022 15.0002C1.48738 15.0002 1.06449 14.6141 1.00673 14.1168L1 13.9998V13.4141C1 13.1489 1.10544 12.8949 1.29297 12.7073L1.80371 12.1963C1.92939 12.0706 2 11.9003 2 11.7225V7.99986C2 6.15821 2.7112 4.48267 3.87393 3.23291M12 15L15.9999 15M2 1L18 17M15.9995 10.999L16.0004 8C16.0004 4.13402 12.8665 1 9.00049 1L8.75977 1.00406C7.95483 1.03125 7.18449 1.19404 6.4707 1.47081" stroke="black" stroke-width="2" stroke-linecap="round" stroke-linejoin="round"/>
</svg>
