<svg width="20" height="20" viewBox="0 0 20 20" fill="none" xmlns="http://www.w3.org/2000/svg">
<path d="M10 13V10M10 10V7M10 10H7M10 10H13M10.0001 19C8.36502 19 6.83174 18.5639 5.51025 17.8018C5.3797 17.7265 5.31434 17.6888 5.25293 17.6719C5.19578 17.6561 5.14475 17.6507 5.08559 17.6548C5.02253 17.6591 4.9573 17.6808 4.82759 17.7241L2.51807 18.4939L2.51625 18.4947C2.02892 18.6572 1.7848 18.7386 1.62256 18.6807C1.4812 18.6303 1.36979 18.5187 1.31938 18.3774C1.26157 18.2152 1.34268 17.9719 1.50489 17.4853L1.50586 17.4823L2.27468 15.1758L2.27651 15.171C2.31936 15.0424 2.34106 14.9773 2.34535 14.9146C2.3494 14.8554 2.34401 14.804 2.32821 14.7469C2.31146 14.6863 2.27448 14.6221 2.20114 14.495L2.19819 14.4899C1.43604 13.1684 1 11.6351 1 10C1 5.02944 5.02944 1 10 1C14.9706 1 19 5.02944 19 10C19 14.9706 14.9707 19 10.0001 19Z" stroke="black" stroke-width="2" stroke-linecap="round" stroke-linejoin="round"/>
</svg>
