<svg width="20" height="24" viewBox="0 0 20 24" fill="none" xmlns="http://www.w3.org/2000/svg">
<path fill-rule="evenodd" clip-rule="evenodd" d="M3.33737 0H16.6626C19.4078 0 20.9748 3.2669 19.3277 5.55616L13.7755 13.2731C13.4872 13.6738 13.3313 14.1612 13.3313 14.6621V19.7513C13.3313 20.7461 13.0386 21.0899 12.5322 21.5298L10.3113 23.459C8.86481 24.7155 6.66868 23.6433 6.66868 21.6805V14.6621C6.66868 14.1612 6.51283 13.6738 6.22451 13.2731L0.672312 5.55616C-0.974782 3.2669 0.592209 0 3.33737 0ZM7 4C6.44772 4 6 4.44772 6 5C6 5.55228 6.44772 6 7 6H13C13.5523 6 14 5.55228 14 5C14 4.44772 13.5523 4 13 4H7Z" fill="#212135"/>
</svg>
