<svg width="24" height="24" viewBox="0 0 24 24" fill="none" xmlns="http://www.w3.org/2000/svg">
<path fill-rule="evenodd" clip-rule="evenodd" d="M4.9756 1.88811C7.17069 -0.629246 16.8293 -0.629494 19.0244 1.88811C19.4525 2.37906 19.7136 3.29122 19.8566 4.44165C23.1216 5.03829 24 6.34829 24 9.00002C24 11.84 22.9924 13.141 19.1244 13.6749C17.9947 15.9999 15.6789 17.6148 13 17.9397V22H15C15.5523 22 16 22.4477 16 23C16 23.5523 15.5523 24 15 24H9C8.44771 24 8 23.5523 8 23C8 22.4477 8.44771 22 9 22H11V17.9397C8.29435 17.6115 5.95906 15.9675 4.84212 13.605C4.85317 13.6284 4.86433 13.6517 4.87562 13.6749C1.00763 13.141 0 11.84 0 9.00002C0 6.34829 0.878446 5.03829 4.14343 4.44165C4.28642 3.29119 4.54753 2.37902 4.9756 1.88811ZM4.00686 6.51115C3.62309 6.60005 3.3135 6.69793 3.06348 6.80211C2.51426 7.03095 2.34242 7.24969 2.25002 7.42294C2.12217 7.66263 2 8.1061 2 9.00002C2 9.89393 2.12217 10.3374 2.25002 10.5771C2.34242 10.7503 2.51426 10.9691 3.06348 11.1979C3.35802 11.3207 3.73522 11.4346 4.219 11.5355C4.19459 11.3675 4.17576 11.1973 4.1627 11.0252C4.04771 9.50911 3.97697 7.93401 4.00686 6.51115ZM19.7805 11.5393L19.781 11.5355C20.2648 11.4346 20.642 11.3207 20.9365 11.1979C21.4857 10.9691 21.6576 10.7503 21.75 10.5771C21.8778 10.3374 22 9.89393 22 9.00002C22 8.1061 21.8778 7.66263 21.75 7.42294C21.6576 7.24969 21.4857 7.03095 20.9365 6.80211C20.6865 6.69793 20.3769 6.60005 19.9931 6.51115C20.023 7.93402 19.9523 9.50913 19.8373 11.0252C19.8241 11.1986 19.8051 11.37 19.7805 11.5393Z" fill="#212135"/>
</svg>
