<svg width="24" height="16" viewBox="0 0 24 16" fill="none" xmlns="http://www.w3.org/2000/svg">
<path fill-rule="evenodd" clip-rule="evenodd" d="M0 8C0 15.0588 1 16 12 16C23 16 24 15.0588 24 8C24 0.941176 23 0 12 0C1 0 0 0.941176 0 8ZM7.63636 11.4286C7.03387 11.4286 6.54545 10.9169 6.54545 10.2857C6.54545 9.65453 7.03387 9.14286 7.63636 9.14286L16.3636 9.14286C16.9661 9.14286 17.4545 9.65453 17.4545 10.2857C17.4545 10.9169 16.9661 11.4286 16.3636 11.4286L7.63636 11.4286ZM18.5455 10.2857C18.5455 10.9169 19.0339 11.4286 19.6364 11.4286C20.2389 11.4286 20.7273 10.9169 20.7273 10.2857C20.7273 9.65453 20.2389 9.14286 19.6364 9.14286C19.0339 9.14286 18.5455 9.65453 18.5455 10.2857ZM4.36364 11.4286C3.76114 11.4286 3.27273 10.9169 3.27273 10.2857C3.27273 9.65453 3.76114 9.14286 4.36364 9.14286C4.96613 9.14286 5.45455 9.65453 5.45455 10.2857C5.45455 10.9169 4.96613 11.4286 4.36364 11.4286ZM9.81818 5.71429C9.81818 6.34547 10.3066 6.85714 10.9091 6.85714C11.5116 6.85714 12 6.34547 12 5.71429C12 5.0831 11.5116 4.57143 10.9091 4.57143C10.3066 4.57143 9.81818 5.0831 9.81818 5.71429ZM7.63636 6.85714C7.03387 6.85714 6.54545 6.34547 6.54545 5.71429C6.54545 5.0831 7.03387 4.57143 7.63636 4.57143C8.23886 4.57143 8.72727 5.0831 8.72727 5.71429C8.72727 6.34547 8.23886 6.85714 7.63636 6.85714ZM3.27273 5.71429C3.27273 6.34547 3.76114 6.85714 4.36364 6.85714C4.96613 6.85714 5.45455 6.34547 5.45455 5.71429C5.45455 5.0831 4.96613 4.57143 4.36364 4.57143C3.76114 4.57143 3.27273 5.0831 3.27273 5.71429ZM14.1818 6.85714C13.5793 6.85714 13.0909 6.34547 13.0909 5.71429C13.0909 5.0831 13.5793 4.57143 14.1818 4.57143C14.7843 4.57143 15.2727 5.0831 15.2727 5.71429C15.2727 6.34547 14.7843 6.85714 14.1818 6.85714ZM16.3636 5.71429C16.3636 6.34547 16.8521 6.85714 17.4545 6.85714L19.6364 6.85714C20.2389 6.85714 20.7273 6.34547 20.7273 5.71429C20.7273 5.0831 20.2389 4.57143 19.6364 4.57143L17.4545 4.57143C16.8521 4.57143 16.3636 5.0831 16.3636 5.71429Z" fill="#212135"/>
</svg>
