<svg width="24" height="26" viewBox="0 0 24 26" fill="none" xmlns="http://www.w3.org/2000/svg">
<path d="M15 1C15 0.447708 15.4477 0 16 0C16.5523 0 17 0.447708 17 1V5C17 5.55229 16.5523 6 16 6C15.4477 6 15 5.55229 15 5V1Z" fill="#212135"/>
<path d="M14 2.03444C13.3715 2.0108 12.7056 2 12 2C11.2944 2 10.6285 2.0108 10 2.03444V5C10 6.10457 9.10455 7 8 7C6.89545 7 6 6.10457 6 5V2.47565C2.49231 3.24272 0.907471 5.07202 0.308044 8.90092C0.216431 9.4861 0.682434 10 1.27472 10H22.7253C23.3176 10 23.7836 9.4861 23.692 8.90092C23.0925 5.07202 21.5077 3.24272 18 2.47565V5C18 6.10457 17.1046 7 16 7C14.8954 7 14 6.10457 14 5V2.03444Z" fill="#212135"/>
<path fill-rule="evenodd" clip-rule="evenodd" d="M0 14C0 23.882 2.11798 26 12 26C21.882 26 24 23.882 24 14C24 13.7654 23.9988 13.5352 23.9963 13.3094C23.9951 13.1927 23.9935 13.0771 23.9915 12.9627C23.9823 12.4251 23.5401 12 23.0025 12H0.997498C0.4599 12 0.0177002 12.4251 0.00848389 12.9627C0.00274658 13.2986 0 13.6443 0 14ZM6 15C5.44769 15 5 15.4477 5 16C5 16.5523 5.44769 17 6 17H9C9.55231 17 10 16.5523 10 16C10 15.4477 9.55231 15 9 15H6ZM5 20C5 19.4477 5.44769 19 6 19H9C9.55231 19 10 19.4477 10 20C10 20.5523 9.55231 21 9 21H6C5.44769 21 5 20.5523 5 20ZM17.2929 15.2863C17.6834 14.8958 18.3166 14.8958 18.7071 15.2863C19.0977 15.6768 19.0977 16.31 18.7071 16.7005L17.4142 17.9934L18.7155 19.2946C19.106 19.6852 19.106 20.3183 18.7155 20.7088C18.3249 21.0994 17.6918 21.0994 17.3013 20.7088L16 19.4076L14.6988 20.7088C14.3083 21.0994 13.6751 21.0994 13.2846 20.7088C12.8941 20.3183 12.8941 19.6852 13.2846 19.2946L14.5858 17.9934L13.2929 16.7005C12.9024 16.31 12.9024 15.6768 13.2929 15.2863C13.6834 14.8958 14.3166 14.8958 14.7071 15.2863L16 16.5792L17.2929 15.2863Z" fill="#212135"/>
<path d="M7 1C7 0.447708 7.44769 0 8 0C8.55231 0 9 0.447708 9 1V5C9 5.55229 8.55231 6 8 6C7.44769 6 7 5.55229 7 5V1Z" fill="#212135"/>
</svg>
