<svg width="24" height="24" viewBox="0 0 24 24" fill="none" xmlns="http://www.w3.org/2000/svg">
<path d="M6.44721 0.105792C5.95324 -0.141197 5.35256 0.059027 5.10557 0.553005C4.85858 1.04698 5.05881 1.64766 5.55279 1.89465L9.12955 3.68303C9.31497 3.77574 9.25319 4.05778 9.04618 4.06879C1.68269 4.46023 0 6.66012 0 14.0002C0 22.2352 2.118 24.0002 12 24.0002C21.882 24.0002 24 22.2352 24 14.0002C24 6.66012 22.3173 4.46023 14.9538 4.06879C14.7468 4.05778 14.685 3.77574 14.8704 3.68303L18.4472 1.89465C18.9412 1.64766 19.1414 1.04698 18.8944 0.553005C18.6474 0.059027 18.0468 -0.141197 17.5528 0.105792L12.0894 2.83746C12.0331 2.86562 11.9669 2.86562 11.9106 2.83746L6.44721 0.105792Z" fill="#212135"/>
</svg>
