<svg width="24" height="14" viewBox="0 0 24 14" fill="none" xmlns="http://www.w3.org/2000/svg">
<path fill-rule="evenodd" clip-rule="evenodd" d="M0.441643 8.10641C-0.147214 7.46563 -0.147215 6.53437 0.441643 5.89359C2.25469 3.92067 6.54403 0 12 0C17.456 0 21.7453 3.92067 23.5584 5.89359C24.1472 6.53437 24.1472 7.46563 23.5584 8.10641C21.7453 10.0793 17.456 14 12 14C6.54403 14 2.25469 10.0793 0.441643 8.10641ZM7.09773 7.70711C6.69102 7.31658 6.69102 6.68342 7.09773 6.29289C7.50445 5.90237 8.16386 5.90237 8.57058 6.29289C10.5939 8.2357 13.4061 8.2357 15.4294 6.29289C15.8361 5.90237 16.4956 5.90237 16.9023 6.29289C17.309 6.68342 17.309 7.31658 16.9023 7.70711C14.0655 10.431 9.93452 10.431 7.09773 7.70711Z" fill="#212135"/>
</svg>
