<svg width="24" height="24" viewBox="0 0 24 24" fill="none" xmlns="http://www.w3.org/2000/svg">
<path fill-rule="evenodd" clip-rule="evenodd" d="M19 18.0857C19 18.7415 19.6265 19.2257 20.2302 18.9695C23.1892 17.7136 24 15.0952 24 10C24 1.765 21.882 0 12 0C2.118 0 0 1.765 0 10C0 15.0952 0.810827 17.7136 3.76983 18.9695C4.37351 19.2257 5 18.7415 5 18.0857V17C5 15.8954 5.89543 15 7 15H17C18.1046 15 19 15.8954 19 17V18.0857ZM5 10C4.44772 10 4 10.4477 4 11C4 11.5523 4.44772 12 5 12H19C19.5523 12 20 11.5523 20 11C20 10.4477 19.5523 10 19 10H5Z" fill="#212135"/>
<path d="M15 17C15 16.4477 15.4477 16 16 16C16.5523 16 17 16.4477 17 17C17 17.4978 17.0148 18.2559 17.1614 18.9045C17.2352 19.2305 17.3974 19.6155 17.563 19.9479C17.6425 20.1075 17.7166 20.2427 17.7702 20.337C17.7969 20.3839 17.8182 20.4202 17.8323 20.4438L17.8475 20.4691L17.8501 20.4734L17 21C17.8501 20.4734 17.85 20.4733 17.8501 20.4734L17.8507 20.4743C18.1408 20.9437 17.9958 21.5595 17.5266 21.8501C17.0571 22.1409 16.4407 21.9961 16.1499 21.5266L16.9601 21.0247C16.1499 21.5266 16.15 21.5267 16.1499 21.5266L16.1493 21.5256L16.1484 21.5242L16.146 21.5203L16.1386 21.5082L16.1142 21.4676C16.0938 21.4334 16.0656 21.3854 16.0316 21.3256C15.9638 21.2063 15.8719 21.0384 15.7729 20.8398C15.5815 20.4555 15.3367 19.9031 15.2107 19.3455C15.0102 18.4587 15 17.5022 15 17Z" fill="#212135"/>
<path d="M8 16C8.55229 16 9 16.4477 9 17C9 17.5022 8.98982 18.4587 8.78932 19.3455C8.66325 19.9031 8.41855 20.4555 8.22712 20.8398C8.12814 21.0384 8.03618 21.2063 7.96839 21.3256C7.93438 21.3854 7.90616 21.4334 7.88581 21.4676L7.86136 21.5082L7.85399 21.5203L7.8516 21.5242L7.85074 21.5256C7.85067 21.5257 7.85011 21.5266 7.03991 21.0247L7.85011 21.5266C7.55927 21.9961 6.94289 22.1409 6.47339 21.8501C6.00419 21.5595 5.85924 20.9437 6.14934 20.4743C6.1494 20.4742 6.14989 20.4734 7 21L6.14989 20.4734L6.15253 20.4691L6.16775 20.4438C6.18177 20.4202 6.20309 20.3839 6.22978 20.337C6.28339 20.2427 6.35745 20.1075 6.43699 19.9479C6.60258 19.6155 6.76485 19.2305 6.83856 18.9045C6.98518 18.2559 7 17.4978 7 17C7 16.4477 7.44772 16 8 16Z" fill="#212135"/>
<path d="M12 16C11.4477 16 11 16.4477 11 17V23C11 23.5523 11.4477 24 12 24C12.5523 24 13 23.5523 13 23V17C13 16.4477 12.5523 16 12 16Z" fill="#212135"/>
</svg>
