<svg width="29" height="20" viewBox="0 0 29 20" fill="none" xmlns="http://www.w3.org/2000/svg">
<path fill-rule="evenodd" clip-rule="evenodd" d="M11 20C1.9415 20 0 18.235 0 10C0 1.765 1.9415 0 11 0C17.0689 0 19.9433 0.79224 21.1796 3.79163C22.8314 2.51827 24.362 1.89514 25.6924 2.01428C26.5046 2.08701 27.1997 2.43643 27.7184 3.01076C28.2234 3.56999 28.5178 4.29229 28.652 5.06591C29.1143 7.73198 29.1161 11.9024 28.6568 14.5648C28.5476 15.4955 28.2843 16.3312 27.7837 16.9583C27.2466 17.6313 26.5003 17.9817 25.6469 17.9993C24.84 18.0159 23.9877 17.737 23.1335 17.2816C22.5386 16.9644 21.9098 16.544 21.2513 16.0271C20.0562 19.176 17.1894 20 11 20ZM21.7779 13.8677C22.6503 14.6251 23.4185 15.1671 24.0744 15.5167C24.7695 15.8873 25.2726 16.0066 25.6057 15.9997C25.8921 15.9938 26.0703 15.8989 26.2205 15.7107C26.4019 15.4835 26.5885 15.0533 26.673 14.309L26.6764 14.2794L26.6816 14.25C27.1061 11.8171 27.1063 7.85798 26.6814 5.40761C26.5933 4.8997 26.4221 4.55947 26.2341 4.35118C26.0596 4.15802 25.8341 4.03497 25.5141 4.00631C24.8138 3.9436 23.5569 4.33908 21.7447 5.91393C21.9274 7.05663 22 8.40731 22 10C22 11.4924 21.9362 12.7723 21.7779 13.8677Z" fill="#212135"/>
</svg>
