<svg width="20" height="24" viewBox="0 0 20 24" fill="none" xmlns="http://www.w3.org/2000/svg">
<path fill-rule="evenodd" clip-rule="evenodd" d="M2 1C2 0.447715 2.44772 0 3 0H17C17.5523 0 18 0.447715 18 1C18 1.55228 17.5523 2 17 2H11V4.00961C18.3796 4.15902 20 6.10954 20 14C20 22.235 18.235 24 10 24C1.765 24 0 22.235 0 14C0 6.10954 1.6204 4.15902 9 4.00961V2H3C2.44772 2 2 1.55228 2 1ZM5.55556 12.2188C5.24873 12.2188 5 12.4675 5 12.7743C5 13.0811 5.24873 13.3299 5.55555 13.3299H6.11106V14.9965C6.11106 15.3034 6.35979 15.5521 6.66661 15.5521C6.97344 15.5521 7.22217 15.3034 7.22217 14.9965V13.3299H7.77778C8.08091 13.3299 8.32734 13.0871 8.33323 12.7854V14.9965C8.33323 15.3034 8.58196 15.5521 8.88878 15.5521C9.19561 15.5521 9.44434 15.3034 9.44434 14.9965V14.1148L10.7009 15.3714C10.8025 15.4824 10.9486 15.5521 11.1109 15.5521C11.4178 15.5521 11.6665 15.3034 11.6665 14.9965V12.7743C11.6665 13.0811 11.9152 13.3299 12.2221 13.3299H12.7776V14.9965C12.7776 15.3034 13.0263 15.5521 13.3331 15.5521C13.6399 15.5521 13.8887 15.3034 13.8887 14.9965V13.3299H14.4443C14.7511 13.3299 14.9998 13.0811 14.9998 12.7743C14.9998 12.4675 14.7511 12.2188 14.4443 12.2188H12.2221C11.9152 12.2188 11.6665 12.4675 11.6665 12.7743C11.6665 12.4675 11.4178 12.2188 11.1109 12.2188C10.8041 12.2188 10.5554 12.4675 10.5554 12.7743V13.6545L9.29372 12.3928C9.28757 12.3867 9.28132 12.3807 9.27497 12.3749C9.175 12.2782 9.03884 12.2188 8.88878 12.2188C8.58453 12.2188 8.3374 12.4633 8.33328 12.7666C8.32916 12.4633 8.08203 12.2188 7.77778 12.2188H5.55556Z" fill="#212135"/>
</svg>
