<svg width="24" height="24" viewBox="0 0 24 24" fill="none" xmlns="http://www.w3.org/2000/svg">
<path d="M0 12C0 18.5005 0.916507 21.6414 4.35667 23.0298C4.67013 23.1563 5 22.9155 5 22.5775V9.5C5 9.22386 4.77614 9 4.5 9H0.553704C0.290198 9 0.0715861 9.20443 0.0580598 9.46759C0.017892 10.2491 0 11.0917 0 12Z" fill="#212135"/>
<path d="M12 24C10.2396 24 8.72558 23.9328 7.42603 23.7664C7.18068 23.735 7 23.5243 7 23.2769V9.5C7 9.22386 7.22386 9 7.5 9H23.4463C23.7098 9 23.9284 9.20443 23.9419 9.46759C23.9821 10.2491 24 11.0917 24 12C24 21.882 21.882 24 12 24Z" fill="#212135"/>
<path fill-rule="evenodd" clip-rule="evenodd" d="M12 0C19.6494 0 22.6467 1.26908 23.6106 6.42594C23.6668 6.72657 23.432 7 23.1261 7H0.873883C0.568044 7 0.333246 6.72657 0.389439 6.42594C1.35333 1.26908 4.35062 0 12 0ZM5 5C4.44772 5 4 4.55228 4 4C4 3.44772 4.44772 3 5 3C5.55228 3 6 3.44772 6 4C6 4.55228 5.55228 5 5 5ZM8 5C7.44772 5 7 4.55228 7 4C7 3.44772 7.44772 3 8 3C8.55228 3 9 3.44772 9 4C9 4.55228 8.55228 5 8 5ZM10 4C10 4.55228 10.4477 5 11 5C11.5523 5 12 4.55228 12 4C12 3.44772 11.5523 3 11 3C10.4477 3 10 3.44772 10 4Z" fill="#212135"/>
</svg>
