<svg width="24" height="24" viewBox="0 0 24 24" fill="none" xmlns="http://www.w3.org/2000/svg">
<path d="M9 12C9 12.9837 9.05532 13.6377 9.15459 14.0844C9.24882 14.5084 9.35409 14.6138 9.37015 14.6298C9.38621 14.6459 9.4916 14.7512 9.91558 14.8454C10.3623 14.9447 11.0163 15 12 15C12.9837 15 13.6377 14.9447 14.0844 14.8454C14.5084 14.7512 14.6138 14.6459 14.6298 14.6298C14.6459 14.6138 14.7512 14.5084 14.8454 14.0844C14.9447 13.6377 15 12.9837 15 12C15 11.0163 14.9447 10.3623 14.8454 9.91558C14.7512 9.4916 14.6459 9.38621 14.6298 9.37015C14.6138 9.35409 14.5084 9.24882 14.0844 9.15459C13.6377 9.05532 12.9837 9 12 9C11.0163 9 10.3623 9.05532 9.91558 9.15459C9.4916 9.24882 9.38621 9.35409 9.37015 9.37015C9.35409 9.38621 9.24882 9.4916 9.15459 9.91558C9.05532 10.3623 9 11.0163 9 12Z" fill="#212135"/>
<path fill-rule="evenodd" clip-rule="evenodd" d="M12 24C2.118 24 0 21.882 0 12C0 2.118 2.118 0 12 0C21.882 0 24 2.118 24 12C24 21.882 21.882 24 12 24ZM7 12C7 16.1175 7.8825 17 12 17C16.1175 17 17 16.1175 17 12C17 7.8825 16.1175 7 12 7C7.8825 7 7 7.8825 7 12Z" fill="#212135"/>
</svg>
