<svg width="24" height="24" viewBox="0 0 24 24" fill="none" xmlns="http://www.w3.org/2000/svg">
<path d="M2.56597 21.3152C4.4368 23.2341 7.45248 24 12 24C16.5475 24 19.5632 23.2341 21.434 21.3152C19.8026 20.5501 18.4614 19.2199 17.5196 17.5457L15.9493 17.9665C15.4158 18.1094 14.8675 17.7928 14.7246 17.2593C14.5816 16.7259 14.8982 16.1775 15.4317 16.0346L16.6912 15.6971C16.3964 14.8458 16.1907 13.94 16.0843 13H14.9468C14.3945 13 13.9468 12.5523 13.9468 12C13.9468 11.4477 14.3945 11 14.9468 11H16.0093C16.0453 10.0314 16.1855 9.09018 16.4197 8.19727L15.4333 7.93295C14.8998 7.79001 14.5832 7.24167 14.7262 6.7082C14.8691 6.17474 15.4174 5.85815 15.9509 6.0011L17.0884 6.30589C17.9096 4.4949 19.1623 3.0019 20.7316 2.05941C18.8384 0.59757 16.0168 0 12 0C7.98324 0 5.16161 0.59757 3.26843 2.05941C4.82096 2.99181 6.06356 4.46301 6.88509 6.24787L7.87485 5.98267C8.40831 5.83972 8.95665 6.15631 9.09959 6.68977C9.24253 7.22324 8.92595 7.77157 8.39248 7.91452L7.56416 8.13647C7.80805 9.04742 7.9539 10.0094 7.99072 11H8.94678C9.49906 11 9.94678 11.4477 9.94678 12C9.94678 12.5523 9.49906 13 8.94678 13H7.91574C7.80677 13.9619 7.59394 14.8881 7.28802 15.7566L8.37949 16.0491C8.91296 16.192 9.22954 16.7404 9.0866 17.2738C8.94366 17.8073 8.39532 18.1239 7.86185 17.9809L6.44842 17.6022C5.50835 19.2498 4.17901 20.5588 2.56597 21.3152Z" fill="#212135"/>
<path d="M1.36731 19.6459C2.56666 19.1706 3.63166 18.2749 4.43719 17.0633L3.99354 16.9444C3.46007 16.8015 3.14349 16.2532 3.28643 15.7197C3.42937 15.1862 3.97771 14.8696 4.51117 15.0126L5.35779 15.2394C5.61346 14.5483 5.79982 13.7983 5.904 13H4.94678C4.39449 13 3.94678 12.5523 3.94678 12C3.94678 11.4477 4.39449 11 4.94678 11H5.98958C5.95484 10.1707 5.83404 9.3846 5.63974 8.65211L4.53777 8.94738C4.00431 9.09033 3.45597 8.77374 3.31303 8.24028C3.17009 7.70681 3.48667 7.15847 4.02013 7.01553L4.92565 6.7729C4.1814 5.3154 3.1001 4.20242 1.84121 3.56717C0.537829 5.45427 0 8.18931 0 12C0 15.3108 0.405986 17.8097 1.36731 19.6459Z" fill="#212135"/>
<path d="M24 12C24 15.3108 23.594 17.8097 22.6327 19.6459C21.4152 19.1634 20.3361 18.2477 19.5264 17.008L19.8083 16.9325C20.3417 16.7895 20.6583 16.2412 20.5154 15.7077C20.3724 15.1742 19.8241 14.8577 19.2906 15.0006L18.6205 15.1802C18.376 14.5055 18.1972 13.7755 18.096 13H18.9468C19.4991 13 19.9468 12.5523 19.9468 12C19.9468 11.4477 19.4991 11 18.9468 11H18.0104C18.0442 10.1936 18.1593 9.42808 18.3443 8.71296L19.2971 8.96826C19.8306 9.1112 20.3789 8.79462 20.5219 8.26115C20.6648 7.72769 20.3482 7.17935 19.8148 7.03641L19.0453 6.83024C19.7904 5.34459 20.8834 4.21072 22.1588 3.56717C23.4622 5.45427 24 8.18931 24 12Z" fill="#212135"/>
</svg>
