<svg width="22" height="24" viewBox="0 0 22 24" fill="none" xmlns="http://www.w3.org/2000/svg">
<path d="M11 7C11.5523 7 12 6.55228 12 6C12 5.44772 11.5523 5 11 5C10.4477 5 10 5.44772 10 6C10 6.55228 10.4477 7 11 7Z" fill="#212135"/>
<path d="M14 16C14 17.6569 12.6569 19 11 19C9.34315 19 8 17.6569 8 16C8 14.3431 9.34315 13 11 13C12.6569 13 14 14.3431 14 16Z" fill="#212135"/>
<path fill-rule="evenodd" clip-rule="evenodd" d="M0 12C0 21.882 1.9415 24 11 24C20.0585 24 22 21.882 22 12C22 2.118 20.0585 0 11 0C1.9415 0 0 2.118 0 12ZM11 9C12.6569 9 14 7.65685 14 6C14 4.34315 12.6569 3 11 3C9.34315 3 8 4.34315 8 6C8 7.65685 9.34315 9 11 9ZM16 16C16 18.7614 13.7614 21 11 21C8.23858 21 6 18.7614 6 16C6 13.2386 8.23858 11 11 11C13.7614 11 16 13.2386 16 16Z" fill="#212135"/>
</svg>
