<svg width="24" height="24" viewBox="0 0 24 24" fill="none" xmlns="http://www.w3.org/2000/svg">
<path fill-rule="evenodd" clip-rule="evenodd" d="M12 24C2.118 24 0 21.882 0 12C0 2.118 2.118 0 12 0C21.882 0 24 2.118 24 12C24 21.882 21.882 24 12 24ZM12 2C9.92725 2 8.30225 2.09684 7.0164 2.31557C7.1741 3.82409 8.44972 5 10 5H14C15.5503 5 16.8259 3.82409 16.9836 2.31557C15.6978 2.09684 14.0727 2 12 2ZM9 18C8.44772 18 8 18.4477 8 19C8 19.5523 8.44772 20 9 20H15C15.5523 20 16 19.5523 16 19C16 18.4477 15.5523 18 15 18H9Z" fill="#212135"/>
</svg>
