<svg width="24" height="24" viewBox="0 0 24 24" fill="none" xmlns="http://www.w3.org/2000/svg">
<path fill-rule="evenodd" clip-rule="evenodd" d="M12 24C3.5 24 0 20.5 0 12C0 3.5 3.5 0 12 0C20.5 0 24 3.5 24 12C24 12.9121 22.9259 13.465 22.0381 13.2556C21.3053 13.0827 20.4618 13 19.5 13C14.8958 13 13 14.8958 13 19.5C13 20.4618 13.0827 21.3053 13.2556 22.0381C13.465 22.9259 12.9121 24 12 24ZM17 7.50006C17 8.32849 16.3284 9.00006 15.5 9.00006C14.6716 9.00006 14 8.32849 14 7.50006C14 6.67163 14.6716 6.00006 15.5 6.00006C16.3284 6.00006 17 6.67163 17 7.50006ZM10.5 7.00006C11.3284 7.00006 12 6.32849 12 5.50006C12 4.67163 11.3284 4.00006 10.5 4.00006C9.67157 4.00006 9 4.67163 9 5.50006C9 6.32849 9.67157 7.00006 10.5 7.00006ZM8 9.50006C8 10.3285 7.32843 11.0001 6.5 11.0001C5.67157 11.0001 5 10.3285 5 9.50006C5 8.67163 5.67157 8.00006 6.5 8.00006C7.32843 8.00006 8 8.67163 8 9.50006ZM7.5 16.0001C8.32843 16.0001 9 15.3285 9 14.5001C9 13.6716 8.32843 13.0001 7.5 13.0001C6.67157 13.0001 6 13.6716 6 14.5001C6 15.3285 6.67157 16.0001 7.5 16.0001Z" fill="#212135"/>
</svg>
