<svg width="24" height="24" viewBox="0 0 24 24" fill="none" xmlns="http://www.w3.org/2000/svg">
<path d="M0 12C0 17.0868 1.25349 20.3829 4.08195 22.2098C4.27259 22.3329 4.52217 22.2994 4.68265 22.139L10.3468 16.4748C10.6188 16.2028 10.4952 15.7273 10.1541 15.5495C9.71941 15.323 9.33158 15.019 9.00888 14.6559L1.31088 6.95785C1.04594 6.69291 0.597339 6.80372 0.507305 7.16742C0.164029 8.5541 0 10.1599 0 12Z" fill="#212135"/>
<path d="M1.79146 4.07998C1.66824 4.27063 1.70173 4.52028 1.86225 4.68079L7.5263 10.3448C7.79822 10.6168 8.2735 10.4933 8.45138 10.1523C9.11874 8.87322 10.4574 8 12 8H23.0707C23.3836 8 23.6201 7.71484 23.5504 7.40987C22.3641 2.21776 18.7662 0 12 0C6.91438 0 3.61862 1.25291 1.79146 4.07998Z" fill="#212135"/>
<path d="M10.7092 13.5277L10.4723 13.2908C10.1776 12.9424 10 12.492 10 12C10 10.8954 10.8954 10 12 10C13.1046 10 14 10.8954 14 12C14 12.5021 13.8149 12.9611 13.5093 13.3123L13.3123 13.5093C12.9611 13.8149 12.5021 14 12 14C11.508 14 11.0576 13.8224 10.7092 13.5277Z" fill="#212135"/>
<path d="M12 24C10.161 24 8.55606 23.8362 7.16996 23.4933C6.8062 23.4033 6.69533 22.9547 6.9603 22.6897L14.6856 14.9644C15.4929 14.2325 16 13.1755 16 12C16 11.5788 15.9349 11.1728 15.8142 10.7915C15.698 10.4244 15.9467 10 16.3317 10H23.4646C23.726 10 23.9438 10.2013 23.9585 10.4622C23.9863 10.9555 24 11.4679 24 12C24 20.5 20.5 24 12 24Z" fill="#212135"/>
</svg>
