<svg width="24" height="24" viewBox="0 0 24 24" fill="none" xmlns="http://www.w3.org/2000/svg">
<path d="M12 14C10.8954 14 10 13.1046 10 12C10 10.8954 10.8954 10 12 10C13.1046 10 14 10.8954 14 12C14 13.1046 13.1046 14 12 14Z" fill="#212135"/>
<path fill-rule="evenodd" clip-rule="evenodd" d="M6.14805 7.77164C6.09915 7.79189 6.04979 7.81083 6 7.82843V16.1716C6.04979 16.1892 6.09915 16.2081 6.14805 16.2284C6.51203 16.3791 6.84274 16.6001 7.12132 16.8787C7.3999 17.1573 7.62087 17.488 7.77164 17.8519C7.79189 17.9008 7.81083 17.9502 7.82843 18H16.1716C16.1892 17.9502 16.2081 17.9008 16.2284 17.8519C16.3791 17.488 16.6001 17.1573 16.8787 16.8787C17.1573 16.6001 17.488 16.3791 17.8519 16.2284C17.9008 16.2081 17.9502 16.1892 18 16.1716V7.82843C17.9502 7.81083 17.9008 7.79189 17.8519 7.77164C17.488 7.62087 17.1573 7.3999 16.8787 7.12132C16.6001 6.84274 16.3791 6.51203 16.2284 6.14805C16.2081 6.09915 16.1892 6.04979 16.1716 6H7.82843C7.81083 6.04979 7.79189 6.09915 7.77164 6.14805C7.62087 6.51203 7.3999 6.84274 7.12132 7.12132C6.84274 7.3999 6.51203 7.62087 6.14805 7.77164ZM12 16C9.79086 16 8 14.2091 8 12C8 9.79086 9.79086 8 12 8C14.2091 8 16 9.79086 16 12C16 14.2091 14.2091 16 12 16Z" fill="#212135"/>
<path fill-rule="evenodd" clip-rule="evenodd" d="M12 24C2.118 24 0 21.882 0 12C0 2.118 2.118 0 12 0C21.882 0 24 2.118 24 12C24 21.882 21.882 24 12 24ZM6 5C6 4.44772 6.44772 4 7 4H17C17.5523 4 18 4.44772 18 5L17.9999 5.01505C18.0018 5.14128 18.0276 5.26606 18.0759 5.38277C18.1262 5.50412 18.1999 5.61439 18.2927 5.70727C18.3856 5.80015 18.4959 5.87383 18.6172 5.92409C18.7339 5.97244 18.8587 5.99822 18.9849 6.00012L19 6C19.5523 6 20 6.44771 20 7V17C20 17.5523 19.5523 18 19 18L18.9849 17.9999C18.8587 18.0018 18.7339 18.0276 18.6172 18.0759C18.4959 18.1262 18.3856 18.1999 18.2927 18.2927C18.1999 18.3856 18.1262 18.4959 18.0759 18.6172C18.0276 18.7339 18.0018 18.8587 17.9999 18.9849L18 19C18 19.5523 17.5523 20 17 20H7C6.44772 20 6 19.5523 6 19L6.00012 18.9849C5.99822 18.8587 5.97244 18.7339 5.92409 18.6172C5.87383 18.4959 5.80015 18.3856 5.70727 18.2927C5.61439 18.1999 5.50412 18.1262 5.38277 18.0759C5.26606 18.0276 5.14128 18.0018 5.01506 17.9999L5 18C4.44772 18 4 17.5523 4 17V7C4 6.44772 4.44772 6 5 6L5.01521 6.00011C5.14138 5.99819 5.2661 5.97242 5.38277 5.92409C5.50412 5.87383 5.61439 5.80015 5.70727 5.70727C5.80015 5.61439 5.87383 5.50412 5.92409 5.38277C5.97242 5.2661 5.99819 5.14138 6.00011 5.01521L6 5Z" fill="#212135"/>
</svg>
