<svg width="24" height="24" viewBox="0 0 24 24" fill="none" xmlns="http://www.w3.org/2000/svg">
<path fill-rule="evenodd" clip-rule="evenodd" d="M0 12C0 21.882 2.118 24 12 24C21.882 24 24 21.882 24 12C24 11.4015 23.9922 10.8315 23.9754 10.2887C23.9705 10.1275 23.8379 10 23.6766 10H0.323369C0.162074 10 0.0295468 10.1275 0.0245595 10.2887C0.00776844 10.8315 0 11.4015 0 12ZM18 19C18.5523 19 19 18.5523 19 18C19 17.4477 18.5523 17 18 17H14C13.4477 17 13 17.4477 13 18C13 18.5523 13.4477 19 14 19H18Z" fill="#212135"/>
<path d="M0.560848 5.63587C0.514405 5.82166 0.656835 6 0.848344 6H23.1517C23.3432 6 23.4856 5.82166 23.4392 5.63587C22.3148 1.1377 19.2426 0 12 0C4.75738 0 1.68525 1.1377 0.560848 5.63587Z" fill="#212135"/>
</svg>
