<svg width="24" height="24" viewBox="0 0 24 24" fill="none" xmlns="http://www.w3.org/2000/svg">
<path fill-rule="evenodd" clip-rule="evenodd" d="M23.9271 11.97C23.9271 13.3431 23.8916 14.5521 23.8156 15.6189C23.6376 15.6152 23.4466 15.6068 23.2299 15.5973C23.0632 15.59 22.8807 15.582 22.6778 15.575C22.1525 15.5568 21.5477 15.5488 20.9247 15.6C19.6967 15.7011 18.2388 16.0447 17.121 17.1665C16.0068 18.2848 15.6724 19.7009 15.5825 20.9175C15.5372 21.5293 15.5513 22.1259 15.5734 22.6487C15.5806 22.8181 15.5883 22.9749 15.5955 23.1218C15.6083 23.3828 15.6196 23.6128 15.6238 23.8275C14.5543 23.9043 13.3417 23.9401 11.9635 23.9401C9.06256 23.9401 6.89468 23.7814 5.25191 23.4162C3.63631 23.0569 2.67893 22.5304 2.04393 21.8951C1.40893 21.2597 0.88271 20.3018 0.523656 18.6853C0.158564 17.0417 0 14.8726 0 11.97C0 9.06749 0.158564 6.89843 0.523656 5.25477C0.88271 3.63829 1.40893 2.68039 2.04393 2.04504C2.67893 1.40969 3.63631 0.883189 5.25191 0.523941C6.89468 0.15865 9.06256 0 11.9635 0C14.8645 0 17.0324 0.15865 18.6752 0.523941C20.2908 0.883189 21.2482 1.40969 21.8832 2.04504C22.5182 2.68039 23.0444 3.63829 23.4034 5.25477C23.7685 6.89843 23.9271 9.06749 23.9271 11.97ZM13.1599 5.98502C13.1599 5.32394 13.6955 4.78802 14.3563 4.78802H17.9453C18.6061 4.78802 19.1417 5.32394 19.1417 5.98502C19.1417 6.64611 18.6061 7.18203 17.9453 7.18203H14.3563C13.6955 7.18203 13.1599 6.64611 13.1599 5.98502ZM5.98177 10.773C5.32105 10.773 4.78542 11.309 4.78542 11.97C4.78542 12.6311 5.32105 13.1671 5.98177 13.1671H17.9453C18.6061 13.1671 19.1417 12.6311 19.1417 11.97C19.1417 11.309 18.6061 10.773 17.9453 10.773H5.98177Z" fill="#212135"/>
<path d="M17.9824 22.9407C17.9923 23.1422 18.0024 23.3482 18.0093 23.5479C18.2404 23.5074 18.4622 23.4635 18.6752 23.4162C20.2908 23.0569 21.2482 22.5304 21.8832 21.8951C22.5182 21.2597 23.0444 20.3018 23.4034 18.6853C23.4517 18.4681 23.4963 18.2417 23.5375 18.0056C23.3796 18.0003 23.2158 17.9932 23.0533 17.9861L23.0516 17.9861C22.8959 17.9793 22.7415 17.9726 22.595 17.9676C22.1023 17.9505 21.6057 17.9461 21.1209 17.986C20.1333 18.0672 19.3499 18.3204 18.8155 18.8568C18.2777 19.3966 18.0388 20.1456 17.9686 21.0942C17.9338 21.5649 17.943 22.0509 17.964 22.5472C17.9694 22.6742 17.9759 22.8065 17.9824 22.9407Z" fill="#212135"/>
</svg>
