<svg width="24" height="24" viewBox="0 0 24 24" fill="none" xmlns="http://www.w3.org/2000/svg">
<path fill-rule="evenodd" clip-rule="evenodd" d="M0 12C0 21.882 2.118 24 12 24C21.882 24 24 21.882 24 12C24 2.118 21.882 0 12 0C2.118 0 0 2.118 0 12ZM4 5.5C4 4.67157 4.67157 4 5.5 4C6.32843 4 7 4.67157 7 5.5C7 6.32843 6.32843 7 5.5 7C4.67157 7 4 6.32843 4 5.5ZM9.5 4C8.67157 4 8 4.67157 8 5.5C8 6.32843 8.67157 7 9.5 7C10.3284 7 11 6.32843 11 5.5C11 4.67157 10.3284 4 9.5 4ZM8 9.5C8 8.67157 8.67157 8 9.5 8C10.3284 8 11 8.67157 11 9.5C11 10.3284 10.3284 11 9.5 11C8.67157 11 8 10.3284 8 9.5ZM5.5 8C4.67157 8 4 8.67157 4 9.5C4 10.3284 4.67157 11 5.5 11C6.32843 11 7 10.3284 7 9.5C7 8.67157 6.32843 8 5.5 8Z" fill="#212135"/>
</svg>
