<svg width="24" height="24" viewBox="0 0 24 24" fill="none" xmlns="http://www.w3.org/2000/svg">
<path fill-rule="evenodd" clip-rule="evenodd" d="M12 24C2.50713 24 -1.44868 22.7368 0.472532 12C0.549216 11.6219 0.62302 11.2548 0.694655 10.8985C2.41779 2.32867 2.88602 0 12 0C21.114 0 21.5822 2.32871 23.3054 10.8987C23.377 11.255 23.4508 11.6219 23.5274 12C25.4487 22.7368 21.4928 24 12 24ZM16 6C16 5.44772 16.4477 5 17 5C17.5523 5 18 5.44772 18 6C18 7.93802 17.2633 9.46502 16.1019 10.4974C14.9588 11.5134 13.4631 12 12 12C10.5369 12 9.04117 11.5134 7.89814 10.4974C6.7367 9.46502 6 7.93802 6 6C6 5.44771 6.44772 5 7 5C7.55229 5 8 5.44771 8 6C8 7.39531 8.5133 8.36831 9.22686 9.00259C9.95883 9.65323 10.9631 10 12 10C13.0369 10 14.0412 9.65323 14.7731 9.00259C15.4867 8.36831 16 7.39531 16 6Z" fill="#212135"/>
</svg>
