<svg width="24" height="23" viewBox="0 0 24 23" fill="none" xmlns="http://www.w3.org/2000/svg">
<path d="M12 0.585938C12.2761 0.585938 12.5 0.809795 12.5 1.08594V13.8789L16.6465 9.73242C16.8417 9.53716 17.1583 9.53716 17.3535 9.73242C17.5488 9.92768 17.5488 10.2442 17.3535 10.4395L12.3535 15.4395C12.1583 15.6347 11.8417 15.6347 11.6465 15.4395L6.64648 10.4395C6.45122 10.2442 6.45122 9.92768 6.64648 9.73242C6.84175 9.53716 7.15825 9.53716 7.35352 9.73242L11.5 13.8789V1.08594C11.5 0.809795 11.7239 0.585938 12 0.585938Z" fill="#767BFA" stroke="#767BFA"/>
<path d="M5 5.38194C5 4.7146 4.36871 4.21692 3.74865 4.46365C0.806956 5.63418 0 8.06739 0 12.7917C0 20.4454 2.118 22.0859 12 22.0859C21.882 22.0859 24 20.4454 24 12.7917C24 8.06739 23.193 5.63418 20.2514 4.46365C19.6313 4.21692 19 4.7146 19 5.38194C19 5.8344 19.3009 6.22256 19.714 6.40713C20.0273 6.54713 20.2776 6.69806 20.4811 6.85564C21.4189 7.58201 22 8.96799 22 12.7917C22 16.6154 21.4189 18.0014 20.4811 18.7277C19.9576 19.1332 19.1238 19.4947 17.7047 19.7389C16.2861 19.9831 14.436 20.0859 12 20.0859C9.56404 20.0859 7.71385 19.9831 6.2953 19.7389C4.87622 19.4947 4.04241 19.1332 3.51891 18.7277C2.58107 18.0014 2 16.6154 2 12.7917C2 8.96799 2.58107 7.58201 3.51891 6.85564C3.72237 6.69806 3.97269 6.54713 4.28602 6.40713C4.69912 6.22256 5 5.8344 5 5.38194Z" fill="#ABAFD1"/>
</svg>
