<svg width="24" height="20" viewBox="0 0 24 20" fill="none" xmlns="http://www.w3.org/2000/svg">
<path d="M13 5C13 5.55228 12.5523 6 12 6C11.4477 6 11 5.55228 11 5C11 4.44772 11.4477 4 12 4C12.5523 4 13 4.44772 13 5Z" fill="#767BFA"/>
<path d="M9 7C9 7.55228 8.55228 8 8 8C7.44772 8 7 7.55228 7 7C7 6.44772 7.44772 6 8 6C8.55228 6 9 6.44772 9 7Z" fill="#767BFA"/>
<path d="M16 8C16.5523 8 17 7.55228 17 7C17 6.44772 16.5523 6 16 6C15.4477 6 15 6.44772 15 7C15 7.55228 15.4477 8 16 8Z" fill="#767BFA"/>
<path d="M12 0C15.7031 0 18.2927 0.925112 19.9199 2.79883C21.5208 4.64245 22 7.19445 22 10C22 10.0167 21.9998 10.0333 21.999 10.0498C23.1406 10.2811 24 11.2902 24 12.5C24 13.7535 23.0772 14.791 21.874 14.9717C21.8692 15.014 21.8642 15.0569 21.8594 15.0996L21.8496 15.1885C21.8112 15.5268 21.7687 15.893 21.6963 16.2471C21.5463 16.9799 21.254 17.7455 20.5312 18.3779C19.839 18.9835 18.8568 19.3735 17.5264 19.623C16.1882 19.874 14.399 20 12 20C9.60097 20 7.81181 19.874 6.47363 19.623C5.14323 19.3735 4.16096 18.9836 3.46875 18.3779C2.746 17.7455 2.45372 16.9799 2.30371 16.2471C2.23127 15.893 2.18875 15.5268 2.15039 15.1885L2.14062 15.0996C2.13582 15.057 2.13077 15.0148 2.12598 14.9727C0.922809 14.792 0 13.7535 0 12.5C0 11.2902 0.859367 10.2811 2.00098 10.0498C2.00017 10.0333 2 10.0167 2 10C2 7.19445 2.47916 4.64245 4.08008 2.79883C5.70725 0.925112 8.29692 0 12 0ZM2.5 12C2.22386 12 2 12.2239 2 12.5C2 12.7761 2.22386 13 2.5 13H7V15H4.1416C4.17906 15.3286 4.21328 15.6005 4.26367 15.8467C4.36313 16.3323 4.50893 16.6295 4.78613 16.8721C5.09387 17.1413 5.67406 17.439 6.84277 17.6582C8.00399 17.876 9.65155 18 12 18C14.3484 18 15.996 17.876 17.1572 17.6582C18.3259 17.439 18.9061 17.1413 19.2139 16.8721C19.4911 16.6295 19.6369 16.3323 19.7363 15.8467C19.7867 15.6005 19.8209 15.3286 19.8584 15H11V13H21.5C21.7761 13 22 12.7761 22 12.5C22 12.2239 21.7761 12 21.5 12H2.5ZM12 2C8.59787 2 6.68734 2.84774 5.59082 4.11035C4.46819 5.40308 4 7.3511 4 10H20C20 7.3511 19.5318 5.40308 18.4092 4.11035C17.3127 2.84774 15.4021 2 12 2Z" fill="#ABAFD1"/>
<path d="M12 0C15.7031 0 18.2927 0.925112 19.9199 2.79883C21.5208 4.64245 22 7.19445 22 10C22 10.0167 21.9998 10.0333 21.999 10.0498C23.1406 10.2811 24 11.2902 24 12.5C24 13.7535 23.0772 14.791 21.874 14.9717C21.8692 15.014 21.8642 15.0569 21.8594 15.0996L21.8496 15.1885C21.8112 15.5268 21.7687 15.893 21.6963 16.2471C21.5463 16.9799 21.254 17.7455 20.5312 18.3779C19.839 18.9835 18.8568 19.3735 17.5264 19.623C16.1882 19.874 14.399 20 12 20C9.60097 20 7.81181 19.874 6.47363 19.623C5.14323 19.3735 4.16096 18.9836 3.46875 18.3779C2.746 17.7455 2.45372 16.9799 2.30371 16.2471C2.23127 15.893 2.18875 15.5268 2.15039 15.1885L2.14062 15.0996C2.13582 15.057 2.13077 15.0148 2.12598 14.9727C0.922809 14.792 0 13.7535 0 12.5C0 11.2902 0.859367 10.2811 2.00098 10.0498C2.00017 10.0333 2 10.0167 2 10C2 7.19445 2.47916 4.64245 4.08008 2.79883C5.70725 0.925112 8.29692 0 12 0ZM2.5 12C2.22386 12 2 12.2239 2 12.5C2 12.7761 2.22386 13 2.5 13H7V15H4.1416C4.17906 15.3286 4.21328 15.6005 4.26367 15.8467C4.36313 16.3323 4.50893 16.6295 4.78613 16.8721C5.09387 17.1413 5.67406 17.439 6.84277 17.6582C8.00399 17.876 9.65155 18 12 18C14.3484 18 15.996 17.876 17.1572 17.6582C18.3259 17.439 18.9061 17.1413 19.2139 16.8721C19.4911 16.6295 19.6369 16.3323 19.7363 15.8467C19.7867 15.6005 19.8209 15.3286 19.8584 15H11V13H21.5C21.7761 13 22 12.7761 22 12.5C22 12.2239 21.7761 12 21.5 12H2.5ZM12 2C8.59787 2 6.68734 2.84774 5.59082 4.11035C4.46819 5.40308 4 7.3511 4 10H20C20 7.3511 19.5318 5.40308 18.4092 4.11035C17.3127 2.84774 15.4021 2 12 2Z" stroke="#ABAFD1"/>
<path d="M13 11.3914V11.4379C13.0003 11.4224 13.0003 11.4068 13 11.3914Z" fill="#767BFA"/>
<path fill-rule="evenodd" clip-rule="evenodd" d="M12.866 12C12.8501 12.033 12.8328 12.0658 12.8139 12.0984L10.3936 16.2752C10.0961 16.7886 9.56814 16.9932 9.12948 16.9998C8.69059 17.0065 8.15988 16.8181 7.84569 16.3196L5.21299 12.1428C5.18339 12.0959 5.15707 12.0482 5.13391 12H12.866ZM9.08782 14.5396L7.48712 12L10.5594 12L9.08782 14.5396Z" fill="#767BFA"/>
<path d="M4.99999 11.4327V11.3973C4.99984 11.4091 4.99984 11.4209 4.99999 11.4327Z" fill="#767BFA"/>
</svg>
