<svg width="27" height="27" viewBox="0 0 27 27" fill="none" xmlns="http://www.w3.org/2000/svg">
<path d="M7.75651 6.82058C9.08944 2.91605 12.649 0.0859375 17 0.0859375C22.4902 0.0859375 27 4.58704 27 10.0774C27 15.5214 22.4806 20.1495 17 20.0859C16.4477 20.0859 16 19.6382 16 19.0859C16 18.5337 16.4477 18.0859 17 18.0859C21.2279 18.0317 25 14.358 25 10.0774C25 5.7577 21.192 2.08422 17 2.08422C13.7736 2.08422 11.0764 4.3015 9.9821 7.25262C9.97377 7.301 9.96176 7.34936 9.94591 7.39738L9.94557 7.39841L9.94326 7.40551L9.93278 7.43835C9.92337 7.46816 9.90944 7.51307 9.89249 7.56999C9.85845 7.68432 9.813 7.84461 9.76778 8.02677C9.67168 8.41393 9.5985 8.81498 9.59876 9.08446C9.59939 9.74947 9.66712 10.0873 9.92297 10.7014C10.1354 11.2112 9.89428 11.7967 9.38447 12.0091C8.87466 12.2215 8.28919 11.9804 8.07679 11.4706C7.71967 10.6134 7.59964 10.0148 7.59876 9.08636C7.59874 9.07292 7.59882 9.05943 7.59897 9.0459C7.32461 8.99429 7.0409 8.9672 6.75 8.9672C4.26472 8.9672 2 11.1219 2 13.5743C2 16.0268 4.51472 18.0859 7 18.0859H9C9.55229 18.0859 10 18.5337 10 19.0859C10 19.6382 9.55229 20.0859 9 20.0859H7C3.27208 20.0859 0 17.2531 0 13.5743C0 9.89561 3.02208 6.74688 6.75 6.74688C7.09162 6.74688 7.42776 6.77201 7.75651 6.82058Z" fill="#ABAFD1"/>
<path d="M13 16.5859C13.2761 16.5859 13.5 16.8098 13.5 17.0859V23.8789L15.6465 21.7324C15.8417 21.5372 16.1583 21.5372 16.3535 21.7324C16.5488 21.9277 16.5488 22.2442 16.3535 22.4395L13.3535 25.4395C13.1583 25.6347 12.8417 25.6347 12.6465 25.4395L9.64648 22.4395C9.45122 22.2442 9.45122 21.9277 9.64648 21.7324C9.84175 21.5372 10.1583 21.5372 10.3535 21.7324L12.5 23.8789V17.0859C12.5 16.8098 12.7239 16.5859 13 16.5859Z" fill="#767BFA" stroke="#767BFA"/>
</svg>
