<svg width="20" height="25" viewBox="0 0 20 25" fill="none" xmlns="http://www.w3.org/2000/svg">
<path d="M10 7.08594C9.44772 7.08594 9 7.53365 9 8.08594V12.0859C9 12.6382 9.44772 13.0859 10 13.0859H15C15.5523 13.0859 16 12.6382 16 12.0859C16 11.5337 15.5523 11.0859 15 11.0859L11 11.0859V8.08594C11 7.53365 10.5523 7.08594 10 7.08594Z" fill="#767BFA"/>
<path fill-rule="evenodd" clip-rule="evenodd" d="M4.01324 3.50459C4.00964 3.57938 4.00671 3.63796 4.00304 3.68924C0.829264 4.66142 0 7.00574 0 12.0859C0 17.1671 0.82959 19.5114 4.0049 20.4832C4.00775 20.5274 4.01027 20.5779 4.01324 20.6397L4.01372 20.6496C4.01807 20.74 4.02347 20.8522 4.03321 20.9689C4.05357 21.2125 4.09574 21.5207 4.21466 21.8446C4.47583 22.556 5.03094 23.1438 5.98693 23.5284C6.89163 23.8922 8.17683 24.0859 10 24.0859C11.8232 24.0859 13.1084 23.8922 14.0131 23.5284C14.9691 23.1438 15.5242 22.556 15.7853 21.8446C15.9043 21.5207 15.9464 21.2125 15.9668 20.9689C15.9765 20.8522 15.9819 20.74 15.9863 20.6495L15.9868 20.6397C15.9897 20.5779 15.9922 20.5274 15.9951 20.4832C19.1704 19.5114 20 17.1671 20 12.0859C20 7.00575 19.1707 4.66142 15.997 3.68924C15.9933 3.63796 15.9904 3.57938 15.9868 3.50459L15.9863 3.49541C15.982 3.40466 15.9766 3.29206 15.9668 3.17527C15.9464 2.932 15.9041 2.62417 15.7843 2.30091C15.5207 1.58969 14.9615 1.00986 14.0077 0.632597C13.1048 0.275478 11.8216 0.0859375 10 0.0859375C8.17839 0.0859375 6.89517 0.275478 5.99228 0.632597C5.03848 1.00986 4.47934 1.58969 4.21574 2.30091C4.09593 2.62417 4.05362 2.932 4.03323 3.17527C4.02344 3.2921 4.01804 3.40465 4.01368 3.49541L4.01324 3.50459ZM13.9647 20.8925C12.8481 21.0306 11.5367 21.0859 10 21.0859C8.46333 21.0859 7.15194 21.0306 6.03527 20.8925C6.04842 21.0035 6.06692 21.0866 6.09215 21.1554C6.13213 21.2643 6.22759 21.4694 6.73324 21.6728C7.29018 21.8968 8.27772 22.0859 10 22.0859C11.7223 22.0859 12.7098 21.8968 13.2668 21.6728C13.7724 21.4694 13.8679 21.2643 13.9078 21.1554C13.9331 21.0866 13.9516 21.0035 13.9647 20.8925ZM13.9089 2.99597C13.9354 3.06744 13.9546 3.15616 13.9678 3.27977C12.8505 3.14135 11.5381 3.08594 10 3.08594C8.46191 3.08594 7.14952 3.14135 6.03218 3.27977C6.04541 3.15616 6.06459 3.06744 6.09108 2.99597C6.12862 2.89468 6.22005 2.69327 6.72789 2.4924C7.28665 2.2714 8.27615 2.08594 10 2.08594C11.7238 2.08594 12.7134 2.2714 13.2721 2.4924C13.78 2.69327 13.8714 2.89468 13.9089 2.99597ZM3.2498 17.8787C2.50641 17.2096 2 15.8407 2 12.0859C2 8.33116 2.50641 6.96227 3.2498 6.29321C3.62642 5.95426 4.23932 5.63438 5.35563 5.4111C6.48388 5.18543 7.98189 5.08594 10 5.08594C12.0181 5.08594 13.5161 5.18543 14.6444 5.4111C15.7607 5.63438 16.3736 5.95426 16.7502 6.29321C17.4936 6.96227 18 8.33116 18 12.0859C18 15.8407 17.4936 17.2096 16.7502 17.8787C16.3736 18.2176 15.7607 18.5375 14.6444 18.7608C13.5161 18.9864 12.0181 19.0859 10 19.0859C7.98189 19.0859 6.48388 18.9864 5.35563 18.7608C4.23932 18.5375 3.62642 18.2176 3.2498 17.8787Z" fill="#ABAFD1"/>
</svg>
