<svg width="24" height="25" viewBox="0 0 24 25" fill="none" xmlns="http://www.w3.org/2000/svg">
<path fill-rule="evenodd" clip-rule="evenodd" d="M0 14.0859C0 22.3209 1.765 24.0859 10 24.0859C18.235 24.0859 20 22.3209 20 14.0859C20 5.85094 18.235 4.08594 10 4.08594C1.765 4.08594 0 5.85094 0 14.0859ZM2 14.0859C2 16.099 2.11048 17.5802 2.35682 18.6887C2.59811 19.7744 2.94237 20.3761 3.32609 20.7598C3.70981 21.1436 4.31152 21.4878 5.39726 21.7291C6.5057 21.9755 7.9869 22.0859 10 22.0859C12.0131 22.0859 13.4943 21.9755 14.6027 21.7291C15.6885 21.4878 16.2902 21.1436 16.6739 20.7598C17.0576 20.3761 17.4019 19.7744 17.6432 18.6887C17.8895 17.5802 18 16.099 18 14.0859C18 12.0728 17.8895 10.5916 17.6432 9.48319C17.4019 8.39746 17.0576 7.79575 16.6739 7.41203C16.2902 7.02831 15.6885 6.68405 14.6027 6.44276C13.4943 6.19641 12.0131 6.08594 10 6.08594C7.9869 6.08594 6.5057 6.19641 5.39726 6.44276C4.31152 6.68405 3.70981 7.02831 3.32609 7.41203C2.94237 7.79575 2.59811 8.39746 2.35682 9.48319C2.11048 10.5916 2 12.0728 2 14.0859Z" fill="#ABAFD1"/>
<path d="M19.9645 15.92C19.9307 16.7133 19.8713 17.4333 19.78 18.0864C23.1443 17.1978 23.9999 14.8255 23.9999 9.31672C23.9999 1.93209 22.1538 0.0859375 14.7691 0.0859375C9.26026 0.0859375 6.88802 0.941602 5.99939 4.30595C6.65247 4.21469 7.37255 4.15525 8.1658 4.12146C8.33272 3.72769 8.52152 3.46081 8.71737 3.26496C9.04452 2.9378 9.56989 2.63032 10.5538 2.41165C11.5604 2.18793 12.9144 2.08594 14.7691 2.08594C18.4757 2.08594 19.9909 2.59771 20.7395 3.34631C21.4881 4.09491 21.9999 5.61012 21.9999 9.31672C21.9999 11.1715 21.8979 12.5254 21.6742 13.532C21.4555 14.516 21.1481 15.0413 20.8209 15.3685C20.6251 15.5643 20.3582 15.7531 19.9645 15.92Z" fill="#767BFA"/>
</svg>
