<svg width="24" height="20" viewBox="0 0 24 20" fill="none" xmlns="http://www.w3.org/2000/svg">
<path d="M10.7071 1.70711C11.0976 1.31658 11.0976 0.683417 10.7071 0.292893C10.3166 -0.0976311 9.68342 -0.0976311 9.29289 0.292893L3.29289 6.29289C2.90237 6.68342 2.90237 7.31658 3.29289 7.70711C3.68342 8.09763 4.31658 8.09763 4.70711 7.70711L10.7071 1.70711Z" fill="#767BFA"/>
<path d="M14.7071 0.292893C14.3166 -0.0976311 13.6834 -0.0976311 13.2929 0.292893C12.9024 0.683417 12.9024 1.31658 13.2929 1.70711L19.2929 7.70711C19.6834 8.09763 20.3166 8.09763 20.7071 7.70711C21.0976 7.31658 21.0976 6.68342 20.7071 6.29289L14.7071 0.292893Z" fill="#767BFA"/>
<path d="M1 6.5H23C23.2761 6.5 23.4999 6.7239 23.5 7C23.5 7.27614 23.2761 7.5 23 7.5H21.4424L21.3916 7.94336C21.2817 8.8997 21.1914 9.77611 21.1104 10.5801V10.5811L21.0791 10.8955C20.987 11.8113 20.9044 12.6342 20.8135 13.3662C20.613 14.9804 20.3644 16.2452 19.8271 17.1855C19.2648 18.1696 18.4148 18.7538 17.1484 19.085C15.9143 19.4076 14.2486 19.5 12 19.5C9.75136 19.5 8.08574 19.4076 6.85156 19.085C5.58521 18.7538 4.73517 18.1696 4.17285 17.1855C3.63558 16.2452 3.38704 14.9804 3.18652 13.3662C3.14107 13.0003 3.09825 12.6117 3.05469 12.2002L2.9209 10.8955L2.88965 10.5811V10.5801C2.80858 9.77611 2.71834 8.8997 2.6084 7.94336L2.55762 7.5H1C0.723857 7.5 0.5 7.27614 0.5 7C0.500055 6.7239 0.723892 6.5 1 6.5ZM3.62793 8.05664C3.72707 8.93257 3.80903 9.73911 3.88379 10.4805L3.91602 10.793C4.00842 11.7113 4.09009 12.5219 4.17969 13.2432C4.38076 14.8618 4.61387 15.9418 5.04102 16.6895C5.23252 17.0246 5.47785 17.318 5.82422 17.5625C6.16558 17.8034 6.5843 17.9821 7.10449 18.1182C8.2008 18.4048 9.74948 18.5 12 18.5C14.2505 18.5 15.7992 18.4048 16.8955 18.1182C17.4157 17.9821 17.8344 17.8034 18.1758 17.5625C18.5222 17.318 18.7675 17.0246 18.959 16.6895C19.3861 15.9418 19.6192 14.8618 19.8203 13.2432C19.9099 12.5217 19.9916 11.7106 20.084 10.792L20.1162 10.4805C20.191 9.73911 20.2729 8.93257 20.3721 8.05664L20.4355 7.5H3.56445L3.62793 8.05664Z" fill="#ABAFD1" stroke="#ABAFD1"/>
<path d="M10 10C9.44772 10 9 10.4477 9 11V15C9 15.5523 9.44772 16 10 16C10.5523 16 11 15.5523 11 15V11C11 10.4477 10.5523 10 10 10Z" fill="#767BFA"/>
<path d="M14 10C13.4477 10 13 10.4477 13 11V15C13 15.5523 13.4477 16 14 16C14.5523 16 15 15.5523 15 15V11C15 10.4477 14.5523 10 14 10Z" fill="#767BFA"/>
</svg>
