<svg width="20" height="24" viewBox="0 0 20 24" fill="none" xmlns="http://www.w3.org/2000/svg">
<path d="M9.00012 0C8.44784 0 8.00012 0.447715 8.00012 1V3H12.0001V1C12.0001 0.447715 11.5524 0 11.0001 0H9.00012Z" fill="#767BFA"/>
<path d="M7.00012 12C7.00012 11.4477 6.55241 11 6.00012 11C5.44784 11 5.00012 11.4477 5.00012 12V18C5.00012 18.5523 5.44784 19 6.00012 19C6.55241 19 7.00012 18.5523 7.00012 18V12Z" fill="#767BFA"/>
<path d="M11.0001 12C11.0001 11.4477 10.5524 11 10.0001 11C9.44784 11 9.00012 11.4477 9.00012 12V18C9.00012 18.5523 9.44784 19 10.0001 19C10.5524 19 11.0001 18.5523 11.0001 18V12Z" fill="#767BFA"/>
<path d="M14.0001 11C14.5524 11 15.0001 11.4477 15.0001 12V18C15.0001 18.5523 14.5524 19 14.0001 19C13.4478 19 13.0001 18.5523 13.0001 18V12C13.0001 11.4477 13.4478 11 14.0001 11Z" fill="#767BFA"/>
<path d="M1.54035 5.84152C2.72875 5.0786 5.52988 4 10.0001 4C14.4556 4 17.1809 5.07224 18.4845 5.85679C18.9577 6.14158 19.5721 5.98886 19.8569 5.51566C20.1417 5.04247 19.989 4.428 19.5158 4.14321C17.8655 3.14998 14.7754 2 10.0001 2C5.23959 2 2.04073 3.14362 0.45989 4.15848C-0.00486639 4.45685 -0.139756 5.07548 0.158607 5.54023C0.456969 6.00499 1.0756 6.13988 1.54035 5.84152Z" fill="#ABAFD1"/>
<path fill-rule="evenodd" clip-rule="evenodd" d="M0.393909 15C0.452945 15.2655 0.509933 15.5236 0.565339 15.7746C2.01252 22.3303 2.38111 24 10.0001 24C17.6191 24 17.9877 22.3303 19.4349 15.7747C19.4903 15.5237 19.5473 15.2655 19.6063 15C21.2074 7.8 17.9108 6 10.0001 6C2.08941 6 -1.2071 7.8 0.393909 15ZM2.52119 15.3561C2.84338 16.8145 3.09136 17.937 3.37207 18.8643C3.69798 19.9408 4.00219 20.5111 4.31879 20.8635C4.87469 21.4824 5.98841 22 10.0001 22C14.0118 22 15.1255 21.4824 15.6814 20.8635C15.998 20.5111 16.3023 19.9408 16.6282 18.8643C16.9089 17.937 17.1569 16.8145 17.479 15.3562C17.5349 15.1031 17.5931 14.8399 17.654 14.5659C18.4092 11.1699 17.8064 9.93633 17.0864 9.33365C16.6301 8.95173 15.8842 8.59918 14.6687 8.35438C13.4587 8.1107 11.9191 8 10.0001 8C8.08119 8 6.5415 8.1107 5.33155 8.35438C4.11608 8.59918 3.37011 8.95173 2.91383 9.33365C2.19381 9.93633 1.59109 11.1699 2.34622 14.5659C2.40714 14.8398 2.4653 15.1031 2.52119 15.3561Z" fill="#ABAFD1"/>
</svg>
