<svg width="24" height="25" viewBox="0 0 24 25" fill="none" xmlns="http://www.w3.org/2000/svg">
<path fill-rule="evenodd" clip-rule="evenodd" d="M0.553036 19.5476C1.1863 21.2462 2.10003 22.3101 3.48642 23.0859C4.7406 23.7878 6.55061 24.0859 9.77466 24.0859H14.2253C17.4494 24.0859 19.2594 23.7878 20.5136 23.0859C21.9 22.3101 22.8137 21.2462 23.447 19.5476C23.7631 18.6996 23.9048 17.7181 23.9683 16.3448C23.9883 15.9123 23.9983 15.6961 23.9638 15.488C23.8329 14.699 23.1889 14.0256 22.4054 13.8587C22.1988 13.8147 21.9601 13.8147 21.4829 13.8147C20.8266 13.8147 20.2946 13.1629 20.2946 12.3589C20.2946 11.5549 20.8266 10.9031 21.4829 10.9031C21.9699 10.9031 22.2135 10.9031 22.4211 10.8586C23.1988 10.6921 23.8286 10.0437 23.9716 9.26263C24.0098 9.05402 24.0028 8.82616 23.9889 8.37046C23.938 6.70555 23.8033 5.58011 23.447 4.6243C22.8137 2.92572 21.9 1.8618 20.5136 1.08594C19.2594 0.384069 17.4494 0.0859375 14.2253 0.0859375H9.77466C6.55061 0.0859375 4.7406 0.384069 3.48642 1.08594C2.10003 1.8618 1.1863 2.92572 0.553036 4.6243C0.196692 5.58011 0.0620053 6.70556 0.0110984 8.37047C-0.00283493 8.82617 -0.0098016 9.05401 0.0283821 9.26262C0.171356 10.0437 0.801241 10.6921 1.57886 10.8586C1.78654 10.9031 2.03007 10.9031 2.51714 10.9031C3.17338 10.9031 3.70537 11.5549 3.70537 12.3589C3.70537 13.1629 3.17338 13.8147 2.51714 13.8147C2.03987 13.8147 1.80123 13.8147 1.59458 13.8587C0.811143 14.0256 0.167089 14.699 0.0362485 15.488C0.00173491 15.6961 0.0117306 15.9123 0.0317221 16.3448C0.0952122 17.7181 0.236889 18.6996 0.553036 19.5476ZM2.01336 8.4315C2.06298 6.80855 2.19373 5.95678 2.43039 5.32199C2.91083 4.03333 3.52443 3.35742 4.46588 2.83056C5.23212 2.40175 6.57941 2.08594 9.77466 2.08594H14.2253C17.4206 2.08594 18.7679 2.40176 19.5341 2.83056C20.4756 3.35742 21.0892 4.03333 21.5696 5.32199C21.8063 5.95678 21.937 6.80854 21.9866 8.43149C21.9941 8.67464 21.9975 8.79965 21.9967 8.89081L21.9966 8.89831L21.9813 8.89893C21.88 8.90275 21.7412 8.90307 21.4829 8.90307C19.3565 8.90307 18.2914 10.8524 18.2914 12.3589C18.2914 13.8654 19.3565 15.8147 21.4829 15.8147C21.7364 15.8147 21.8712 15.815 21.9696 15.8187L21.9784 15.8191L21.9806 15.8213L21.9833 15.8242C21.9828 15.9078 21.9778 16.0227 21.9672 16.2526C21.907 17.5553 21.7775 18.2923 21.5696 18.8499C21.0892 20.1385 20.4756 20.8145 19.5341 21.3413C18.7679 21.7701 17.4206 22.0859 14.2253 22.0859H9.77466C6.57941 22.0859 5.23212 21.7701 4.46588 21.3413C3.52443 20.8145 2.91083 20.1386 2.43039 18.8499C2.22252 18.2923 2.09301 17.5553 2.03279 16.2525C2.02216 16.0227 2.01722 15.9078 2.01673 15.8242L2.01945 15.8213L2.02159 15.8191L2.03038 15.8187C2.12876 15.815 2.26362 15.8147 2.51714 15.8147C4.64346 15.8147 5.70856 13.8654 5.70856 12.3589C5.70856 10.8524 4.64346 8.90307 2.51714 8.90307C2.25876 8.90307 2.11996 8.90275 2.01868 8.89893L2.00339 8.89831L2.00331 8.89081C2.00247 8.79965 2.00593 8.67465 2.01336 8.4315Z" fill="#ABAFD1"/>
<path d="M15 4.08594C15.5523 4.08594 16 4.53365 16 5.08594L16 7.08594C16 7.63822 15.5523 8.08594 15 8.08594C14.4477 8.08594 14 7.63822 14 7.08594V5.08594C14 4.53365 14.4477 4.08594 15 4.08594Z" fill="#767BFA"/>
<path d="M16 11.0859C16 10.5337 15.5523 10.0859 15 10.0859C14.4477 10.0859 14 10.5337 14 11.0859V13.0859C14 13.6382 14.4477 14.0859 15 14.0859C15.5523 14.0859 16 13.6382 16 13.0859L16 11.0859Z" fill="#767BFA"/>
<path d="M15 16.0859C15.5523 16.0859 16 16.5337 16 17.0859L16 19.0859C16 19.6382 15.5523 20.0859 15 20.0859C14.4477 20.0859 14 19.6382 14 19.0859V17.0859C14 16.5337 14.4477 16.0859 15 16.0859Z" fill="#767BFA"/>
</svg>
