<svg width="24" height="24" viewBox="0 0 24 24" fill="none" xmlns="http://www.w3.org/2000/svg">
<path d="M11 1C11 0.447715 11.4477 0 12 0C12.5523 0 13 0.447715 13 1V4C13 4.55228 12.5523 5 12 5C11.4477 5 11 4.55228 11 4V1Z" fill="#767BFA"/>
<path d="M16.1482 2.24322C16.4243 1.76493 17.0359 1.60105 17.5142 1.8772C17.9925 2.15334 18.1564 2.76493 17.8802 3.24322L17.232 4.36601C16.9558 4.84431 16.3443 5.00818 15.866 4.73204C15.3877 4.4559 15.2238 3.84431 15.4999 3.36601L16.1482 2.24322Z" fill="#767BFA"/>
<path d="M6.21684 1.87573C5.73855 2.15187 5.57467 2.76347 5.85082 3.24176L6.49995 4.36608C6.77609 4.84438 7.38768 5.00825 7.86597 4.73211C8.34426 4.45597 8.50814 3.84437 8.232 3.36608L7.58287 2.24176C7.30672 1.76347 6.69513 1.59959 6.21684 1.87573Z" fill="#767BFA"/>
<path d="M12 6C16.4999 5.99999 18.9999 8.4999 19 14.708C19 16.4609 18.9639 17.8696 18.876 19H21.5C22.8807 19 24 20.1193 24 21.5C24 22.8807 22.8807 24 21.5 24H2.5C1.11929 24 5.15405e-07 22.8807 0 21.5C0 20.1193 1.11929 19 2.5 19H5.12402C5.03607 17.8696 5 16.4609 5 14.708C5.00009 8.4999 7.50008 6.00001 12 6ZM2.5 21C2.22386 21 2 21.2239 2 21.5C2 21.7761 2.22386 22 2.5 22H21.5C21.7761 22 22 21.7761 22 21.5C22 21.2239 21.7761 21 21.5 21H2.5ZM12 8C10.1205 8 9.02438 8.5094 8.33789 9.31934C7.59184 10.1997 7.00004 11.8156 7 14.708C7 16.5505 7.04055 17.9431 7.12988 19H16.8701C16.9594 17.9431 17 16.5505 17 14.708C17 11.8156 16.4082 10.1997 15.6621 9.31934C14.9756 8.5094 13.8795 8 12 8Z" fill="#ABAFD1"/>
<path d="M12 6C16.4999 5.99999 18.9999 8.4999 19 14.708C19 16.4609 18.9639 17.8696 18.876 19H21.5C22.8807 19 24 20.1193 24 21.5C24 22.8807 22.8807 24 21.5 24H2.5C1.11929 24 5.15405e-07 22.8807 0 21.5C0 20.1193 1.11929 19 2.5 19H5.12402C5.03607 17.8696 5 16.4609 5 14.708C5.00009 8.4999 7.50008 6.00001 12 6ZM2.5 21C2.22386 21 2 21.2239 2 21.5C2 21.7761 2.22386 22 2.5 22H21.5C21.7761 22 22 21.7761 22 21.5C22 21.2239 21.7761 21 21.5 21H2.5ZM12 8C10.1205 8 9.02438 8.5094 8.33789 9.31934C7.59184 10.1997 7.00004 11.8156 7 14.708C7 16.5505 7.04055 17.9431 7.12988 19H16.8701C16.9594 17.9431 17 16.5505 17 14.708C17 11.8156 16.4082 10.1997 15.6621 9.31934C14.9756 8.5094 13.8795 8 12 8Z" stroke="#ABAFD1"/>
<path d="M13 17V19H15V17C15 15.3431 13.6569 14 12 14C10.3431 14 9 15.3431 9 17V19H11V17C11 16.4477 11.4477 16 12 16C12.5523 16 13 16.4477 13 17Z" fill="#767BFA"/>
</svg>
