<svg width="28" height="20" viewBox="0 0 28 20" fill="none" xmlns="http://www.w3.org/2000/svg">
<path fill-rule="evenodd" clip-rule="evenodd" d="M7.24233 15.7137C1.58081 15.7137 0 13.4283 0 10.0014C0 6.5745 2.0955 4.28351 7.24233 4.28351C10.0446 4.28351 11.016 3.01369 11.901 1.8568C12.6414 0.888874 13.3214 0 14.9626 0C18.5654 0 19.5947 4.28351 19.5947 10.0014C19.5947 15.7193 18.5654 20 14.9626 20C13.3639 20 12.7786 19.156 12.1275 18.217C11.3113 17.04 10.3916 15.7137 7.24233 15.7137ZM7.24232 13.7137C4.60297 13.7137 3.37466 13.1688 2.79924 12.6472C2.28539 12.1815 1.95947 11.4265 1.95947 10.0014C1.95947 8.72168 2.33312 7.91908 2.95169 7.38855C3.6293 6.80737 4.91308 6.28351 7.24233 6.28351C8.80908 6.28351 10.0596 5.95337 11.0908 5.34759C12.1016 4.75376 12.7541 3.97692 13.2137 3.38843C13.3252 3.24561 13.4212 3.12107 13.5057 3.01136C13.8181 2.60565 13.9743 2.40292 14.1861 2.22949C14.3285 2.11294 14.5071 2 14.9626 2C15.4518 2 15.753 2.13383 15.9846 2.32233C16.2466 2.5356 16.5425 2.92334 16.8132 3.6065C17.3734 5.01998 17.6353 7.19877 17.6353 10.0014C17.6353 12.8041 17.3734 14.982 16.8133 16.3946C16.5427 17.0773 16.2469 17.4647 15.985 17.6778C15.7535 17.8661 15.4521 18 14.9626 18C14.5187 18 14.4013 17.8952 14.3251 17.8271L14.3222 17.8245C14.1595 17.6793 14.0569 17.5319 13.8367 17.2154C13.7379 17.0734 13.6153 16.8971 13.4531 16.672C13.0018 16.0456 12.3517 15.2424 11.283 14.6357C10.2153 14.0294 8.90256 13.7137 7.24232 13.7137Z" fill="#ABAFD1"/>
<path d="M22.0756 11.414C21.6867 11.8045 21.6867 12.4376 22.0756 12.8282C22.4644 13.2187 23.0948 13.2187 23.4837 12.8282L24.8917 11.4141L26.3002 12.8288C26.6891 13.2193 27.3195 13.2193 27.7083 12.8288C28.0972 12.4382 28.0972 11.8051 27.7083 11.4146L26.2998 9.99984L27.708 8.58553C28.0968 8.195 28.0968 7.56184 27.708 7.17131C27.3191 6.78079 26.6887 6.78079 26.2999 7.17131L24.8917 8.58563L23.4841 7.17192C23.0952 6.78139 22.4648 6.78139 22.076 7.17192C21.6871 7.56244 21.6871 8.1956 22.076 8.58613L23.4836 9.99984L22.0756 11.414Z" fill="#767BFA"/>
</svg>
