<svg width="28" height="17" viewBox="0 0 28 17" fill="none" xmlns="http://www.w3.org/2000/svg">
<path fill-rule="evenodd" clip-rule="evenodd" d="M19.9204 6.69481C20.1364 7.20309 19.8995 7.79026 19.3912 8.00628L19 7.08595C19.3912 8.00628 19.3912 8.00626 19.3912 8.00628L19.3867 8.00819L19.3769 8.0123L19.3425 8.02668C19.3131 8.03885 19.2713 8.05605 19.2191 8.07708C19.1149 8.11907 18.9685 8.17677 18.7971 8.24054C18.4611 8.3655 18.0016 8.5242 17.5693 8.62916C16.3864 8.91631 15.4949 9.08595 14 9.08595C12.5052 9.08595 11.6137 8.91631 10.4308 8.62916C9.99844 8.5242 9.53895 8.3655 9.20301 8.24054C9.03158 8.17677 8.88513 8.11907 8.78096 8.07708C8.72878 8.05605 8.68695 8.03885 8.6576 8.02668L8.62315 8.0123L8.6134 8.00819L8.60952 8.00655C8.60946 8.00652 8.6089 8.00628 8.95011 7.20342L8.60952 8.00655C8.10123 7.79052 7.86368 7.20309 8.07971 6.69481C8.2957 6.18661 8.8827 5.94968 9.39093 6.16552C9.3909 6.1655 9.39096 6.16553 9.39093 6.16552L9.39197 6.16596L9.39785 6.16844L9.42408 6.17938C9.44773 6.18919 9.48328 6.20381 9.52866 6.22211C9.61962 6.25877 9.74897 6.30973 9.9003 6.36602C10.2099 6.48119 10.5837 6.6082 10.9026 6.68561C11.989 6.94933 12.7144 7.08595 14 7.08595C15.2857 7.08595 16.0111 6.94933 17.0975 6.68561C17.4163 6.6082 17.7902 6.48119 18.0998 6.36603C18.2511 6.30973 18.3805 6.25877 18.4714 6.22211C18.5168 6.20381 18.5523 6.18919 18.576 6.17938L18.6022 6.16844L18.6081 6.16596C18.6081 6.16597 18.6081 6.16594 18.6081 6.16596M19.9204 6.69481C19.7044 6.18656 19.1164 5.95001 18.6081 6.16596L19.9204 6.69481ZM19.9204 9.69481C20.1364 10.2031 19.8995 10.7903 19.3912 11.0063L19 10.086C19.3912 11.0063 19.3912 11.0063 19.3912 11.0063L19.3867 11.0082L19.3769 11.0123L19.3425 11.0267C19.3131 11.0389 19.2713 11.056 19.2191 11.0771C19.1149 11.1191 18.9685 11.1768 18.7971 11.2405C18.4611 11.3655 18.0016 11.5242 17.5693 11.6292C16.3864 11.9163 15.4949 12.086 14 12.086C12.5052 12.086 11.6137 11.9163 10.4308 11.6292C9.99844 11.5242 9.53895 11.3655 9.20301 11.2405C9.03158 11.1768 8.88513 11.1191 8.78096 11.0771C8.72878 11.056 8.68695 11.0389 8.6576 11.0267L8.62315 11.0123L8.6134 11.0082L8.60952 11.0065C8.60946 11.0065 8.6089 11.0063 8.95011 10.2034L8.60952 11.0065C8.10123 10.7905 7.86368 10.2031 8.07971 9.69481C8.2957 9.18661 8.8827 8.94968 9.39093 9.16552C9.3909 9.1655 9.39096 9.16553 9.39093 9.16552L9.39197 9.16596L9.39785 9.16844L9.42408 9.17938C9.44773 9.18919 9.48328 9.20381 9.52866 9.22211C9.61962 9.25877 9.74897 9.30973 9.9003 9.36602C10.2099 9.48119 10.5837 9.6082 10.9026 9.68561C11.989 9.94933 12.7144 10.086 14 10.086C15.2857 10.086 16.0111 9.94933 17.0975 9.68561C17.4163 9.6082 17.7902 9.48119 18.0998 9.36603C18.2511 9.30973 18.3805 9.25877 18.4714 9.22211C18.5168 9.20381 18.5523 9.18919 18.576 9.17938L18.6022 9.16844L18.6081 9.16596C18.6081 9.16597 18.6081 9.16594 18.6081 9.16596M19.9204 9.69481C19.7044 9.18656 19.1164 8.95001 18.6081 9.16596L19.9204 9.69481Z" fill="#767BFA"/>
<path d="M25.7148 0.203125C26.2104 -0.0559053 26.8266 0.129494 27.0898 0.617188C27.3529 1.10488 27.1644 1.71066 26.6689 1.96973L26.6602 1.97363L26.6396 1.98438L26.5605 2.02539C26.4928 2.05998 26.395 2.10917 26.2725 2.16992C26.0271 2.2916 25.6805 2.45916 25.2754 2.64453C24.8051 2.85975 24.2437 3.10446 23.6611 3.3291C24.0577 4.44585 24.0944 5.99683 23.7432 8.15039L26.7285 7.34863C27.2691 7.20347 27.823 7.51855 27.9658 8.05176C28.1084 8.58522 27.7858 9.13605 27.2451 9.28125L23.4209 10.3076C23.366 10.3224 23.3106 10.3324 23.2559 10.3379C21.8541 15.0684 18.7926 16.0859 13.9502 16.0859C9.08462 16.0859 6.01621 15.0589 4.63281 10.2695L0.754883 9.22754C0.214205 9.08235 -0.108388 8.53246 0.0341797 7.99902C0.176809 7.46556 0.730776 7.1507 1.27148 7.2959L4.16016 8.07129C3.85417 5.95122 3.90972 4.42132 4.30762 3.31738C3.73618 3.09607 3.18651 2.85591 2.72461 2.64453C2.31954 2.45916 1.97291 2.2916 1.72754 2.16992C1.60504 2.10917 1.50721 2.05998 1.43945 2.02539L1.36035 1.98438L1.33984 1.97363L1.33203 1.96973C1.33284 1.9679 1.35266 1.9288 1.80762 1.08594L1.33105 1.96973C0.835578 1.71066 0.647061 1.10488 0.910156 0.617188C1.1734 0.129494 1.78865 -0.0559052 2.28418 0.203125L2.28906 0.205078L2.30566 0.213867L2.375 0.25C2.43641 0.281344 2.52766 0.3268 2.64258 0.383789C2.87296 0.498032 3.19927 0.656333 3.58105 0.831055C4.3536 1.1846 5.31928 1.59058 6.16699 1.84375C8.87581 2.65273 10.743 3.08594 14 3.08594C17.257 3.08594 19.1242 2.65273 21.833 1.84375C22.6807 1.59058 23.6464 1.1846 24.4189 0.831055C24.8007 0.656332 25.127 0.498031 25.3574 0.383789C25.4724 0.326795 25.5636 0.281344 25.625 0.25L25.6943 0.213867L25.7109 0.205078L25.7148 0.203125ZM6.23535 3.95117C6.20227 4.039 6.17211 4.13591 6.14453 4.24316C5.95928 4.9639 5.91775 6.12005 6.19727 7.96191C6.69517 10.9487 7.60526 12.2916 8.60254 12.9932C9.67642 13.7486 11.2906 14.0859 13.9502 14.0859C16.6097 14.0859 18.2252 13.7492 19.3008 12.9932C20.3019 12.2894 21.2151 10.9411 21.7188 7.94434C22.0289 6.09881 21.9964 4.94724 21.8164 4.23535C21.791 4.13489 21.7631 4.04318 21.7324 3.95996C19.2431 4.67789 17.23 5.08594 14 5.08594C10.7562 5.08594 8.73942 4.67482 6.23535 3.95117Z" fill="#ABAFD1"/>
<path d="M25.7148 0.203125C26.2104 -0.0559053 26.8266 0.129494 27.0898 0.617188C27.3529 1.10488 27.1644 1.71066 26.6689 1.96973L26.6602 1.97363L26.6396 1.98438L26.5605 2.02539C26.4928 2.05998 26.395 2.10917 26.2725 2.16992C26.0271 2.2916 25.6805 2.45916 25.2754 2.64453C24.8051 2.85975 24.2437 3.10446 23.6611 3.3291C24.0577 4.44585 24.0944 5.99683 23.7432 8.15039L26.7285 7.34863C27.2691 7.20347 27.823 7.51855 27.9658 8.05176C28.1084 8.58522 27.7858 9.13605 27.2451 9.28125L23.4209 10.3076C23.366 10.3224 23.3106 10.3324 23.2559 10.3379C21.8541 15.0684 18.7926 16.0859 13.9502 16.0859C9.08462 16.0859 6.01621 15.0589 4.63281 10.2695L0.754883 9.22754C0.214205 9.08235 -0.108388 8.53246 0.0341797 7.99902C0.176809 7.46556 0.730776 7.1507 1.27148 7.2959L4.16016 8.07129C3.85417 5.95122 3.90972 4.42132 4.30762 3.31738C3.73618 3.09607 3.18651 2.85591 2.72461 2.64453C2.31954 2.45916 1.97291 2.2916 1.72754 2.16992C1.60504 2.10917 1.50721 2.05998 1.43945 2.02539L1.36035 1.98438L1.33984 1.97363L1.33203 1.96973C1.33284 1.9679 1.35266 1.9288 1.80762 1.08594L1.33105 1.96973C0.835578 1.71066 0.647061 1.10488 0.910156 0.617188C1.1734 0.129494 1.78865 -0.0559052 2.28418 0.203125L2.28906 0.205078L2.30566 0.213867L2.375 0.25C2.43641 0.281344 2.52766 0.3268 2.64258 0.383789C2.87296 0.498032 3.19927 0.656333 3.58105 0.831055C4.3536 1.1846 5.31928 1.59058 6.16699 1.84375C8.87581 2.65273 10.743 3.08594 14 3.08594C17.257 3.08594 19.1242 2.65273 21.833 1.84375C22.6807 1.59058 23.6464 1.1846 24.4189 0.831055C24.8007 0.656332 25.127 0.498031 25.3574 0.383789C25.4724 0.326795 25.5636 0.281344 25.625 0.25L25.6943 0.213867L25.7109 0.205078L25.7148 0.203125ZM6.23535 3.95117C6.20227 4.039 6.17211 4.13591 6.14453 4.24316C5.95928 4.9639 5.91775 6.12005 6.19727 7.96191C6.69517 10.9487 7.60526 12.2916 8.60254 12.9932C9.67642 13.7486 11.2906 14.0859 13.9502 14.0859C16.6097 14.0859 18.2252 13.7492 19.3008 12.9932C20.3019 12.2894 21.2151 10.9411 21.7188 7.94434C22.0289 6.09881 21.9964 4.94724 21.8164 4.23535C21.791 4.13489 21.7631 4.04318 21.7324 3.95996C19.2431 4.67789 17.23 5.08594 14 5.08594C10.7562 5.08594 8.73942 4.67482 6.23535 3.95117Z" stroke="#ABAFD1"/>
</svg>
