<svg width="24" height="24" viewBox="0 0 24 24" fill="none" xmlns="http://www.w3.org/2000/svg">
<path d="M3.00152 10.0001H20.9987H3.00152Z" fill="#ABAFD1"/>
<path fill-rule="evenodd" clip-rule="evenodd" d="M21.0001 5.00013H3.00013L2.9532 5.00007C2.76638 4.99973 2.46086 4.99918 2.185 5.03627C1.82706 5.08439 1.23912 5.2256 0.732361 5.73236C0.2256 6.23912 0.0843915 6.82706 0.0362686 7.185C-0.000819843 7.46086 -0.00026774 7.76637 6.98611e-05 7.95319L0.000128282 8.00013V9.00013L6.98695e-05 9.04706C-0.000267732 9.23388 -0.000819843 9.5394 0.0362686 9.81526C0.0843915 10.1732 0.2256 10.7611 0.732361 11.2679C1.15947 11.695 1.64424 11.8624 2.00038 11.9333C2.00221 14.0532 2.01747 15.825 2.14457 17.275C2.28898 18.9223 2.5867 20.3069 3.28792 21.3803C4.02256 22.505 5.11187 23.1608 6.54729 23.5309C7.94409 23.8912 9.74026 24.0001 12.0001 24.0001C14.26 24.0001 16.0562 23.8912 17.453 23.5309C18.8884 23.1608 19.9777 22.505 20.7123 21.3803C21.4136 20.3069 21.7113 18.9223 21.8557 17.275C21.9828 15.825 21.9981 14.0532 21.9999 11.9333C22.356 11.8624 22.8408 11.695 23.2679 11.2679C23.7747 10.7611 23.9159 10.1732 23.964 9.81526C24.0011 9.5394 24.0005 9.23388 24.0002 9.04706L24.0001 9.00013V8.00013L24.0002 7.9532C24.0005 7.76638 24.0011 7.46086 23.964 7.185C23.9159 6.82706 23.7747 6.23912 23.2679 5.73236C22.7611 5.2256 22.1732 5.08439 21.8153 5.03627C21.5394 4.99918 21.2339 4.99973 21.0471 5.00007L21.0001 5.00013ZM21.0001 10.0001C21.0012 10.0001 21.0023 10.0001 21.0034 10.0001C21.4726 10.0001 21.7076 9.99979 21.8537 9.85368C22.0001 9.70724 22.0001 9.47153 22.0001 9.00013V8.00013C22.0001 7.52872 22.0001 7.29302 21.8537 7.14657C21.7072 7.00013 21.4715 7.00013 21.0001 7.00013H3.00013C2.52872 7.00013 2.29302 7.00013 2.14657 7.14657C2.00013 7.29302 2.00013 7.52872 2.00013 8.00013V9.00013C2.00013 9.47153 2.00013 9.70724 2.14657 9.85368C2.29288 9.99998 2.52826 10.0001 2.99873 10.0001C2.9992 10.0001 2.99966 10.0001 3.00013 10.0001M19.9998 12.0001C19.9975 14.0936 19.9811 15.757 19.8633 17.1003C19.7265 18.6613 19.4617 19.6378 19.0379 20.2866C18.6476 20.8842 18.0494 21.3117 16.9535 21.5943C15.8191 21.8869 14.2403 22.0001 12.0001 22.0001C9.75999 22.0001 8.18117 21.8869 7.04672 21.5943C5.95088 21.3117 5.35269 20.8842 4.96234 20.2866C4.53856 19.6378 4.27378 18.6613 4.13693 17.1003C4.01918 15.757 4.00278 14.0936 4.0005 12.0001H19.9998Z" fill="#ABAFD1"/>
<path fill-rule="evenodd" clip-rule="evenodd" d="M9.50012 0C10.4795 0 11.3649 0.402234 12.0001 1.05051C12.6354 0.402234 13.5208 0 14.5001 0C16.4331 0 18.0001 1.567 18.0001 3.5C18.0001 5.433 16.4331 7 14.5001 7H13.0001V22H11.0001V7H9.50012C7.56713 7 6.00012 5.433 6.00012 3.5C6.00012 1.567 7.56713 0 9.50012 0ZM13.0001 3.5V5H14.5001C14.6754 5 14.8437 4.96992 15.0001 4.91465C15.5827 4.70873 16.0001 4.15311 16.0001 3.5C16.0001 2.67157 15.3285 2 14.5001 2C13.847 2 13.2914 2.4174 13.0855 3C13.0302 3.15639 13.0001 3.32468 13.0001 3.5ZM8.00012 3.5C8.00012 4.15311 8.41753 4.70873 9.00012 4.91465C9.15651 4.96992 9.3248 5 9.50012 5H11.0001V3.5C11.0001 3.32468 10.97 3.15639 10.9148 3C10.7089 2.4174 10.1532 2 9.50012 2C8.67169 2 8.00012 2.67157 8.00012 3.5Z" fill="#767BFA"/>
</svg>
