<svg width="24" height="24" viewBox="0 0 24 24" fill="none" xmlns="http://www.w3.org/2000/svg">
<path fill-rule="evenodd" clip-rule="evenodd" d="M2.00129 15.0114C1.96476 14.4752 1.52548 14.0504 0.988034 14.0504C0.420441 14.0504 -0.0354561 14.5258 0.00217362 15.0921C0.427057 21.4868 2.51371 23.5735 8.90838 23.9984C9.47472 24.036 9.9501 23.5801 9.9501 23.0125C9.9501 22.475 9.52533 22.0358 8.98913 21.9992C7.95281 21.9286 7.07422 21.8134 6.32548 21.647C4.96932 21.3456 4.16478 20.9037 3.63082 20.3697C3.09686 19.8357 2.65495 19.0312 2.35355 17.6751C2.18715 16.9263 2.07189 16.0477 2.00129 15.0114ZM21.9133 15.0114C21.9499 14.4752 22.3891 14.0504 22.9266 14.0504C23.4942 14.0504 23.9501 14.5258 23.9125 15.0921C23.4876 21.4868 21.4009 23.5735 15.0062 23.9984C14.4399 24.036 13.9645 23.5801 13.9645 23.0125C13.9645 22.475 14.3893 22.0358 14.9255 21.9992C15.9618 21.9286 16.8404 21.8134 17.5892 21.647C18.9453 21.3456 19.7498 20.9037 20.2838 20.3697C20.8178 19.8357 21.2597 19.0312 21.5611 17.6751C21.7275 16.9263 21.8427 16.0477 21.9133 15.0114ZM24.0005 12.0892C24.0005 12.0739 24.0005 12.0585 24.0005 12.0432C24.0005 12.0279 24.0005 12.0126 24.0005 11.9973V12.0892ZM23.9125 8.9943C23.9501 9.56065 23.4942 10.036 22.9266 10.036C22.3891 10.036 21.9499 9.61125 21.9133 9.07505C21.8427 8.03872 21.7275 7.16013 21.5611 6.41138C21.2597 5.05522 20.8178 4.25068 20.2838 3.71672C19.7498 3.18277 18.9453 2.74085 17.5892 2.43946C16.8404 2.27305 15.9618 2.15779 14.9255 2.08719C14.3893 2.05066 13.9645 1.61138 13.9645 1.07394C13.9645 0.506343 14.4399 0.0504463 15.0062 0.0880757C21.4009 0.512957 23.4876 2.59961 23.9125 8.9943ZM2.00129 9.07505C1.96476 9.61125 1.52548 10.036 0.988034 10.036C0.420441 10.036 -0.0354562 9.56065 0.00217351 8.9943C0.427057 2.59962 2.51371 0.512964 8.90838 0.0880779C9.47472 0.0504479 9.9501 0.506345 9.9501 1.07394C9.9501 1.61138 9.52533 2.05066 8.98913 2.08719C7.95281 2.15779 7.07422 2.27305 6.32548 2.43946C4.96932 2.74085 4.16478 3.18277 3.63082 3.71672C3.09686 4.25068 2.65495 5.05522 2.35355 6.41138C2.18715 7.16013 2.07189 8.03872 2.00129 9.07505ZM11.9573 0L11.9762 2.58535e-06H11.9384L11.9573 0Z" fill="#212135"/>
<path d="M12 17.0861C13.2241 17.0861 14.1727 17.0528 14.9111 16.9708C15.6583 16.8878 16.1185 16.7616 16.4053 16.6183C16.6565 16.4927 16.7691 16.3585 16.8438 16.1906C16.9362 15.9823 17 15.6506 17 15.0861C17 14.5215 16.9362 14.1898 16.8438 13.9816C16.7691 13.8136 16.6565 13.6794 16.4053 13.5538C16.1185 13.4105 15.6583 13.2843 14.9111 13.2013C14.1727 13.1193 13.2241 13.0861 12 13.0861C10.7759 13.0861 9.82725 13.1193 9.08887 13.2013C8.3417 13.2843 7.88151 13.4105 7.59473 13.5538C7.3435 13.6794 7.23089 13.8136 7.15625 13.9816C7.06377 14.1898 7 14.5215 7 15.0861C7 15.6506 7.06377 15.9823 7.15625 16.1906C7.23089 16.3585 7.3435 16.4927 7.59473 16.6183C7.88151 16.7616 8.3417 16.8878 9.08887 16.9708C9.82725 17.0528 10.7759 17.0861 12 17.0861Z" stroke="#212135" stroke-width="2" stroke-linecap="round" stroke-linejoin="round"/>
<circle cx="3" cy="3" r="2" transform="matrix(-1 0 0 1 15 5.08606)" stroke="#212135" stroke-width="2"/>
</svg>
