<svg width="24" height="24" viewBox="0 0 24 24" fill="none" xmlns="http://www.w3.org/2000/svg">
<path d="M16.3477 1.00195C17.3042 0.965338 18.297 1.54713 18.7744 2.41406C19.6379 3.98234 20.7707 6.1356 21.6543 8.03223C22.0972 8.98288 22.4682 9.85033 22.7119 10.5381C22.8341 10.883 22.9176 11.1619 22.9629 11.3721C22.9927 11.5104 22.9982 11.5828 23 11.6064C22.9731 11.7098 22.882 11.9797 22.6914 12.4209C22.4951 12.8754 22.2195 13.4542 21.876 14.1084C21.1879 15.4188 20.2393 17.0039 19.1211 18.4766C17.9958 19.9586 16.7379 21.2747 15.4434 22.1025C14.1572 22.925 12.938 23.2065 11.7812 22.8447C10.9595 22.5877 8.90342 21.5461 6.79492 20.3369C5.76114 19.7441 4.74704 19.1294 3.9082 18.5811C3.04716 18.0182 2.43544 17.5659 2.15625 17.2939C1.28462 16.4447 0.933355 15.227 1.01074 13.6943C1.08855 12.1534 1.5985 10.4109 2.3125 8.70508C3.0222 7.00958 3.9092 5.4075 4.68848 4.16211C5.45 2.94511 6.05647 2.15387 6.27051 1.92871C6.29571 1.91701 6.35439 1.89238 6.46094 1.8584C6.66026 1.79484 6.94105 1.72839 7.30176 1.66406C8.02017 1.53597 8.96335 1.42991 10.0166 1.3418C12.1188 1.16595 14.5667 1.07012 16.3477 1.00195Z" stroke="#212135" stroke-width="2" stroke-linecap="round" stroke-linejoin="round"/>
<circle cx="3.02944" cy="3.02944" r="2.02944" transform="matrix(0.866025 0.5 0.5 -0.866025 10.0024 8.7178)" stroke="#212135" stroke-width="2"/>
<rect x="5.224" y="12.9551" width="10.0999" height="2.01963" rx="1.00981" transform="rotate(30 5.224 12.9551)" fill="#212135"/>
</svg>
