<svg width="24" height="24" viewBox="0 0 24 24" fill="none" xmlns="http://www.w3.org/2000/svg">
<path d="M12 23C14.4477 23 16.3465 22.8672 17.8271 22.5381C19.2964 22.2115 20.2925 21.7056 20.999 20.999C21.7056 20.2925 22.2115 19.2964 22.5381 17.8271C22.8672 16.3465 23 14.4477 23 12C23 9.55232 22.8672 7.65353 22.5381 6.17285C22.2115 4.70364 21.7056 3.70752 20.999 3.00098C20.2925 2.29443 19.2964 1.78846 17.8271 1.46191C16.3465 1.13284 14.4477 1 12 1C9.55232 1 7.65353 1.13284 6.17285 1.46191C4.70364 1.78846 3.70752 2.29443 3.00098 3.00098C2.29443 3.70752 1.78846 4.70364 1.46191 6.17285C1.13284 7.65353 1 9.55232 1 12C1 14.4477 1.13284 16.3465 1.46191 17.8271C1.78846 19.2964 2.29443 20.2925 3.00098 20.999C3.70752 21.7056 4.70364 22.2115 6.17285 22.5381C7.65353 22.8672 9.55232 23 12 23Z" stroke="#212135" stroke-width="2" stroke-linecap="round" stroke-linejoin="round"/>
<path d="M8.66658 7.01118C9.59777 6.38898 10.6834 6.04056 11.8 6.00333C11.9104 5.99965 12 6.08954 12 6.2L12 11.8C12 11.9105 12.0895 12 12.2 12L17.8 12C17.9105 12 18.0003 12.0896 17.9967 12.2C17.9594 13.3166 17.611 14.4022 16.9888 15.3334C16.3295 16.3201 15.3925 17.0892 14.2961 17.5433C13.1997 17.9974 11.9933 18.1162 10.8295 17.8847C9.66557 17.6532 8.59647 17.0818 7.75736 16.2426C6.91824 15.4035 6.3468 14.3344 6.11529 13.1705C5.88378 12.0067 6.0026 10.8003 6.45672 9.7039C6.91085 8.60754 7.67988 7.67047 8.66658 7.01118Z" stroke="#212135" stroke-width="2" stroke-linecap="round" stroke-linejoin="round"/>
</svg>
