<svg width="24" height="24" viewBox="0 0 24 24" fill="none" xmlns="http://www.w3.org/2000/svg">
<path d="M5.5 10C6.60917 10 7.4324 9.93955 8.05273 9.80176C8.66178 9.6664 9.01259 9.46984 9.24121 9.24121C9.46984 9.01259 9.6664 8.66178 9.80176 8.05273C9.93955 7.4324 10 6.60917 10 5.5C10 4.39083 9.93955 3.5676 9.80176 2.94727C9.6664 2.33822 9.46984 1.98741 9.24121 1.75879C9.01259 1.53016 8.66178 1.3336 8.05273 1.19824C7.4324 1.06045 6.60917 1 5.5 1C4.39083 1 3.5676 1.06045 2.94727 1.19824C2.33822 1.3336 1.98741 1.53016 1.75879 1.75879C1.53016 1.98741 1.3336 2.33822 1.19824 2.94727C1.06045 3.5676 1 4.39083 1 5.5C1 6.60917 1.06045 7.4324 1.19824 8.05273C1.3336 8.66178 1.53016 9.01259 1.75879 9.24121C1.98741 9.46984 2.33822 9.6664 2.94727 9.80176C3.5676 9.93955 4.39083 10 5.5 10Z" stroke="#212135" stroke-width="2" stroke-linecap="round" stroke-linejoin="round"/>
<path d="M5.5 23C6.60917 23 7.4324 22.9396 8.05273 22.8018C8.66178 22.6664 9.01259 22.4698 9.24121 22.2412C9.46984 22.0126 9.6664 21.6618 9.80176 21.0527C9.93955 20.4324 10 19.6092 10 18.5C10 17.3908 9.93955 16.5676 9.80176 15.9473C9.6664 15.3382 9.46984 14.9874 9.24121 14.7588C9.01259 14.5302 8.66178 14.3336 8.05273 14.1982C7.4324 14.0604 6.60917 14 5.5 14C4.39083 14 3.5676 14.0604 2.94727 14.1982C2.33822 14.3336 1.98741 14.5302 1.75879 14.7588C1.53016 14.9874 1.3336 15.3382 1.19824 15.9473C1.06045 16.5676 1 17.3908 1 18.5C1 19.6092 1.06045 20.4324 1.19824 21.0527C1.3336 21.6618 1.53016 22.0126 1.75879 22.2412C1.98741 22.4698 2.33822 22.6664 2.94727 22.8018C3.5676 22.9396 4.39083 23 5.5 23Z" stroke="#212135" stroke-width="2" stroke-linecap="round" stroke-linejoin="round"/>
<path d="M18.5 10C19.6092 10 20.4324 9.93955 21.0527 9.80176C21.6618 9.6664 22.0126 9.46984 22.2412 9.24121C22.4698 9.01259 22.6664 8.66178 22.8018 8.05273C22.9396 7.4324 23 6.60917 23 5.5C23 4.39083 22.9396 3.5676 22.8018 2.94727C22.6664 2.33822 22.4698 1.98741 22.2412 1.75879C22.0126 1.53016 21.6618 1.3336 21.0527 1.19824C20.4324 1.06045 19.6092 1 18.5 1C17.3908 1 16.5676 1.06045 15.9473 1.19824C15.3382 1.3336 14.9874 1.53016 14.7588 1.75879C14.5302 1.98741 14.3336 2.33822 14.1982 2.94727C14.0604 3.5676 14 4.39083 14 5.5C14 6.60917 14.0604 7.4324 14.1982 8.05273C14.3336 8.66178 14.5302 9.01259 14.7588 9.24121C14.9874 9.46984 15.3382 9.6664 15.9473 9.80176C16.5676 9.93955 17.3908 10 18.5 10Z" stroke="#212135" stroke-width="2" stroke-linecap="round" stroke-linejoin="round"/>
<path d="M18.5 23C19.6092 23 20.4324 22.9396 21.0527 22.8018C21.6618 22.6664 22.0126 22.4698 22.2412 22.2412C22.4698 22.0126 22.6664 21.6618 22.8018 21.0527C22.9396 20.4324 23 19.6092 23 18.5C23 17.3908 22.9396 16.5676 22.8018 15.9473C22.6664 15.3382 22.4698 14.9874 22.2412 14.7588C22.0126 14.5302 21.6618 14.3336 21.0527 14.1982C20.4324 14.0604 19.6092 14 18.5 14C17.3908 14 16.5676 14.0604 15.9473 14.1982C15.3382 14.3336 14.9874 14.5302 14.7588 14.7588C14.5302 14.9874 14.3336 15.3382 14.1982 15.9473C14.0604 16.5676 14 17.3908 14 18.5C14 19.6092 14.0604 20.4324 14.1982 21.0527C14.3336 21.6618 14.5302 22.0126 14.7588 22.2412C14.9874 22.4698 15.3382 22.6664 15.9473 22.8018C16.5676 22.9396 17.3908 23 18.5 23Z" stroke="#212135" stroke-width="2" stroke-linecap="round" stroke-linejoin="round"/>
</svg>
