<svg width="22" height="22" viewBox="0 0 22 22" fill="none" xmlns="http://www.w3.org/2000/svg">
<path d="M1.06055 2.37402C0.788897 1.49247 1.49248 0.7889 2.37402 1.06055C5.47519 2.01617 8.57656 2.97114 11.6777 3.92676C13.5892 4.51578 15.5006 5.10531 17.4121 5.69434C17.857 5.83143 18.2343 5.94741 18.5 6.0293C18.6326 6.07017 18.7377 6.10286 18.8096 6.125C18.8455 6.13607 18.8739 6.14465 18.8926 6.15039C18.9016 6.15319 18.9084 6.15579 18.9131 6.15723C18.9155 6.15796 18.9177 6.15783 18.9189 6.1582L18.9199 6.15918H18.9209C20.5517 6.66193 21.2818 8.02181 20.8867 9.0791C20.2262 10.8468 19.2991 12.8806 16.0898 16.0898C12.8806 19.2991 10.8468 20.2262 9.0791 20.8867C8.0218 21.2818 6.66193 20.5517 6.15918 18.9209V18.9199L6.1582 18.9189C6.15788 18.9179 6.15787 18.9162 6.15723 18.9141C6.15594 18.9099 6.15389 18.9037 6.15137 18.8955C6.14628 18.879 6.13877 18.8543 6.12891 18.8223C6.10907 18.7579 6.0793 18.6631 6.04199 18.542C5.96731 18.2996 5.86005 17.951 5.72949 17.5273C5.19687 15.7989 4.27741 12.8154 3.60938 10.6475C3.11159 9.03204 2.47481 6.96328 1.96191 5.29883C1.70546 4.46659 1.47959 3.73513 1.31836 3.21191C1.23778 2.9504 1.17333 2.74084 1.12891 2.59668C1.10669 2.52458 1.08975 2.46839 1.07812 2.43066C1.07243 2.41218 1.06741 2.39826 1.06445 2.38867C1.06297 2.38385 1.06227 2.37939 1.06152 2.37695L1.06055 2.375V2.37402Z" stroke="#212135" stroke-width="2"/>
</svg>
