<svg width="24" height="24" viewBox="0 0 24 24" fill="none" xmlns="http://www.w3.org/2000/svg">
<path d="M12 23C16.1443 23 18.8192 22.1417 20.4805 20.4805C22.1417 18.8192 23 16.1443 23 12C23 10.9546 22.9449 9.99805 22.835 9.125C22.4577 6.12851 21.4416 4.16749 19.7949 2.92285C18.1164 1.65426 15.6155 1 12 1C7.72433 1 5.01247 1.91264 3.3623 3.68164C1.80477 5.35139 1 7.98743 1 12C1 16.6044 2.05682 19.3963 4.11621 21.0078C5.79511 22.3214 8.3195 23 12 23Z" stroke="#212135" stroke-width="2" stroke-linecap="round" stroke-linejoin="round"/>
<circle cx="4" cy="4" r="3" transform="matrix(-1 0 0 1 16 8)" stroke="#212135" stroke-width="2"/>
</svg>
