<svg width="22" height="24" viewBox="0 0 22 24" fill="none" xmlns="http://www.w3.org/2000/svg">
<path d="M11 23C15.5563 23 17.87 22.4377 19.1602 21.0303C19.8049 20.3269 20.2733 19.3265 20.5752 17.8447C20.8785 16.3558 21 14.4498 21 12C21 9.55023 20.8785 7.64419 20.5752 6.15527C20.2733 4.67345 19.8049 3.6731 19.1602 2.96973C17.87 1.56226 15.5563 1 11 1C6.44371 1 4.13002 1.56226 2.83984 2.96973C2.19511 3.6731 1.72673 4.67345 1.4248 6.15527C1.12148 7.64419 1 9.55023 1 12C1 14.4498 1.12148 16.3558 1.4248 17.8447C1.72673 19.3265 2.19511 20.3269 2.83984 21.0303C4.13002 22.4377 6.44371 23 11 23Z" stroke="#212135" stroke-width="2" stroke-linecap="round" stroke-linejoin="round"/>
<circle cx="11" cy="7" r="2" stroke="#212135" stroke-width="2"/>
<circle cx="11" cy="16" r="3" stroke="#212135" stroke-width="2"/>
</svg>
