<svg width="24" height="16" viewBox="0 0 24 16" fill="none" xmlns="http://www.w3.org/2000/svg">
<path d="M12 15C14.7476 15 16.8199 14.9407 18.3955 14.75C19.9834 14.5579 20.9463 14.2443 21.5586 13.8232C22.122 13.4357 22.4789 12.8939 22.7012 11.9893C22.9347 11.0389 23 9.76704 23 8C23 6.23296 22.9347 4.96105 22.7012 4.01074C22.4789 3.10611 22.122 2.56434 21.5586 2.17676C20.9463 1.75566 19.9834 1.44214 18.3955 1.25C16.8199 1.05934 14.7476 1 12 1C9.2524 1 7.18006 1.05934 5.60449 1.25C4.01665 1.44214 3.05366 1.75566 2.44141 2.17676C1.87796 2.56434 1.52114 3.10611 1.29883 4.01074C1.06531 4.96105 1 6.23296 1 8C1 9.76704 1.06531 11.0389 1.29883 11.9893C1.52114 12.8939 1.87796 13.4357 2.44141 13.8232C3.05366 14.2443 4.01665 14.5579 5.60449 14.75C7.18006 14.9407 9.2524 15 12 15Z" stroke="#212135" stroke-width="2" stroke-linecap="round" stroke-linejoin="round"/>
<path d="M17 6H19M8 10H16" stroke="#212135" stroke-width="2" stroke-linecap="round" stroke-linejoin="round"/>
<path fill-rule="evenodd" clip-rule="evenodd" d="M5 7C5.55228 7 6 6.55228 6 6C6 5.44772 5.55228 5 5 5C4.44772 5 4 5.44772 4 6C4 6.55228 4.44772 7 5 7ZM5 11C5.55228 11 6 10.5523 6 10C6 9.44772 5.55228 9 5 9C4.44772 9 4 9.44772 4 10C4 10.5523 4.44772 11 5 11ZM9 6C9 6.55228 8.55228 7 8 7C7.44772 7 7 6.55228 7 6C7 5.44772 7.44772 5 8 5C8.55228 5 9 5.44772 9 6ZM11 7C11.5523 7 12 6.55228 12 6C12 5.44772 11.5523 5 11 5C10.4477 5 10 5.44772 10 6C10 6.55228 10.4477 7 11 7ZM15 6C15 6.55228 14.5523 7 14 7C13.4477 7 13 6.55228 13 6C13 5.44772 13.4477 5 14 5C14.5523 5 15 5.44772 15 6ZM19 11C19.5523 11 20 10.5523 20 10C20 9.44772 19.5523 9 19 9C18.4477 9 18 9.44772 18 10C18 10.5523 18.4477 11 19 11Z" fill="#212135"/>
</svg>
