<svg width="20" height="24" viewBox="0 0 20 24" fill="none" xmlns="http://www.w3.org/2000/svg">
<path d="M9.99609 1C13.984 0.983602 16.5232 1.5675 17.8408 3.61035C18.4691 4.58476 18.7396 5.78201 18.8701 7.11719C18.9989 8.435 19 10.0129 19 11.8193V11.9004C19 16.4489 18.8238 19.5769 18.6914 21.2842C18.5788 22.7366 16.9538 23.4838 15.7773 22.6582L15.7676 22.6514C14.7357 21.9455 13.7803 21.1853 13.0361 20.5928C12.693 20.3196 12.3815 20.0713 12.1377 19.8906C11.686 19.5558 11.3085 19.3263 10.959 19.1855C10.5785 19.0323 10.271 19 10 19C9.72899 19 9.42145 19.0323 9.04102 19.1855C8.6915 19.3263 8.31406 19.5558 7.8623 19.8906C7.61855 20.0713 7.30695 20.3196 6.96387 20.5928C6.2197 21.1852 5.26435 21.9455 4.23242 22.6514L4.22266 22.6582C3.04615 23.4838 1.42123 22.7366 1.30859 21.2842C1.17619 19.5769 0.999979 16.449 1 11.9004V11.8184C0.999968 10.0126 1.00106 8.43875 1.12988 7.12598C1.2605 5.79517 1.53173 4.60351 2.16113 3.63281C3.47741 1.60286 6.01278 1.0164 9.99609 1Z" stroke="#212135" stroke-width="2" stroke-linecap="round" stroke-linejoin="round"/>
<path d="M12 5.00391C13 5.00391 13.5 5.00011 14.25 5.74817C15 6.49623 15 9.00001 15 10" stroke="#212135" stroke-width="2" stroke-linecap="round" stroke-linejoin="round"/>
</svg>
