<svg width="25" height="21" viewBox="0 0 25 21" fill="none" xmlns="http://www.w3.org/2000/svg">
<path d="M1 10.502C1 8.89636 1.45957 7.70066 2.35352 6.8916C3.26443 6.06728 4.78635 5.49809 7.20703 5.49805C8.64328 5.49805 9.72844 5.17904 10.5908 4.64453C11.4381 4.11933 11.9947 3.43009 12.4287 2.84375C12.8966 2.21162 13.1722 1.7871 13.5508 1.45996C13.8632 1.1901 14.242 1 14.8906 1C15.5572 1.00008 16.0599 1.20207 16.4717 1.55566C16.9029 1.92613 17.288 2.51073 17.6035 3.35059C18.2417 5.04945 18.5 7.52526 18.5 10.502C18.5 13.4785 18.2416 15.9524 17.6035 17.6504C17.2879 18.4902 16.903 19.0751 16.4717 19.4453C16.06 19.7986 15.5573 19.9999 14.8906 20C14.2461 20 13.9158 19.8136 13.6553 19.5684C13.3121 19.2453 13.0933 18.8457 12.6426 18.1855C12.2296 17.5808 11.6828 16.8773 10.7939 16.3447C9.90026 15.8094 8.7519 15.499 7.20703 15.499C4.50257 15.499 3.00957 14.9188 2.18164 14.127C1.36762 13.3482 1.00007 12.1755 1 10.502Z" stroke="#212135" stroke-width="2"/>
<path d="M22.5 7C22.5 7 22.8891 7.6408 23.0714 8.16667C23.3469 8.96092 23.5 9.52681 23.5 10.5C23.5 11.4732 23.3469 12.0391 23.0714 12.8333C22.8891 13.3592 22.5 14 22.5 14" stroke="#212135" stroke-width="2" stroke-linecap="round" stroke-linejoin="round"/>
</svg>
