<svg width="20" height="24" viewBox="0 0 20 24" fill="none" xmlns="http://www.w3.org/2000/svg">
<path d="M10.0001 23C13.983 23 15.5406 22.5163 16.4249 21.5322C16.8863 21.0185 17.2434 20.283 17.5851 19.1543C17.9286 18.0197 18.2239 16.6097 18.63 14.7832C19.4078 11.2852 18.8951 9.54275 17.7286 8.56641C17.0973 8.03797 16.1722 7.63705 14.8663 7.37402C13.5631 7.11156 11.9484 7 10.0001 7C8.05182 7 6.43713 7.11156 5.13391 7.37402C3.82804 7.63705 2.90293 8.03797 2.27161 8.56641C1.10518 9.54275 0.592423 11.2852 1.37024 14.7832C1.77638 16.6097 2.07167 18.0197 2.41516 19.1543C2.75689 20.283 3.11392 21.0185 3.57532 21.5322C4.45964 22.5163 6.01725 23 10.0001 23Z" stroke="#212135" stroke-width="2" stroke-linecap="round" stroke-linejoin="round"/>
<path d="M10.0001 12V18M6.00012 12V18M14.0001 12V18" stroke="#212135" stroke-width="2" stroke-linecap="round" stroke-linejoin="round"/>
<path fill-rule="evenodd" clip-rule="evenodd" d="M12.0001 2.07058C15.6539 2.33516 18.1084 3.29618 19.5158 4.14321C19.989 4.428 20.1417 5.04247 19.8569 5.51566C19.5721 5.98886 18.9577 6.14158 18.4845 5.85679C17.1809 5.07224 14.4556 4 10.0001 4C5.52989 4 2.72875 5.0786 1.54036 5.84152C1.0756 6.13988 0.456973 6.00499 0.158611 5.54023C-0.139752 5.07548 -0.00486231 4.45685 0.459894 4.15848C1.8081 3.29297 4.33317 2.3338 8.00013 2.07024V1C8.00013 0.447715 8.44784 0 9.00013 0H11.0001C11.5524 0 12.0001 0.447715 12.0001 1V2.07058Z" fill="#212135"/>
</svg>
