<svg width="24" height="24" viewBox="0 0 24 24" fill="none" xmlns="http://www.w3.org/2000/svg">
<path d="M12 15C12.4755 15 12.917 15.0017 13.2666 14.9629C13.6089 14.9249 14.0842 14.8299 14.457 14.457C14.8299 14.0842 14.9249 13.6089 14.9629 13.2666C15.0017 12.917 15 12.4755 15 12C15 11.5245 15.0017 11.083 14.9629 10.7334C14.9249 10.3911 14.8299 9.9158 14.457 9.54297C14.0842 9.17014 13.6089 9.07514 13.2666 9.03711C12.917 8.99827 12.4755 9 12 9C11.5245 9 11.083 8.99827 10.7334 9.03711C10.3911 9.07514 9.9158 9.17014 9.54297 9.54297C9.17014 9.9158 9.07514 10.3911 9.03711 10.7334C8.99827 11.083 9 11.5245 9 12C9 12.4755 8.99827 12.917 9.03711 13.2666C9.07514 13.6089 9.17014 14.0842 9.54297 14.457C9.9158 14.8299 10.3911 14.9249 10.7334 14.9629C11.083 15.0017 11.5245 15 12 15Z" stroke="#212135" stroke-width="2" stroke-linecap="round" stroke-linejoin="round"/>
<path fill-rule="evenodd" clip-rule="evenodd" d="M12 19C10.0861 19 8.75129 18.9979 7.74416 18.8625C6.76579 18.7309 6.2477 18.4903 5.87868 18.1213C5.50966 17.7523 5.26907 17.2342 5.13753 16.2558C5.00212 15.2487 5 13.9139 5 12V5H12C13.9139 5 15.2487 5.00212 16.2558 5.13753C17.2342 5.26907 17.7523 5.50966 18.1213 5.87868C18.4903 6.2477 18.7309 6.76579 18.8625 7.74416C18.9979 8.7513 19 10.0861 19 12V19H12ZM21 19V12V11.9269C21 10.1034 21 8.63363 20.8446 7.47766C20.6833 6.27752 20.3381 5.26702 19.5355 4.46447C18.733 3.66191 17.7225 3.31672 16.5223 3.15536C15.3664 2.99995 13.8966 2.99997 12.0732 3H12.0732L12 3H5V1C5 0.447716 4.55228 0 4 0C3.44772 0 3 0.447716 3 1V3H1C0.447715 3 0 3.44772 0 4C0 4.55228 0.447715 5 1 5H3V12V12.0731C2.99997 13.8966 2.99995 15.3664 3.15536 16.5223C3.31672 17.7225 3.66191 18.733 4.46447 19.5355C5.26702 20.3381 6.27752 20.6833 7.47766 20.8446C8.63362 21 10.1034 21 11.9268 21H12H19V23C19 23.5523 19.4477 24 20 24C20.5523 24 21 23.5523 21 23V21H23C23.5523 21 24 20.5523 24 20C24 19.4477 23.5523 19 23 19H21Z" fill="#212135"/>
</svg>
