<svg width="24" height="24" viewBox="0 0 24 24" fill="none" xmlns="http://www.w3.org/2000/svg">
<path fill-rule="evenodd" clip-rule="evenodd" d="M2.49924 10.5657C2.15499 8.15595 4.02484 6 6.45903 6H17.541C19.9752 6 21.845 8.15595 21.5008 10.5657L20.4806 17.7071C20.1287 20.1704 18.0191 22 15.5308 22H8.46919C5.98093 22 3.87133 20.1704 3.51944 17.7071L2.49924 10.5657ZM6.45903 8C5.24193 8 4.30701 9.07798 4.47914 10.2828L5.49934 17.4243C5.71047 18.9022 6.97624 20 8.46919 20H15.5308C17.0238 20 18.2895 18.9022 18.5007 17.4243L19.5209 10.2828C19.693 9.07798 18.7581 8 17.541 8H6.45903Z" fill="black"/>
<path fill-rule="evenodd" clip-rule="evenodd" d="M9.44722 2.10557C9.9412 2.35256 10.1414 2.95323 9.89444 3.44721L8.10558 7.02492C7.85859 7.5189 7.25792 7.71912 6.76394 7.47213C6.26996 7.22514 6.06974 6.62447 6.31673 6.13049L8.10558 2.55278C8.35257 2.0588 8.95324 1.85858 9.44722 2.10557Z" fill="black"/>
<path fill-rule="evenodd" clip-rule="evenodd" d="M14.5528 2.10558C15.0468 1.85859 15.6474 2.05882 15.8944 2.5528L17.6833 6.1305C17.9303 6.62448 17.73 7.22516 17.2361 7.47214C16.7421 7.71913 16.1414 7.51891 15.8944 7.02493L14.1056 3.44722C13.8586 2.95324 14.0588 2.35257 14.5528 2.10558Z" fill="black"/>
<path fill-rule="evenodd" clip-rule="evenodd" d="M8.79289 11.2929C9.18342 10.9024 9.81658 10.9024 10.2071 11.2929L12 13.0858L13.7929 11.2929C14.1834 10.9024 14.8166 10.9024 15.2071 11.2929C15.5976 11.6834 15.5976 12.3166 15.2071 12.7071L13.4142 14.5L15.2071 16.2929C15.5976 16.6834 15.5976 17.3166 15.2071 17.7071C14.8166 18.0976 14.1834 18.0976 13.7929 17.7071L12 15.9142L10.2071 17.7071C9.81658 18.0976 9.18342 18.0976 8.79289 17.7071C8.40237 17.3166 8.40237 16.6834 8.79289 16.2929L10.5858 14.5L8.79289 12.7071C8.40237 12.3166 8.40237 11.6834 8.79289 11.2929Z" fill="black"/>
</svg>
