<svg width="24" height="24" viewBox="0 0 24 24" fill="none" xmlns="http://www.w3.org/2000/svg">
<path fill-rule="evenodd" clip-rule="evenodd" d="M12.9349 6.98742C13.1407 6.4749 13.723 6.22624 14.2355 6.43201C15.0144 6.74473 15.719 7.21738 16.3038 7.81944C16.8886 8.42149 17.3406 9.13954 17.6306 9.9272C17.8214 10.4455 17.5559 11.0203 17.0376 11.2111C16.5193 11.4019 15.9445 11.1364 15.7537 10.6181C15.5604 10.093 15.2591 9.61433 14.8692 9.21296C14.4793 8.81159 14.0096 8.49649 13.4903 8.28801C12.9778 8.08223 12.7291 7.49994 12.9349 6.98742Z" fill="black"/>
<path fill-rule="evenodd" clip-rule="evenodd" d="M13.3635 3.04786C13.5064 2.51439 14.0547 2.19781 14.5882 2.34075C16.2838 2.79507 17.8298 3.68771 19.0711 4.92894C20.3123 6.17017 21.2049 7.71626 21.6593 9.41182C21.8022 9.94529 21.4856 10.4936 20.9522 10.6366C20.4187 10.7795 19.8704 10.4629 19.7274 9.92946C19.364 8.57301 18.6498 7.33614 17.6569 6.34315C16.6639 5.35017 15.427 4.63606 14.0706 4.2726C13.5371 4.12966 13.2205 3.58132 13.3635 3.04786Z" fill="black"/>
<path fill-rule="evenodd" clip-rule="evenodd" d="M4.96833 5.21549C7.38653 4.4089 9.83018 5.92366 10.5089 8.37611C10.9715 10.0472 10.5334 11.7996 9.46531 12.9995C9.68407 13.2828 9.92311 13.5552 10.1826 13.8149C10.4408 14.0733 10.7116 14.3115 10.9932 14.5295C12.1926 13.4529 13.9502 13.01 15.6262 13.4745C18.0782 14.1542 19.5901 16.5997 18.7848 19.0178C18.2564 20.6044 17.2711 21.5683 15.9571 21.8856C14.7361 22.1805 13.4196 21.867 12.2585 21.3844C9.91992 20.4122 7.61074 18.4974 6.55613 17.442C5.47664 16.3617 3.57003 14.0491 2.60671 11.715C2.12834 10.5559 1.82033 9.24429 2.11584 8.02889C2.43378 6.7213 3.39283 5.74096 4.96833 5.21549ZM8.58141 8.90958C8.16872 7.4185 6.79749 6.7137 5.60116 7.11273C4.54956 7.46347 4.18482 7.98485 4.05922 8.50141C3.91121 9.11016 4.03992 9.94515 4.45545 10.952C5.27992 12.9497 6.9898 15.0465 7.97088 16.0283C8.92821 16.9863 11.0228 18.7048 13.0262 19.5376C14.0361 19.9574 14.8752 20.0894 15.4876 19.9415C16.007 19.8161 16.5331 19.4492 16.8872 18.3858C17.2866 17.1867 16.5807 15.8145 15.092 15.4018C13.9841 15.0948 12.8451 15.4506 12.1672 16.1766C11.7294 16.6454 10.895 16.9126 10.1851 16.4171C9.68553 16.0684 9.21113 15.6722 8.76787 15.2286C8.3239 14.7843 7.92751 14.3087 7.57877 13.8081C7.08635 13.1012 7.3491 12.27 7.81452 11.8312C8.53515 11.1518 8.88742 10.0153 8.58141 8.90958Z" fill="black"/>
</svg>
