<svg width="24" height="24" viewBox="0 0 24 24" fill="none" xmlns="http://www.w3.org/2000/svg">
<path fill-rule="evenodd" clip-rule="evenodd" d="M18.6205 2.6535C20.2046 2.20089 21.6692 3.66548 21.2166 5.24962L17.217 19.2483C16.5503 21.5817 13.4334 22.02 12.149 19.961L9.35159 15.4762C9.10954 15.0882 8.78196 14.7606 8.39391 14.5185L3.90916 11.7211C1.85011 10.4368 2.28841 7.31981 4.62182 6.65313L18.6205 2.6535ZM19.2226 4.57407C19.2124 4.57122 19.1969 4.56885 19.1699 4.57655L5.17126 8.57617C4.50457 8.76666 4.37934 9.65721 4.96764 10.0242L9.4524 12.8216C10.0992 13.225 10.6451 13.771 11.0485 14.4177L13.846 18.9025C14.2129 19.4908 15.1035 19.3655 15.2939 18.6989L19.2936 4.70017C19.3013 4.67323 19.2989 4.65775 19.2961 4.64755C19.2923 4.63415 19.2836 4.61749 19.2681 4.60199C19.2526 4.5865 19.236 4.5778 19.2226 4.57407Z" fill="black"/>
<path fill-rule="evenodd" clip-rule="evenodd" d="M14.4351 9.43498C14.8257 9.82551 14.8257 10.4587 14.4351 10.8492L10.8996 14.3847C10.5091 14.7753 9.87592 14.7753 9.4854 14.3847C9.09487 13.9942 9.09487 13.361 9.4854 12.9705L13.0209 9.43498C13.4115 9.04446 14.0446 9.04446 14.4351 9.43498Z" fill="black"/>
</svg>
