<svg width="24" height="24" viewBox="0 0 24 24" fill="none" xmlns="http://www.w3.org/2000/svg">
<path fill-rule="evenodd" clip-rule="evenodd" d="M10.2864 3.90809C11.0637 2.61645 12.9363 2.61645 13.7136 3.90809L15.6008 7.04394L19.1663 7.86972C20.635 8.20986 21.2136 9.9908 20.2254 11.1292L17.8262 13.8931L18.1427 17.5393C18.273 19.0411 16.758 20.1418 15.37 19.5537L12 18.126L8.63004 19.5537C7.24196 20.1418 5.72701 19.0411 5.85735 17.5393L6.17379 13.8931L3.7746 11.1292C2.78638 9.9908 3.36504 8.20986 4.83367 7.86972L8.3992 7.04394L10.2864 3.90809ZM12 4.93936L10.1128 8.07521C9.83357 8.53923 9.37807 8.87017 8.85046 8.99236L5.28493 9.81815L7.68412 12.582C8.03914 12.991 8.21312 13.5264 8.1663 14.066L7.84986 17.7122L11.2198 16.2845C11.7185 16.0732 12.2815 16.0732 12.7802 16.2845L16.1501 17.7122L15.8337 14.066C15.7869 13.5264 15.9609 12.991 16.3159 12.582L18.7151 9.81815L15.1495 8.99236C14.6219 8.87017 14.1664 8.53923 13.8872 8.07521L12 4.93936Z" fill="black"/>
</svg>
