<svg width="24" height="24" viewBox="0 0 24 24" fill="none" xmlns="http://www.w3.org/2000/svg">
<path fill-rule="evenodd" clip-rule="evenodd" d="M2 8C2 5.79086 3.79086 4 6 4H13C15.2091 4 17 5.79086 17 8V16C17 18.2091 15.2091 20 13 20H6C3.79086 20 2 18.2091 2 16V8ZM6 6C4.89543 6 4 6.89543 4 8V16C4 17.1046 4.89543 18 6 18H13C14.1046 18 15 17.1046 15 16V8C15 6.89543 14.1046 6 13 6H6Z" fill="black"/>
<path fill-rule="evenodd" clip-rule="evenodd" d="M18.6621 6.75879C19.9491 5.60045 22 6.51384 22 8.24538V15.7547C22 17.4862 19.9491 18.3996 18.6621 17.2412L15.6621 14.5412C15.2406 14.162 15 13.6216 15 13.0547V10.9454C15 10.3784 15.2406 9.83808 15.6621 9.45879L18.6621 6.75879ZM20 8.24538L17 10.9454L17 13.0547L20 15.7547L20 8.24538Z" fill="black"/>
</svg>
