<svg width="24" height="24" viewBox="0 0 24 24" fill="none" xmlns="http://www.w3.org/2000/svg">
<g clip-path="url(#clip0_1_25180)">
<path opacity="0.16" d="M4 4.00098H20V18.001C20 19.1055 19.1046 20.001 18 20.001H6C4.89543 20.001 4 19.1055 4 18.001V4.00098Z" fill="#292929"/>
<path d="M4 4.00104H20V18.001C20 19.1056 19.1046 20.001 18 20.001H6C4.89543 20.001 4 19.1056 4 18.001V4.00104Z" stroke="#292929" stroke-width="2" stroke-linecap="round" stroke-linejoin="round"/>
<path d="M12.9999 7L9.47502 12.3793M15 14C15 15.6569 13.6569 17 12 17C10.3431 17 9 15.6569 9 14C9 12.3431 10.3431 11 12 11C13.6569 11 15 12.3431 15 14Z" stroke="#292929" stroke-width="2" stroke-linecap="round"/>
</g>
<defs>
<clipPath id="clip0_1_25180">
<rect width="24" height="24" fill="white"/>
</clipPath>
</defs>
</svg>
