<svg width="24" height="24" viewBox="0 0 24 24" fill="none" xmlns="http://www.w3.org/2000/svg">
<g clip-path="url(#clip0_1_24638)">
<path opacity="0.16" fill-rule="evenodd" clip-rule="evenodd" d="M3.40064 9.34463C3.79373 8.07055 4.46885 6.88134 5.39859 5.87924L6.99997 6.8038C8.3333 7.5736 9.99997 6.61135 9.99997 5.07175V3.22263C11.3327 2.9185 12.7001 2.92844 14.0001 3.22504L14.0001 5.07178C14.0001 6.61138 15.6667 7.57363 17.0001 6.80383L18.6011 5.87947C19.0491 6.36355 19.4506 6.90473 19.7943 7.50004C20.1379 8.09533 20.4059 8.71356 20.6011 9.34357L19 10.2679C17.6667 11.0377 17.6667 12.9622 19 13.732L20.5994 14.6554C20.2063 15.9295 19.5312 17.1187 18.6015 18.1208L17.0001 17.1963C15.6667 16.4265 14.0001 17.3887 14.0001 18.9283V20.7775C12.6674 21.0816 11.2999 21.0716 9.99997 20.775L9.99997 18.9282C9.99997 17.3886 8.3333 16.4264 6.99997 17.1962L5.39892 18.1206C4.95091 17.6365 4.54949 17.0953 4.2058 16.5C3.8621 15.9047 3.59414 15.2865 3.39893 14.6564L4.99994 13.7321C6.33328 12.9623 6.33328 11.0378 4.99994 10.268L3.40064 9.34463ZM12 14C13.1046 14 14 13.1046 14 12C14 10.8955 13.1046 10 12 10C10.8955 10 10 10.8955 10 12C10 13.1046 10.8955 14 12 14Z" fill="#292929"/>
<circle cx="12" cy="12" r="2" stroke="#292929" stroke-width="2"/>
<path d="M5.39856 5.87922C4.46882 6.88131 3.79371 8.07052 3.40061 9.3446L4.99992 10.268C6.33325 11.0378 6.33325 12.9623 4.99992 13.7321L3.3989 14.6564C3.59411 15.2865 3.86207 15.9047 4.20577 16.5C4.54946 17.0953 4.95089 17.6365 5.39889 18.1205L6.99994 17.1962C8.33328 16.4264 9.99994 17.3886 9.99994 18.9282L9.99994 20.775C11.2999 21.0716 12.6673 21.0816 14 20.7774L14 18.9283C14 17.3887 15.6667 16.4264 17 17.1962L18.6014 18.1208C19.5312 17.1187 20.2063 15.9295 20.5994 14.6554L19 13.732C17.6667 12.9622 17.6667 11.0377 19 10.2679L20.6011 9.34354C20.4059 8.71353 20.1379 8.0953 19.7942 7.50001C19.4505 6.9047 19.0491 6.36352 18.6011 5.87944L17 6.8038C15.6667 7.5736 14 6.61135 14 5.07175L14 3.22501C12.7001 2.92841 11.3327 2.91847 9.99994 3.2226L9.99995 5.07172C9.99995 6.61132 8.33328 7.57357 6.99994 6.80377L5.39856 5.87922Z" stroke="#292929" stroke-width="2" stroke-linejoin="round"/>
</g>
<defs>
<clipPath id="clip0_1_24638">
<rect width="24" height="24" fill="white"/>
</clipPath>
</defs>
</svg>
