<svg width="18" height="18" viewBox="0 0 18 18" fill="none" xmlns="http://www.w3.org/2000/svg">
<path d="M15.41 5.34283C15.9095 5.80867 16.3084 6.37193 16.5818 6.99785C16.8553 7.62378 16.9976 8.2991 17 8.98215C17.0024 9.6652 16.8648 10.3415 16.5957 10.9693C16.3266 11.5971 15.9317 12.1632 15.4354 12.6325M6.4803 12.4065L8.15553 14.4796C9.02883 15.5603 9.46547 16.1006 9.84803 16.1594C10.1792 16.2104 10.5138 16.092 10.7394 15.8443C11 15.5581 11 14.8634 11 13.4739V4.52526C11 3.13581 11 2.44109 10.7394 2.1549C10.5138 1.90715 10.1792 1.78884 9.84803 1.83975C9.46547 1.89858 9.02883 2.43893 8.15553 3.51963L6.4803 5.59273C6.30388 5.81105 6.21567 5.92021 6.10652 5.99876C6.00982 6.06835 5.90147 6.1201 5.78656 6.15158C5.65687 6.1871 5.51652 6.1871 5.23583 6.1871H3.8125C3.0563 6.1871 2.6782 6.1871 2.37264 6.28804C1.77131 6.4867 1.2996 6.95841 1.10094 7.55974C1 7.8653 1 8.2434 1 8.9996C1 9.7558 1 10.1339 1.10094 10.4395C1.2996 11.0408 1.77131 11.5125 2.37264 11.7112C2.6782 11.8121 3.0563 11.8121 3.8125 11.8121H5.23583C5.51652 11.8121 5.65687 11.8121 5.78656 11.8476C5.90147 11.8791 6.00982 11.9308 6.10652 12.0004C6.21567 12.079 6.30388 12.1881 6.4803 12.4065Z" stroke="black" stroke-width="2" stroke-linecap="round" stroke-linejoin="round"/>
</svg>
