<svg width="13" height="16" viewBox="0 0 13 16" fill="none" xmlns="http://www.w3.org/2000/svg">
<path d="M12 1V15M1 6.57129V9.42865C1 11.2557 1 12.1693 1.38355 12.6958C1.71806 13.1549 2.23174 13.4496 2.79688 13.5073C3.44484 13.5733 4.23434 13.113 5.8125 12.1924L8.26167 10.7637L8.27012 10.7588C9.82163 9.85372 10.5979 9.4009 10.8595 8.81055C11.0881 8.2946 11.0881 7.70619 10.8595 7.19025C10.5974 6.59883 9.81878 6.14462 8.26167 5.2363L5.8125 3.80762C4.23434 2.88702 3.44484 2.42651 2.79688 2.49256C2.23174 2.55017 1.71806 2.84556 1.38355 3.30469C1 3.83111 1 4.74424 1 6.57129Z" stroke="black" stroke-width="2" stroke-linecap="round" stroke-linejoin="round"/>
</svg>
