<svg width="20" height="17" viewBox="0 0 20 17" fill="none" xmlns="http://www.w3.org/2000/svg">
<path d="M4.24957 13H4.19691C3.07858 13 2.5192 13 2.0918 12.7822C1.71547 12.5905 1.40973 12.2837 1.21799 11.9074C1 11.4796 1 10.9203 1 9.8002V4.2002C1 3.08009 1 2.51962 1.21799 2.0918C1.40973 1.71547 1.71547 1.40973 2.0918 1.21799C2.51962 1 3.08009 1 4.2002 1H15.8002C16.9203 1 17.4796 1 17.9074 1.21799C18.2837 1.40973 18.5905 1.71547 18.7822 2.0918C19 2.5192 19 3.07899 19 4.19691V9.80309C19 10.921 19 11.48 18.7822 11.9074C18.5905 12.2837 18.2841 12.5905 17.9077 12.7822C17.4803 13 16.921 13 15.8031 13H15.7529M14 16H6L10 11L14 16Z" stroke="black" stroke-width="2" stroke-linecap="round" stroke-linejoin="round"/>
</svg>
