<svg width="18" height="20" viewBox="0 0 18 20" fill="none" xmlns="http://www.w3.org/2000/svg">
<path d="M12 3.5V16.5C12 16.9647 12 17.197 12.0384 17.3902C12.1962 18.1836 12.816 18.8041 13.6094 18.9619C13.8026 19.0003 14.0349 19.0003 14.4996 19.0003C14.9642 19.0003 15.1974 19.0003 15.3906 18.9619C16.184 18.8041 16.8041 18.1836 16.9619 17.3902C17 17.1987 17 16.9687 17 16.5122V3.48777C17 3.03125 17 2.80087 16.9619 2.60938C16.8041 1.81599 16.1836 1.19624 15.3902 1.03843C15.197 1 14.9647 1 14.5 1C14.0353 1 13.8026 1 13.6094 1.03843C12.816 1.19624 12.1962 1.81599 12.0384 2.60938C12 2.80257 12 3.03534 12 3.5Z" stroke="black" stroke-width="2" stroke-linecap="round" stroke-linejoin="round"/>
<path d="M1 3.5V16.5C1 16.9647 1 17.197 1.03843 17.3902C1.19624 18.1836 1.81599 18.8041 2.60938 18.9619C2.80257 19.0003 3.0349 19.0003 3.49956 19.0003C3.96421 19.0003 4.19743 19.0003 4.39062 18.9619C5.18401 18.8041 5.8041 18.1836 5.96191 17.3902C6 17.1987 6 16.9687 6 16.5122V3.48777C6 3.03125 6 2.80087 5.96191 2.60938C5.8041 1.81599 5.18356 1.19624 4.39018 1.03843C4.19698 1 3.96465 1 3.5 1C3.03535 1 2.80257 1 2.60938 1.03843C1.81599 1.19624 1.19624 1.81599 1.03843 2.60938C1 2.80257 1 3.03534 1 3.5Z" stroke="black" stroke-width="2" stroke-linecap="round" stroke-linejoin="round"/>
</svg>
