<svg width="22" height="18" viewBox="0 0 22 18" fill="none" xmlns="http://www.w3.org/2000/svg">
<path d="M17.82 1.68652C18.8191 2.61821 19.6167 3.74472 20.1636 4.99657C20.7105 6.24842 20.9952 7.59905 20.9999 8.96515C21.0047 10.3313 20.7295 11.6838 20.1914 12.9395C19.6532 14.1951 18.8635 15.3272 17.8709 16.2658M15.092 4.61194C15.6915 5.17095 16.17 5.84686 16.4982 6.59797C16.8263 7.34908 16.9971 8.15946 17 8.97912C17.0028 9.79877 16.8377 10.6103 16.5148 11.3637C16.1919 12.1171 15.7181 12.7963 15.1225 13.3595M6.4803 12.4069L8.15553 14.48C9.02883 15.5607 9.46547 16.1011 9.84803 16.1599C10.1792 16.2108 10.5138 16.0925 10.7394 15.8448C11 15.5586 11 14.8638 11 13.4744V4.52572C11 3.13627 11 2.44155 10.7394 2.15536C10.5138 1.90761 10.1792 1.78929 9.84803 1.84021C9.46547 1.89904 9.02883 2.43939 8.15553 3.52009L6.4803 5.59319C6.30388 5.81151 6.21567 5.92067 6.10652 5.99922C6.00982 6.06881 5.90147 6.12056 5.78656 6.15204C5.65687 6.18756 5.51652 6.18756 5.23583 6.18756H3.8125C3.0563 6.18756 2.6782 6.18756 2.37264 6.2885C1.77131 6.48716 1.2996 6.95887 1.10094 7.5602C1 7.86576 1 8.24386 1 9.00006C1 9.75626 1 10.1344 1.10094 10.4399C1.2996 11.0413 1.77131 11.513 2.37264 11.7116C2.6782 11.8126 3.0563 11.8126 3.8125 11.8126H5.23583C5.51652 11.8126 5.65687 11.8126 5.78656 11.8481C5.90147 11.8796 6.00982 11.9313 6.10652 12.0009C6.21567 12.0794 6.30388 12.1886 6.4803 12.4069Z" stroke="black" stroke-width="2" stroke-linecap="round" stroke-linejoin="round"/>
</svg>
