<svg width="16" height="18" viewBox="0 0 16 18" fill="none" xmlns="http://www.w3.org/2000/svg">
<path d="M5 6.18725H3.8125C3.0563 6.18725 2.6782 6.18725 2.37264 6.28819C1.77131 6.48684 1.2996 6.95855 1.10094 7.55988C1 7.86544 1 8.24354 1 8.99975C1 9.75595 1 10.134 1.10094 10.4396C1.2996 11.0409 1.77131 11.5127 2.37264 11.7113C2.6782 11.8122 3.0563 11.8122 3.8125 11.8122H5.23583C5.51652 11.8122 5.65687 11.8122 5.78656 11.8478C5.90147 11.8792 6.00982 11.931 6.10652 12.0006C6.21567 12.0791 6.30388 12.1883 6.4803 12.4066L8.15553 14.4797C9.02882 15.5604 9.46548 16.1008 9.84803 16.1596C10.1792 16.2105 10.5138 16.0922 10.7394 15.8444C11 15.5583 11 14.8635 11 13.4741V11.9997M11 7.49975V3.97735C11 3.04105 11 2.57291 10.8776 2.3488C10.6329 1.90109 10.0905 1.70931 9.61881 1.90379C9.38272 2.00113 9.08848 2.36526 8.5 3.0935L7.875 3.86693M1 1.99975L15 15.9997" stroke="black" stroke-width="2" stroke-linecap="round" stroke-linejoin="round"/>
</svg>
