<svg width="16" height="16" viewBox="0 0 16 16" fill="none" xmlns="http://www.w3.org/2000/svg">
<path d="M1 4.2002V11.8002C1 12.9203 1 13.4796 1.21799 13.9074C1.40973 14.2837 1.71547 14.5905 2.0918 14.7822C2.5192 15 3.07899 15 4.19691 15H11.8036C12.9215 15 13.4805 15 13.9079 14.7822C14.2842 14.5905 14.5905 14.2837 14.7822 13.9074C15 13.48 15 12.921 15 11.8031V4.19691C15 3.07899 15 2.5192 14.7822 2.0918C14.5905 1.71547 14.2842 1.40973 13.9079 1.21799C13.4801 1 12.9203 1 11.8002 1H4.2002C3.08009 1 2.51962 1 2.0918 1.21799C1.71547 1.40973 1.40973 1.71547 1.21799 2.0918C1 2.51962 1 3.08009 1 4.2002Z" stroke="black" stroke-width="2" stroke-linecap="round" stroke-linejoin="round"/>
</svg>
