<svg width="13" height="16" viewBox="0 0 13 16" fill="none" xmlns="http://www.w3.org/2000/svg">
<path d="M1 1V15M12 6.57129V9.42865C12 11.2557 11.9998 12.1693 11.6162 12.6958C11.2817 13.1549 10.7679 13.4496 10.2028 13.5073C9.55479 13.5733 8.76562 13.113 7.18745 12.1924L4.73053 10.7592C3.17859 9.85385 2.40224 9.40098 2.14062 8.81055C1.91202 8.2946 1.91202 7.70619 2.14062 7.19025C2.40267 6.59883 3.18117 6.14462 4.73828 5.2363L7.18745 3.80762L7.18952 3.80644C8.76633 2.88663 9.55507 2.42653 10.2028 2.49256C10.7679 2.55017 11.2817 2.84556 11.6162 3.30469C11.9998 3.83111 12 4.74424 12 6.57129Z" stroke="black" stroke-width="2" stroke-linecap="round" stroke-linejoin="round"/>
</svg>
