<svg width="18" height="22" viewBox="0 0 18 22" fill="none" xmlns="http://www.w3.org/2000/svg">
<path d="M10 4H15.4C15.9601 4 16.2409 4 16.4548 4.10899C16.6429 4.20487 16.7948 4.35774 16.8906 4.5459C16.9996 4.75981 17 5.04005 17 5.6001V6.3448C17 6.58444 17 6.70551 16.9727 6.81942C16.9482 6.92146 16.9072 7.01893 16.8524 7.1084C16.7906 7.20931 16.7043 7.2958 16.5314 7.46875L15 9.00012M4.49961 4H2.59961C2.03956 4 1.75981 4 1.5459 4.10899C1.35774 4.20487 1.20487 4.35774 1.10899 4.5459C1 4.75981 1 5.04005 1 5.6001V6.33736C1 6.58195 1 6.70433 1.02763 6.81942C1.05213 6.92146 1.09263 7.01893 1.14746 7.1084C1.20928 7.20928 1.29591 7.29591 1.46875 7.46875L6.53149 12.5315C6.70443 12.7044 6.79044 12.7904 6.85228 12.8914C6.90711 12.9808 6.94816 13.0786 6.97266 13.1807C7 13.2946 7 13.4155 7 13.6552V18.411C7 19.2682 7 19.6971 7.18054 19.9552C7.33819 20.1806 7.5814 20.331 7.85352 20.3712C8.16514 20.4172 8.54871 20.2257 9.31543 19.8424L10.1154 19.4424C10.4365 19.2819 10.5966 19.2013 10.7139 19.0815C10.8176 18.9756 10.897 18.8485 10.9453 18.7083C11 18.5499 11 18.37 11 18.011V13.6626C11 13.418 11 13.2958 11.0276 13.1807C11.0521 13.0786 11.0926 12.9809 11.1475 12.8915C11.2091 12.7909 11.2952 12.7048 11.4669 12.5331L11.4688 12.5314L12.5001 11.5001M12.5001 11.5001L2 1M12.5001 11.5001L16 15" stroke="black" stroke-width="2" stroke-linecap="round" stroke-linejoin="round"/>
</svg>
