<svg width="20" height="18" viewBox="0 0 20 18" fill="none" xmlns="http://www.w3.org/2000/svg">
<path d="M6 5H4.2002C3.08009 5 2.51962 5 2.0918 5.21799C1.71547 5.40973 1.40973 5.71547 1.21799 6.0918C1 6.51962 1 7.08009 1 8.2002V13.8002C1 14.9203 1 15.4801 1.21799 15.9079C1.40973 16.2842 1.71547 16.5905 2.0918 16.7822C2.5192 17 3.07899 17 4.19691 17H15.8031C16.921 17 17.48 17 17.9074 16.7822C18.2837 16.5905 18.5905 16.2842 18.7822 15.9079C19 15.4805 19 14.9215 19 13.8036V8.19691C19 7.07899 19 6.5192 18.7822 6.0918C18.5905 5.71547 18.2837 5.40973 17.9074 5.21799C17.4796 5 16.9203 5 15.8002 5H14M6 5H14M6 5C6 2.79086 7.79086 1 10 1C12.2091 1 14 2.79086 14 5" stroke="black" stroke-width="2" stroke-linecap="round" stroke-linejoin="round"/>
</svg>
