<svg width="14" height="14" viewBox="0 0 14 14" fill="none" xmlns="http://www.w3.org/2000/svg">
<path d="M1 4.2002V9.8002C1 10.9203 1 11.4801 1.21799 11.9079C1.40973 12.2842 1.71547 12.5905 2.0918 12.7822C2.5192 13 3.07899 13 4.19691 13H9.80309C10.921 13 11.48 13 11.9074 12.7822C12.2837 12.5905 12.5905 12.2842 12.7822 11.9079C13 11.4805 13 10.9215 13 9.80358V4.19691C13 3.07899 13 2.5192 12.7822 2.0918C12.5905 1.71547 12.2837 1.40973 11.9074 1.21799C11.4796 1 10.9203 1 9.8002 1H4.2002C3.08009 1 2.51962 1 2.0918 1.21799C1.71547 1.40973 1.40973 1.71547 1.21799 2.0918C1 2.51962 1 3.08009 1 4.2002Z" stroke="black" stroke-width="2" stroke-linecap="round" stroke-linejoin="round"/>
</svg>
