<svg width="22" height="22" viewBox="0 0 22 22" fill="none" xmlns="http://www.w3.org/2000/svg">
<path d="M13.2629 19.344L19.344 13.2629C20.1361 12.4709 20.532 12.0746 20.6803 11.6179C20.8109 11.2162 20.8109 10.7844 20.6803 10.3827C20.532 9.92601 20.1361 9.52914 19.344 8.73711L13.2616 2.65465C12.4704 1.86351 12.0748 1.46786 11.6184 1.31957C11.2167 1.18905 10.7839 1.18905 10.3822 1.31957C9.92571 1.46788 9.52897 1.86462 8.7376 2.65599L2.65648 8.73711L2.656 8.73802C1.86429 9.52973 1.46791 9.9261 1.31957 10.3827C1.18905 10.7844 1.18905 11.2162 1.31957 11.6179C1.46786 12.0743 1.864 12.4704 2.65514 13.2616L8.74136 19.3478C9.53088 20.1373 9.92625 20.5327 10.3822 20.6808C10.7839 20.8113 11.2167 20.8113 11.6184 20.6808C12.0749 20.5325 12.4706 20.1368 13.2621 19.3453L13.2629 19.344Z" stroke="black" stroke-width="2" stroke-linecap="round" stroke-linejoin="round"/>
</svg>
