<svg width="18" height="20" viewBox="0 0 18 20" fill="none" xmlns="http://www.w3.org/2000/svg">
<path d="M10 7H1M10 7V2.6001C10 2.04005 9.99962 1.75981 9.89062 1.5459C9.79475 1.35774 9.64293 1.20487 9.45477 1.10899C9.24086 1 8.96005 1 8.4 1H1V7M10 7H15.4C15.9601 7 16.2409 7 16.4548 7.10899C16.6429 7.20487 16.7948 7.35774 16.8906 7.5459C16.9996 7.75981 17 8.04005 17 8.6001V11.4001C17 11.9601 16.9996 12.2398 16.8906 12.4537C16.7948 12.6419 16.6429 12.7952 16.4548 12.8911C16.2411 13 15.961 13 15.402 13H13M1 7V13M1 13V19H11.402C11.961 19 12.2411 19 12.4548 18.8911C12.6429 18.7952 12.7948 18.642 12.8906 18.4538C12.9996 18.2399 13 17.9601 13 17.4V13M1 13H13" stroke="black" stroke-width="2" stroke-linecap="round" stroke-linejoin="round"/>
</svg>
