<svg width="19" height="14" viewBox="0 0 19 14" fill="none" xmlns="http://www.w3.org/2000/svg">
<path d="M16.2933 4.95137L13.96 2.15137C13.6073 1.72814 13.43 1.51639 13.2139 1.36426C13.0223 1.22946 12.8084 1.12953 12.5822 1.06868C12.327 1 12.0523 1 11.5014 1H4.2002C3.08009 1 2.51962 1 2.0918 1.21799C1.71547 1.40973 1.40973 1.71547 1.21799 2.0918C1 2.51962 1 3.08009 1 4.2002V9.8002C1 10.9203 1 11.4801 1.21799 11.9079C1.40973 12.2842 1.71547 12.5905 2.0918 12.7822C2.5192 13 3.07899 13 4.19691 13H11.5014C12.0523 13 12.327 12.9998 12.5822 12.9312C12.8084 12.8703 13.0223 12.7702 13.2139 12.6354C13.43 12.4833 13.6073 12.2721 13.96 11.8488L16.2933 9.04883C16.9006 8.32005 17.2036 7.95559 17.3197 7.54883C17.422 7.19021 17.422 6.80952 17.3197 6.4509C17.2036 6.04414 16.9006 5.68015 16.2933 4.95137Z" stroke="black" stroke-width="2" stroke-linecap="round" stroke-linejoin="round"/>
</svg>
