<svg width="10" height="10" viewBox="0 0 10 10" fill="none" xmlns="http://www.w3.org/2000/svg">
<path d="M1 4.2002V5.8002C1 6.9203 1 7.48006 1.21799 7.90788C1.40973 8.28421 1.71547 8.59048 2.0918 8.78223C2.5192 9 3.07899 9 4.19691 9H5.80309C6.921 9 7.47999 9 7.90739 8.78223C8.28372 8.59048 8.59048 8.28421 8.78223 7.90788C9 7.48048 9 6.92149 9 5.80358V4.19691C9 3.07899 9 2.5192 8.78223 2.0918C8.59048 1.71547 8.28372 1.40973 7.90739 1.21799C7.47957 1 6.9203 1 5.8002 1H4.2002C3.08009 1 2.51962 1 2.0918 1.21799C1.71547 1.40973 1.40973 1.71547 1.21799 2.0918C1 2.51962 1 3.08009 1 4.2002Z" stroke="black" stroke-width="2" stroke-linecap="round" stroke-linejoin="round"/>
</svg>
